<svg xmlns="http://www.w3.org/2000/svg" version="1.1" id="Warstwa_1" x="0" y="0" xml:space="preserve" viewBox="0 0 385.871 441"><style type="text/css" id="style2"/><g id="g840" fill="#fff" stroke-width="1.482"><path d="M165.371 220.5c0 121.775 98.725 220.5 220.5 220.5V0c-121.775 0-220.5 98.725-220.5 220.5zm110.258 55.129c-30.448 0-55.129-24.681-55.129-55.129 0-30.448 24.681-55.129 55.129-55.129 30.447 0 55.128 24.681 55.128 55.129-.014 30.448-24.696 55.129-55.128 55.129z" id="path6"/><path d="M55.129 165.371C24.68 165.371 0 190.052 0 220.5c0 30.448 24.681 55.129 55.129 55.129 30.447 0 55.128-24.681 55.128-55.129 0-30.448-24.696-55.129-55.128-55.129z" id="path8"/></g></svg>