<svg xmlns="http://www.w3.org/2000/svg" viewBox="0 0 441 441"><g transform="matrix(1.48465 0 0 -1.48475 -222.356 662.361)" fill="#fff"><circle cx="409.68" cy="223.33" r="37.13"/><path d="M168.34 297.57c10.25 0 18.57-8.31 18.57-18.56 0-10.25-8.31-18.55-18.57-18.55-10.25 0-18.57 8.31-18.57 18.55 0 10.25 8.32 18.56 18.57 18.56zm111.39-111.39c10.24 0 18.54-8.3 18.54-18.54 0-10.24-8.3-18.55-18.54-18.55-10.24 0-18.54 8.3-18.54 18.55-.01 10.24 8.29 18.54 18.54 18.54zm18.56 111.41V446.1c82.03 0 148.52-66.49 148.52-148.51zm0 0v-92.82h-92.82c0 51.26 41.55 92.82 92.82 92.82zM149.77 446.11c61.52 0 111.39-49.87 111.39-111.39H149.77z"/></g></svg>