<svg id="Warstwa_1" data-name="Warstwa 1" xmlns="http://www.w3.org/2000/svg" viewBox="0 0 595.28 595.28"><defs><style>.cls-1{fill:#100c08;}</style></defs><title>RGB_GAK_logo podstawowe</title><path class="cls-1" d="M149.05,288v20.53h18.39A22.52,22.52,0,0,1,153,320.93c-.13,0-1.19.31-1.6.39a21.45,21.45,0,0,1-6.07.4,22.51,22.51,0,0,1-18.52-12.12,23.8,23.8,0,0,1-2.61-13,22.6,22.6,0,0,1,4.59-11.81,25,25,0,0,1,8.77-7c4.68-2.32,11.08-2.22,11.76-2.18.7-1.53,11-24.18,11.2-24.55.07-.17-8.06-2.52-18-2.08a48.78,48.78,0,1,0,51,52.19,47.2,47.2,0,0,0-1-13.12Z"/><path class="cls-1" d="M478.07,304a21.13,21.13,0,1,0,21.12,21.13A21.12,21.12,0,0,0,478.07,304Z"/><polygon class="cls-1" points="278.72 250.49 248.16 250.49 247.7 250.49 204.16 344.77 235.18 344.77 263.44 283.6 291.7 344.77 322.71 344.77 279.17 250.49 278.72 250.49"/><polygon class="cls-1" points="406.43 250.49 373.56 297.63 406.43 344.77 437.44 344.77 404.57 297.63 437.44 250.49 406.43 250.49"/><polygon class="cls-1" points="373.56 250.49 344.93 250.49 344.93 344.77 373.56 344.77 373.56 297.63 373.56 297.27 373.56 250.49"/></svg>