<?xml version="1.0" encoding="UTF-8" standalone="no"?>
<svg
   xmlns:dc="http://purl.org/dc/elements/1.1/"
   xmlns:cc="http://creativecommons.org/ns#"
   xmlns:rdf="http://www.w3.org/1999/02/22-rdf-syntax-ns#"
   xmlns:svg="http://www.w3.org/2000/svg"
   xmlns="http://www.w3.org/2000/svg"
   version="1.1"
   id="Warstwa_1"
   x="0px"
   y="0px"
   viewBox="0 0 24.000001 23.999999"
   xml:space="preserve"
   width="24.000002"
   height="24"><metadata
   id="metadata19"><rdf:RDF><cc:Work
       rdf:about=""><dc:format>image/svg+xml</dc:format><dc:type
         rdf:resource="http://purl.org/dc/dcmitype/StillImage" /><dc:title></dc:title></cc:Work></rdf:RDF></metadata><defs
   id="defs17" />
<style
   type="text/css"
   id="style2">
	.st0{fill:none;}
</style>
<g
   id="g12"
   transform="matrix(0.0805883,0,0,0.0805883,-12.101945,-11.964945)">
	<path
   class="st0"
   d="m 299.08,221.5 c -21.34,0 -38.65,17.3 -38.65,38.65 0,21.34 17.3,38.65 38.65,38.65 21.35,0 38.65,-17.3 38.65,-38.65 -0.01,-21.35 -17.31,-38.65 -38.65,-38.65 z"
   id="path4" />
	<rect
   x="150.17"
   y="371.82999"
   width="74.449997"
   height="74.449997"
   id="rect6" />
	<rect
   x="373.53"
   y="371.82999"
   width="74.449997"
   height="74.449997"
   id="rect8" />
	<path
   d="m 410.76,260.15 c 0,-61.68 -50,-111.68 -111.68,-111.68 -61.68,0 -111.68,50 -111.68,111.68 0,61.68 50,111.68 111.68,111.68 61.68,0 111.68,-50 111.68,-111.68 z M 299.08,298.8 c -21.34,0 -38.65,-17.3 -38.65,-38.65 0,-21.34 17.3,-38.65 38.65,-38.65 21.35,0 38.65,17.3 38.65,38.65 -0.01,21.34 -17.31,38.65 -38.65,38.65 z"
   id="path10" />
</g>
</svg>
