<?xml version="1.0" encoding="UTF-8" standalone="no"?>
<svg
   xmlns:dc="http://purl.org/dc/elements/1.1/"
   xmlns:cc="http://creativecommons.org/ns#"
   xmlns:rdf="http://www.w3.org/1999/02/22-rdf-syntax-ns#"
   xmlns:svg="http://www.w3.org/2000/svg"
   xmlns="http://www.w3.org/2000/svg"
   version="1.1"
   id="Warstwa_1"
   x="0px"
   y="0px"
   viewBox="0 0 21.053664 24.06156"
   xml:space="preserve"
   width="21.053665"
   height="24.061562"><metadata
   id="metadata17"><rdf:RDF><cc:Work
       rdf:about=""><dc:format>image/svg+xml</dc:format><dc:type
         rdf:resource="http://purl.org/dc/dcmitype/StillImage" /><dc:title></dc:title></cc:Work></rdf:RDF></metadata><defs
   id="defs15" />
<style
   type="text/css"
   id="style2">
	.st0{fill:none;}
</style>
<g
   id="g10"
   transform="matrix(0.0808792,0,0,0.0808792,-13.507635,-12.033207)">
	<path
   class="st0"
   d="m 352.95,260.34 c -20.54,0 -37.19,16.65 -37.19,37.19 0,20.54 16.65,37.19 37.19,37.19 20.54,0 37.19,-16.65 37.19,-37.19 -0.01,-20.53 -16.66,-37.19 -37.19,-37.19 z"
   id="path4" />
	<path
   d="m 278.57,297.53 c 0,82.15 66.6,148.75 148.75,148.75 v -297.5 c -82.15,0 -148.75,66.6 -148.75,148.75 z m 74.38,37.19 c -20.54,0 -37.19,-16.65 -37.19,-37.19 0,-20.54 16.65,-37.19 37.19,-37.19 20.54,0 37.19,16.65 37.19,37.19 -0.01,20.54 -16.66,37.19 -37.19,37.19 z"
   id="path6" />
	<path
   d="m 204.2,260.34 c -20.54,0 -37.19,16.65 -37.19,37.19 0,20.54 16.65,37.19 37.19,37.19 20.54,0 37.19,-16.65 37.19,-37.19 0,-20.54 -16.66,-37.19 -37.19,-37.19 z"
   id="path8" />
</g>
</svg>
