<?xml version="1.0" encoding="UTF-8" standalone="no"?>
<svg
   xmlns:dc="http://purl.org/dc/elements/1.1/"
   xmlns:cc="http://creativecommons.org/ns#"
   xmlns:rdf="http://www.w3.org/1999/02/22-rdf-syntax-ns#"
   xmlns:svg="http://www.w3.org/2000/svg"
   xmlns="http://www.w3.org/2000/svg"
   xmlns:sodipodi="http://sodipodi.sourceforge.net/DTD/sodipodi-0.dtd"
   xmlns:inkscape="http://www.inkscape.org/namespaces/inkscape"
   version="1.1"
   id="Warstwa_1"
   x="0px"
   y="0px"
   viewBox="0 0 23.999999 23.999999"
   xml:space="preserve"
   sodipodi:docname="zpitg-black.svg"
   width="24"
   height="24"
   inkscape:version="1.0.1 (3bc2e813f5, 2020-09-07)"><metadata
   id="metadata21"><rdf:RDF><cc:Work
       rdf:about=""><dc:format>image/svg+xml</dc:format><dc:type
         rdf:resource="http://purl.org/dc/dcmitype/StillImage" /><dc:title></dc:title></cc:Work></rdf:RDF></metadata><defs
   id="defs19" /><sodipodi:namedview
   pagecolor="#ffffff"
   bordercolor="#666666"
   borderopacity="1"
   objecttolerance="10"
   gridtolerance="10"
   guidetolerance="10"
   inkscape:pageopacity="0"
   inkscape:pageshadow="2"
   inkscape:window-width="1680"
   inkscape:window-height="987"
   id="namedview17"
   showgrid="false"
   fit-margin-top="0"
   fit-margin-left="0"
   fit-margin-right="0"
   fit-margin-bottom="0"
   inkscape:zoom="6.9845916"
   inkscape:cx="-11.553872"
   inkscape:cy="19.706959"
   inkscape:window-x="1912"
   inkscape:window-y="-8"
   inkscape:window-maximized="1"
   inkscape:current-layer="Warstwa_1" />
<g
   id="g14"
   transform="matrix(0.0807972,0,0,0.08080264,-12.100997,-12.046866)">
	<circle
   cx="409.67999"
   cy="223.33"
   r="37.130001"
   id="circle2" />
	<path
   d="m 168.34,297.57 c 10.25,0 18.57,-8.31 18.57,-18.56 0,-10.25 -8.31,-18.55 -18.57,-18.55 -10.25,0 -18.57,8.31 -18.57,18.55 0,10.25 8.32,18.56 18.57,18.56 z"
   id="path4" />
	<path
   d="m 279.73,186.18 c 10.24,0 18.54,-8.3 18.54,-18.54 0,-10.24 -8.3,-18.55 -18.54,-18.55 -10.24,0 -18.54,8.3 -18.54,18.55 -0.01,10.24 8.29,18.54 18.54,18.54 z"
   id="path6" />
	<path
   d="M 298.29,297.59 V 446.1 c 82.03,0 148.52,-66.49 148.52,-148.51 z"
   id="path8" />
	<path
   d="m 298.29,297.59 v -92.82 h -92.82 c 0,51.26 41.55,92.82 92.82,92.82 z"
   id="path10" />
	<path
   d="m 149.77,446.11 c 61.52,0 111.39,-49.87 111.39,-111.39 H 149.77 Z"
   id="path12" />
</g>
</svg>
