<?xml version="1.0" encoding="utf-8"?>
<!-- Generator: Adobe Illustrator 25.0.0, SVG Export Plug-In . SVG Version: 6.00 Build 0)  -->
<svg version="1.1" xmlns="http://www.w3.org/2000/svg" xmlns:xlink="http://www.w3.org/1999/xlink" x="0px" y="0px"
	 viewBox="0 0 1000 891" style="enable-background:new 0 0 1000 891;" xml:space="preserve">
<style type="text/css">
	.st0{display:none;}
	.st1{display:inline;fill:#EFF3F7;}
	.st2{fill:#EFF3F7;}
</style>
<g id="Plama" xmlns:cc="http://creativecommons.org/ns#" xmlns:dc="http://purl.org/dc/elements/1.1/" xmlns:rdf="http://www.w3.org/1999/02/22-rdf-syntax-ns#" xmlns:svg="http://www.w3.org/2000/svg" class="st0">
	<path id="rect831" class="st1" d="M0,0v891h302.8l-99.6-99.5l99.6-99.7l99.6,99.6L302.8,891h498c-110,0-199.2-89.2-199.2-199.2
		c0-5.8,0.3-11.6,0.7-17.3c-31.4,11.2-65.1,17.3-100.3,17.3C337,691.8,203.2,558,203.2,393C203.2,228,337,94.2,502,94.2
		S800.8,228,800.8,393c0,35.2-6.1,69-17.3,100.3c5.7-0.5,11.5-0.7,17.3-0.7c110,0,199.2,89.2,199.2,199.2V0H0z M1000,691.8
		c0,110-89.2,199.2-199.2,199.2H1000V691.8z"/>
</g>
<g id="Dom_Sztuki">
	<path class="st2" d="M0,0v891h601.5l0,0H218.6V508.1l382.9-382.9v341.7c20.7-192.1,184.2-341.7,382.9-341.7v382.9H601.5V891
		l382.9-382.9V891h15.7V0H0z"/>
</g>
</svg>
