<?xml version="1.0" encoding="UTF-8" standalone="no"?>
<!-- Generator: Adobe Illustrator 25.0.0, SVG Export Plug-In . SVG Version: 6.00 Build 0)  -->

<svg
   xmlns:dc="http://purl.org/dc/elements/1.1/"
   xmlns:cc="http://creativecommons.org/ns#"
   xmlns:rdf="http://www.w3.org/1999/02/22-rdf-syntax-ns#"
   xmlns:svg="http://www.w3.org/2000/svg"
   xmlns="http://www.w3.org/2000/svg"
   xmlns:sodipodi="http://sodipodi.sourceforge.net/DTD/sodipodi-0.dtd"
   xmlns:inkscape="http://www.inkscape.org/namespaces/inkscape"
   version="1.1"
   x="0px"
   y="0px"
   viewBox="0 0 1000 891"
   xml:space="preserve"
   id="svg26"
   sodipodi:docname="GdanskieLodowisko.svg"
   width="1000"
   height="891"
   inkscape:version="0.92.3 (2405546, 2018-03-11)"><metadata
   id="metadata32"><rdf:RDF><cc:Work
       rdf:about=""><dc:format>image/svg+xml</dc:format><dc:type
         rdf:resource="http://purl.org/dc/dcmitype/StillImage" /><dc:title></dc:title></cc:Work></rdf:RDF></metadata><defs
   id="defs30">
	
	
<style
   id="style853">.cls-1{fill:#100c08;}.cls-2{fill:#fff;}</style></defs><sodipodi:namedview
   pagecolor="#ffffff"
   bordercolor="#666666"
   borderopacity="1"
   objecttolerance="10"
   gridtolerance="10"
   guidetolerance="10"
   inkscape:pageopacity="0"
   inkscape:pageshadow="2"
   inkscape:window-width="1410"
   inkscape:window-height="961"
   id="namedview28"
   showgrid="false"
   fit-margin-top="0"
   fit-margin-left="0"
   fit-margin-right="0"
   fit-margin-bottom="0"
   inkscape:zoom="0.37458406"
   inkscape:cx="309.87423"
   inkscape:cy="530.97526"
   inkscape:window-x="2420"
   inkscape:window-y="1"
   inkscape:window-maximized="0"
   inkscape:current-layer="svg26" />
<style
   type="text/css"
   id="style2">
	.st0{fill:#EFF3F7;}
	.st1{display:none;}
	.st2{display:inline;fill:#EFF3F7;}
	.st3{fill:#FFFFFF;}
</style>


<g
   id="Dom_Sztuki"
   class="st1"
   style="display:none"
   transform="translate(7.0787265,-3.2764001)">
	<path
   class="st2"
   d="m 0,0 v 891 h 601.5 v 0 H 218.6 V 508.1 L 601.5,125.2 V 466.9 C 622.2,274.8 785.7,125.2 984.4,125.2 V 508.1 H 601.5 V 891 L 984.4,508.1 V 891 h 15.7 V 0 Z"
   id="path9"
   inkscape:connector-curvature="0"
   style="display:inline;fill:#eff3f7" />
</g>
<g
   id="GAMA"
   class="st1"
   style="display:none"
   transform="translate(7.0787265,-3.2764001)">
	<path
   class="st2"
   d="M 0,0 V 891 H 806.8 C 706.8,891 624.5,815 614.6,717.6 604.6,815 521.9,891 421.4,891 314,890.9 227,804.4 227,697.7 h 386.5 c 0,-106.7 86.5,-193.2 193.2,-193.2 106.7,0 193.2,86.5 193.2,193.2 V 0 Z M 613.5,311.3 C 613.5,418 527,504.5 420.3,504.5 313.6,504.5 227,418 227,311.2 227,204.4 313.6,118 420.3,118 c 100,0 182.3,76 192.2,173.3 C 622.5,194 705.2,118 805.7,118 913,118 1000,204.5 1000,311.3 Z"
   id="path12"
   inkscape:connector-curvature="0"
   style="display:inline;fill:#eff3f7" />
	<path
   class="st2"
   d="M 1000,697.7 V 891 H 806.8 C 913.5,891 1000,804.4 1000,697.7 Z"
   id="path14"
   inkscape:connector-curvature="0"
   style="display:inline;fill:#eff3f7" />
</g>
<path
   style="fill:#eff3f7"
   d="M 0,0 V 891 H 1000 V 0 Z M 235.45508,117.06445 H 522.03125 V 403.70313 H 999.45508 A 239.0737,238.98659 0 0 1 521.91992,420.01367 V 881.06445 A 238.79526,238.70825 0 0 1 283.125,642.35547 c 0,-127.92714 96.84334,-232.58443 223.36914,-238.76367 C 353.57164,397.52389 235.45508,271.71265 235.45508,117.06445 Z m 526.08008,0.14063 a 95.506965,95.472167 8.0041823e-4 0 1 87.53906,58.93359 95.506965,95.472167 8.0041823e-4 0 1 -51.6875,124.74024 95.506965,95.472167 8.0041823e-4 0 1 -124.78516,-51.66992 95.506965,95.472167 8.0041823e-4 0 1 51.6875,-124.74024 95.506965,95.472167 8.0041823e-4 0 1 37.2461,-7.26367 z"
   id="rect17"
   inkscape:connector-curvature="0" />
</svg>