<?xml version="1.0" encoding="utf-8"?>
<!-- Generator: Adobe Illustrator 26.3.1, SVG Export Plug-In . SVG Version: 6.00 Build 0)  -->
<svg version="1.1" id="Warstwa_1" xmlns="http://www.w3.org/2000/svg" xmlns:xlink="http://www.w3.org/1999/xlink" x="0px" y="0px"
	 viewBox="0 0 1000 891" style="enable-background:new 0 0 1000 891;" xml:space="preserve">
<style type="text/css">
	.st0{display:none;}
	.st1{display:inline;fill:#EFF3F7;}
	.st2{fill:#EFF3F7;}
</style>
<g id="Plama" xmlns:cc="http://creativecommons.org/ns#" xmlns:rdf="http://www.w3.org/1999/02/22-rdf-syntax-ns#" xmlns:dc="http://purl.org/dc/elements/1.1/" xmlns:svg="http://www.w3.org/2000/svg" class="st0">
	<path id="rect831" class="st1" d="M0,0v891h302.8l-99.6-99.5l99.6-99.7l99.6,99.6L302.8,891h498c-110,0-199.2-89.2-199.2-199.2
		c0-5.8,0.3-11.6,0.7-17.3c-31.4,11.2-65.1,17.3-100.3,17.3C337,691.8,203.2,558,203.2,393S337,94.2,502,94.2S800.8,228,800.8,393
		c0,35.2-6.1,69-17.3,100.3c5.7-0.5,11.5-0.7,17.3-0.7c110,0,199.2,89.2,199.2,199.2V0H0z M1000,691.8c0,110-89.2,199.2-199.2,199.2
		H1000V691.8z"/>
</g>
<g>
	<path class="st2" d="M572.6,712.8c100,45.7,213.2,3.8,252.9-93.7c32.3-79.2,6.1-170.7-58.5-226.8L496,653.2
		C516,678,541.9,698.7,572.6,712.8z"/>
	<path class="st2" d="M0,0v891h664.3c-50.1,0-101.6-10.7-151.3-33.3c-51-23.2-94.6-56.6-129.4-96.4l112.3-108.1L369.8,522.1l-7-7.3
		L236.6,383.6l270.7-260.4l-18.7,277.6l278.5-8.4l112.3-108c108.9,102.4,151.3,262.5,94.2,402C920.8,815.2,797.5,891,664.3,891H1000
		V0H0z"/>
</g>
</svg>
