<?xml version="1.0" encoding="UTF-8" standalone="no"?>
<svg
   xmlns:dc="http://purl.org/dc/elements/1.1/"
   xmlns:cc="http://creativecommons.org/ns#"
   xmlns:rdf="http://www.w3.org/1999/02/22-rdf-syntax-ns#"
   xmlns:svg="http://www.w3.org/2000/svg"
   xmlns="http://www.w3.org/2000/svg"
   width="3012.9863"
   height="2684.4434"
   viewBox="0 0 3012.9864 2684.4434"
   version="1.1"
   id="svg8">
  <metadata
     id="metadata14">
    <rdf:RDF>
      <cc:Work
         rdf:about="">
        <dc:format>image/svg+xml</dc:format>
        <dc:type
           rdf:resource="http://purl.org/dc/dcmitype/StillImage" />
        <dc:title></dc:title>
      </cc:Work>
    </rdf:RDF>
  </metadata>
  <defs
     id="defs12" />
  <path
     id="rect831"
     style="fill:#eff3f7;stroke-width:0.811124"
     d="m 0,0 v 2684.4434 h 912.4043 l -300.002,-299.9199 300.002,-300.2461 300.082,300.0839 -300.082,300.0821 h 1500.416 c -331.4609,0 -600.166,-268.6236 -600.166,-600.166 0,-17.5393 0.8059,-34.8347 2.2539,-52.0528 -94.5296,33.631 -196.2243,52.0528 -302.3379,52.0528 -497.1885,0 -900.25,-403.0619 -900.25,-900.25 0,-497.18874 403.0615,-900.25006 900.25,-900.25006 497.1881,0 900.25,403.06132 900.25,900.25006 0,106.0375 -18.4219,207.8082 -52.1348,302.3378 17.2186,-1.4479 34.5954,-2.2539 52.1348,-2.2539 331.4607,0 600.166,268.7053 600.166,600.1661 V 0 Z m 3012.9863,2084.2774 c 0,331.5424 -268.7053,600.166 -600.166,600.166 h 600.166 z" />
</svg>
