<?xml version="1.0" encoding="utf-8"?>
<!-- Generator: Adobe Illustrator 25.0.0, SVG Export Plug-In . SVG Version: 6.00 Build 0)  -->
<svg version="1.1" xmlns="http://www.w3.org/2000/svg" xmlns:xlink="http://www.w3.org/1999/xlink" x="0px" y="0px"
	 viewBox="0 0 1000 891" style="enable-background:new 0 0 1000 891;" xml:space="preserve">
<style type="text/css">
	.st0{fill:#EFF3F7;}
	.st1{display:none;}
	.st2{display:inline;fill:#EFF3F7;}
	.st3{display:inline;}
	.st4{fill:#FFFFFF;}
</style>
<g id="Prostokąt">
</g>
<g id="Plama" xmlns:cc="http://creativecommons.org/ns#" xmlns:dc="http://purl.org/dc/elements/1.1/" xmlns:rdf="http://www.w3.org/1999/02/22-rdf-syntax-ns#" xmlns:svg="http://www.w3.org/2000/svg" class="st1">
	<path id="rect831" class="st2" d="M0,0v891h302.8l-99.6-99.5l99.6-99.7l99.6,99.6L302.8,891h498c-110,0-199.2-89.2-199.2-199.2
		c0-5.8,0.3-11.6,0.7-17.3c-31.4,11.2-65.1,17.3-100.3,17.3C337,691.8,203.2,558,203.2,393C203.2,228,337,94.2,502,94.2
		S800.8,228,800.8,393c0,35.2-6.1,69-17.3,100.3c5.7-0.5,11.5-0.7,17.3-0.7c110,0,199.2,89.2,199.2,199.2V0H0z M1000,691.8
		c0,110-89.2,199.2-199.2,199.2H1000V691.8z"/>
</g>
<g id="Dom_Sztuki" class="st1">
	<path class="st2" d="M0,0v891h601.5l0,0H218.6V508.1l382.9-382.9v341.7c20.7-192.1,184.2-341.7,382.9-341.7v382.9H601.5V891
		l382.9-382.9V891h15.7V0H0z"/>
</g>
<g id="GAMA" class="st1">
	<path class="st2" d="M0,0v891h806.8c-100,0-182.3-76-192.2-173.4c-10,97.4-92.7,173.4-193.2,173.4C314,890.9,227,804.4,227,697.7
		h386.5c0-106.7,86.5-193.2,193.2-193.2c106.7,0,193.2,86.5,193.2,193.2V0H0z M613.5,311.3c0,106.7-86.5,193.2-193.2,193.2
		S227,418,227,311.2S313.6,118,420.3,118c100,0,182.3,76,192.2,173.3C622.5,194,705.2,118,805.7,118C913,118,1000,204.5,1000,311.3
		H613.5z"/>
	<path class="st2" d="M1000,697.7V891H806.8C913.5,891,1000,804.4,1000,697.7z"/>
</g>
<g id="Gdańskie_Lodowisko" class="st1">
	<rect y="0" class="st2" width="1000" height="891"/>
	<g class="st3">
		<path class="st4" d="M761.1,317.5c52.8,0,95.6-42.8,95.6-95.6s-42.8-95.6-95.6-95.6c-52.8,0-95.6,42.8-95.6,95.6
			S708.3,317.5,761.1,317.5z"/>
		<path class="st4" d="M522.1,413.1V126.3H235.4c0,154.8,118.2,280.7,271.2,286.8C380,419.2,283.2,523.9,283.2,652
			c0,132,107,238.9,238.9,238.9V429.4c8.4,124.3,112,222.6,238.7,222.6c132.1,0,239.2-107,239.2-238.9H522.1z"/>
	</g>
</g>
<g id="Projektoria" class="st1">
	<polygon class="st2" points="215.8,498.9 607.9,498.9 1000,891 607.9,891 	"/>
	<polygon class="st2" points="1000,106.8 607.9,498.9 607.9,106.8 215.8,106.8 215.8,891 0,891 0,0 1000,0 	"/>
</g>
<g id="Scena_Muzyczna">
	<path class="st0" d="M368.3,648V356.5c80.5,0,145.8,65.3,145.8,145.8C514.1,582.7,448.8,648,368.3,648z"/>
	<path class="st0" d="M1000,0v502.2c0-201.6-151.4-367.6-345.8-388.7v328.1c-27.9-131.9-145-230.9-285.2-230.9c-0.2,0-0.4,0-0.7,0
		v145.8H222.6V648h145.8v145.8c0.2,0,0.4,0,0.7,0c140.2,0,257.3-99,285.2-230.9V891H0V0H1000z"/>
	<path class="st0" d="M1000,502.2V891H654.2C848.6,869.8,1000,703.9,1000,502.2z"/>
</g>
</svg>
