<?xml version="1.0" encoding="UTF-8" standalone="no"?>
<svg
   xmlns:dc="http://purl.org/dc/elements/1.1/"
   xmlns:cc="http://creativecommons.org/ns#"
   xmlns:rdf="http://www.w3.org/1999/02/22-rdf-syntax-ns#"
   xmlns:svg="http://www.w3.org/2000/svg"
   xmlns="http://www.w3.org/2000/svg"
   xmlns:sodipodi="http://sodipodi.sourceforge.net/DTD/sodipodi-0.dtd"
   xmlns:inkscape="http://www.inkscape.org/namespaces/inkscape"
   width="3012.9863"
   height="2684.4453"
   viewBox="0 0 3012.9864 2684.4454"
   version="1.1"
   id="svg8"
   sodipodi:docname="logo-trans.svg"
   inkscape:version="1.0.1 (3bc2e813f5, 2020-09-07)">
  <metadata
     id="metadata14">
    <rdf:RDF>
      <cc:Work
         rdf:about="">
        <dc:format>image/svg+xml</dc:format>
        <dc:type
           rdf:resource="http://purl.org/dc/dcmitype/StillImage" />
        <dc:title></dc:title>
      </cc:Work>
    </rdf:RDF>
  </metadata>
  <defs
     id="defs12" />
  <sodipodi:namedview
     pagecolor="#ffffff"
     bordercolor="#666666"
     borderopacity="1"
     objecttolerance="10"
     gridtolerance="10"
     guidetolerance="10"
     inkscape:pageopacity="0"
     inkscape:pageshadow="2"
     inkscape:window-width="1680"
     inkscape:window-height="987"
     id="namedview10"
     showgrid="false"
     fit-margin-top="0"
     fit-margin-left="0"
     fit-margin-right="0"
     fit-margin-bottom="0"
     inkscape:zoom="0.1225"
     inkscape:cx="47.588772"
     inkscape:cy="1343.614"
     inkscape:window-x="1912"
     inkscape:window-y="-8"
     inkscape:window-maximized="1"
     inkscape:current-layer="svg8" />
  <path
     id="path25"
     style="opacity:1;stroke-width:3.17369;fill:#eff3f7;fill-opacity:1"
     d="M 0,0 V 2684.4453 H 634.9297 V 2089.834 h 594.5098 v 594.6113 h 1189.0273 v -594.6211 h 594.5196 V 0 Z m 1823.9512,305.9785 c 492.5109,0 891.7735,399.3242 891.7735,891.9238 0,492.6028 -399.2626,891.9317 -891.7735,891.9317 -492.498,0 -891.7597,-399.3289 -891.7597,-891.9317 0,-492.5996 399.2585,-891.9238 891.7597,-891.9238 z m 0,583.2715 c -170.4266,0 -308.6015,138.1877 -308.6015,308.6523 0,170.4681 138.1749,308.6504 308.6015,308.6504 170.4331,0 308.6094,-138.1823 308.6094,-308.6504 0,-170.4646 -138.1763,-308.6523 -308.6094,-308.6523 z" />
</svg>
