<svg data-name="Group 219" xmlns="http://www.w3.org/2000/svg" viewBox="0 0 30.113 20.233"><g data-name="Group 218"><path data-name="Path 1108" d="M24.114 8.235a6.054 6.054 0 00-.62.032l-1.457-7.09h2.188a.713.713 0 010 1.426.588.588 0 100 1.176 1.889 1.889 0 000-3.778h-2.91a.588.588 0 00-.576.707l.8 3.889h-9.772l-.24-1.066h.858a1.765 1.765 0 100-3.529H9.091a1.765 1.765 0 000 3.529h1.23l1.019 4.532L9.8 9.598a6 6 0 00-5.545-1.107.589.589 0 00.345 1.126 4.822 4.822 0 014.367.818l-2.032 2.032a2 2 0 10.976 2.355h2.874a4.823 4.823 0 11-9.409-1.968.588.588 0 00-1.127-.336A6 6 0 0011.7 16.11a2.435 2.435 0 002.823.218l.886.886a.588.588 0 00.463.95h1.461a.588.588 0 000-1.176h-.487l-1.491-1.491a2.436 2.436 0 000-2.517l6.558-6.558.429 2.085a6 6 0 101.773-.267zM8.5 1.765a.589.589 0 01.588-.588h3.294a.588.588 0 010 1.176H9.091a.589.589 0 01-.591-.588zm12.391 4.007l-6.372 6.372a2.424 2.424 0 00-1.136-.347l-1.355-6.024h8.863zm-8.663 6.251a2.448 2.448 0 00-.532.339 5.994 5.994 0 00-1.064-1.932l1.011-1.011zm-4.462 1.276L9.8 11.267a4.8 4.8 0 01.987 2.378H7.911a2 2 0 00-.144-.347zM6 15.057a.823.823 0 11.823-.823.824.824 0 01-.823.823zm8.229-.69a.588.588 0 10-.832.832l.243.243a1.264 1.264 0 11.832-.832zm9.885 4.69a4.822 4.822 0 01-1.534-9.395l.579 2.815a2 2 0 101.153-.234l-.579-2.817c.126-.01.253-.016.381-.016a4.823 4.823 0 010 9.646zm0-5.647a.823.823 0 11-.823.823.824.824 0 01.823-.823z"/><path data-name="Path 1109" d="M2.161 11.007a.588.588 0 10-.416-.172.593.593 0 00.416.172z"/></g></svg>