<svg xmlns="http://www.w3.org/2000/svg" viewBox="0 0 26.584 22.591"><g data-name="Group 206"><g data-name="Group 197"><g data-name="Group 196"><path data-name="Path 1098" d="M21.114 13.592h-3.176a.59.59 0 00-.588.588v2.176a.59.59 0 00.588.588h3.176a.59.59 0 00.588-.588V14.18a.59.59 0 00-.588-.588zm-.588 2.176h-2v-1h2z"/></g></g><g data-name="Group 199"><g data-name="Group 198"><path data-name="Path 1099" d="M8.645 13.592H5.469a.59.59 0 00-.588.588v2.176a.59.59 0 00.588.588h3.176a.59.59 0 00.588-.588V14.18a.59.59 0 00-.588-.588zm-.588 2.176h-2v-1h2z"/></g></g><g data-name="Group 201"><g data-name="Group 200"><path data-name="Path 1100" d="M15.644 15.651h-4.705a.588.588 0 100 1.176h4.705a.588.588 0 100-1.176z"/></g></g><g data-name="Group 203"><g data-name="Group 202"><path data-name="Path 1101" d="M15.644 14.004h-4.705a.588.588 0 100 1.176h4.705a.588.588 0 100-1.176z"/></g></g><g data-name="Group 205"><g data-name="Group 204"><path data-name="Path 1102" d="M25.061 8.886h-1.418v-6.4a2.413 2.413 0 00-2.4-2.417L5.34 0a2.4 2.4 0 00-2.406 2.388v6.5H1.517A1.512 1.512 0 000 10.38v1.829a1.514 1.514 0 001.523 1.494h1.418v3.858a2.429 2.429 0 001.176 2.1v1.429a1.519 1.519 0 001.529 1.494h1.97a1.489 1.489 0 001.5-1.488v-1.094h8.352v1.094a1.494 1.494 0 001.5 1.494h1.97a1.519 1.519 0 001.529-1.494v-1.429a2.429 2.429 0 001.176-2.1v-3.858h1.417a1.514 1.514 0 001.523-1.494V10.38a1.514 1.514 0 00-1.522-1.494zm-22.12 3.647H1.523a.338.338 0 01-.347-.318V10.38a.338.338 0 01.347-.318h1.418zm1.17-9.493v-.623a1.242 1.242 0 01.359-.876 1.225 1.225 0 01.865-.359h.005l15.9.071a1.229 1.229 0 011.223 1.235v.635zM7.94 21.096a.316.316 0 01-.318.318H5.646a.34.34 0 01-.353-.318v-1.111c.059 0 .035.018.047.018h2.6zm13.351 0a.34.34 0 01-.353.318h-1.97a.313.313 0 01-.323-.312v-1.1h2.6c.006 0-.012-.018.047-.018zm1.176-3.535a1.243 1.243 0 01-1.223 1.265H5.34a1.245 1.245 0 01-1.223-1.259v-6.334l18.35.082zM6.722 10.069a1.893 1.893 0 013.576.018zm15.745.071l-10.957-.048a3.059 3.059 0 00-5.993-.029l-1.4-.006v-5.84l18.35.082zm2.941 2.076a.338.338 0 01-.347.318h-1.418v-2.47h1.417a.338.338 0 01.347.318z"/></g></g></g></svg>