<svg xmlns="http://www.w3.org/2000/svg" viewBox="0 0 27.525 21.291"><g data-name="Group 217"><g data-name="Group 208"><g data-name="Group 207"><path data-name="Path 1103" d="M26.472 7.911l-.6-.635L23.767 1.6a2.47 2.47 0 00-2.3-1.6H6.428a2.461 2.461 0 00-2.3 1.6L2.053 7.2l-.865.8A3.379 3.379 0 000 10.575v8.269a2.459 2.459 0 002.458 2.447h1.553a2.459 2.459 0 002.459-2.447v-1.2h14.586v1.2a2.459 2.459 0 002.458 2.447h1.553a2.459 2.459 0 002.458-2.447v-8.487a3.411 3.411 0 00-1.053-2.446zM5.234 2a1.272 1.272 0 011.194-.823h15.045A1.28 1.28 0 0122.667 2L24.5 6.94h-1.37a4.034 4.034 0 00-7.981 0H3.4zm16.7 4.94h-5.595a2.857 2.857 0 015.593 0zM5.293 18.844a1.279 1.279 0 01-1.282 1.27H2.458a1.279 1.279 0 01-1.282-1.27V17.3a2.389 2.389 0 001.282.341h2.835zm21.056 0a1.279 1.279 0 01-1.282 1.27h-1.553a1.283 1.283 0 01-1.282-1.27v-1.2h2.835a2.389 2.389 0 001.282-.341v1.541zm-1.282-2.376H2.458a1.269 1.269 0 01-1.282-1.259v-4.634a2.208 2.208 0 01.782-1.682l.024-.024.8-.753h22.273l.565.606c.006.012.024.018.029.029a2.217 2.217 0 01.694 1.606v4.852h.006a1.273 1.273 0 01-1.282 1.259z"/></g></g><g data-name="Group 210"><g data-name="Group 209"><path data-name="Path 1104" d="M7.765 10.469H3.353a.59.59 0 00-.588.588v3.058a.59.59 0 00.588.588h4.412a.59.59 0 00.588-.588v-3.058a.59.59 0 00-.588-.588zm-.588 3.058H3.941v-1.882h3.235z"/></g></g><g data-name="Group 212"><g data-name="Group 211"><path data-name="Path 1105" d="M24.174 10.469h-4.411a.59.59 0 00-.588.588v3.058a.59.59 0 00.588.588h4.411a.59.59 0 00.588-.588v-3.058a.59.59 0 00-.588-.588zm-.588 3.058h-3.235v-1.882h3.235z"/></g></g><g data-name="Group 214"><g data-name="Group 213"><path data-name="Path 1106" d="M16.604 12.939h-5.681a.588.588 0 000 1.176h5.681a.588.588 0 100-1.176z"/></g></g><g data-name="Group 216"><g data-name="Group 215"><path data-name="Path 1107" d="M16.604 11.116h-5.681a.588.588 0 000 1.176h5.681a.588.588 0 100-1.176z"/></g></g></g></svg>