<svg xmlns="http://www.w3.org/2000/svg" width="228" height="40" viewBox="0 0 228 40"><g><g><g><g><path fill="#fff" d="M170.377 9.057c2.333 0 4.187-1.574 4.14-4.502h-4.338v1.061h2.939c-.093 1.33-1.236 2.263-2.73 2.263-1.76 0-2.95-1.294-2.95-3.056 0-1.737 1.178-3.044 2.94-3.044 1.247 0 2.133.642 2.518 1.575h1.388c-.49-1.587-1.936-2.765-3.907-2.765-2.473 0-4.246 1.831-4.246 4.234 0 2.426 1.785 4.234 4.246 4.234z"/></g><g><path fill="#fff" d="M178.716 3.774c1.073 0 1.89.77 1.89 2.087 0 1.155-.712 2.088-1.878 2.088-1.12 0-1.89-.816-1.89-2.088 0-1.224.77-2.087 1.878-2.087zm-.163 5.283a2.346 2.346 0 0 0 1.971-1.014h.07v.863h1.201V.158h-1.224v3.534h-.082c-.198-.315-.828-1.038-1.994-1.038-1.703 0-2.905 1.33-2.905 3.219 0 1.89 1.213 3.184 2.963 3.184z"/></g><g><path fill="#fff" d="M186.25 3.774c1.073 0 1.89.77 1.89 2.087 0 1.155-.711 2.088-1.878 2.088-1.12 0-1.89-.816-1.89-2.088 0-1.224.77-2.087 1.878-2.087zm-.163 5.283a2.346 2.346 0 0 0 1.971-1.014h.07v.863h1.202v-6.1h-1.225v.886h-.082c-.198-.315-.828-1.038-1.994-1.038-1.703 0-2.904 1.33-2.904 3.219 0 1.89 1.213 3.184 2.962 3.184z"/></g><g><path fill="#fff" d="M196.386 8.906v-3.92c0-1.318-.852-2.332-2.24-2.332-.91 0-1.539.467-1.784.968h-.082v-.817h-1.19v6.1h1.225V5.349c0-.886.63-1.551 1.482-1.551.77 0 1.364.572 1.364 1.423v3.686z"/></g><g><path fill="#fff" d="M195.29.193h-1.295l-.653 1.621h.898z"/></g><g><path fill="#fff" d="M200.282 8.054c-.794 0-1.248-.327-1.33-.956h-1.155c.082 1.178.898 1.96 2.45 1.96 1.527 0 2.472-.805 2.472-1.96 0-2.59-3.616-1.33-3.616-2.683 0-.455.432-.782 1.12-.782.735 0 1.131.339 1.201.852h1.12c-.093-1.166-1.05-1.83-2.274-1.83-1.4 0-2.31.757-2.31 1.783 0 2.485 3.57 1.225 3.57 2.718 0 .537-.444.898-1.248.898z"/></g><g><path fill="#fff" d="M209.46 2.806h-1.528l-2.309 2.6h-.07V.158h-1.225v8.748h1.225V7.063l.945-1.038 1.726 2.88h1.388l-2.274-3.79z"/></g><g><path fill="#fff" d="M211.385 1.849c.478 0 .816-.315.816-.781 0-.443-.338-.77-.816-.77-.467 0-.805.327-.805.77 0 .466.338.78.805.78z"/></g><g><path fill="#fff" d="M210.766 8.906v-6.1h1.225v6.1z"/></g><g><path fill="#fff" d="M168.138 19.997l1.4-3.849h.08l1.4 3.849zm.688-5.26l-3.021 8.165h1.295l.641-1.773h3.674l.642 1.773h1.33l-3.033-8.165z"/></g><g><path fill="#fff" d="M175.765 19.892c0-1.131.595-1.913 1.633-1.913h.572v-1.19h-.537c-.863 0-1.446.584-1.633 1.074h-.082v-1.061h-1.177v6.1h1.224z"/></g><g><path fill="#fff" d="M184.756 20.79h-1.248c-.21.689-.886 1.155-1.668 1.155-1.142 0-1.936-.886-1.936-2.088 0-1.178.758-2.087 1.913-2.087.805 0 1.47.466 1.68 1.166h1.26c-.28-1.4-1.505-2.286-2.952-2.286-1.854 0-3.16 1.4-3.16 3.207 0 1.797 1.283 3.196 3.172 3.196 1.435 0 2.671-.863 2.94-2.263z"/></g><g><path fill="#fff" d="M190.154 19.216v3.686h1.225v-3.92c0-1.317-.863-2.332-2.251-2.332-.91 0-1.54.466-1.796.968h-.082v-3.464h-1.213v8.748h1.225v-3.616c0-.863.677-1.493 1.505-1.493.77 0 1.387.571 1.387 1.423z"/></g><g><path fill="#fff" d="M193.14 22.902v-6.1h1.225v6.1z"/></g><g><path fill="#fff" d="M193.758 14.294c-.466 0-.805.326-.805.77 0 .466.339.781.805.781.479 0 .816-.315.816-.782 0-.443-.337-.769-.816-.769z"/></g><g><path fill="#fff" d="M199.182 17.758c1.13 0 1.89.816 1.89 2.088 0 1.224-.76 2.1-1.867 2.1-1.073 0-1.89-.782-1.89-2.1 0-1.155.7-2.088 1.867-2.088zm-3.056-.956v8.782h1.225v-3.57h.07c.198.328.828 1.039 2.006 1.039 1.69 0 2.892-1.33 2.892-3.219 0-1.89-1.201-3.184-2.962-3.184a2.293 2.293 0 0 0-1.96 1.026h-.081v-.874z"/></g><g><path fill="#fff" d="M204.617 19.297c.093-.956.863-1.62 1.796-1.62.945 0 1.691.594 1.773 1.62zm1.796-2.647c-1.738 0-3.045 1.283-3.045 3.22 0 1.83 1.237 3.183 3.068 3.183 1.505 0 2.59-.817 2.904-1.994h-1.19c-.244.595-.91.968-1.679.968-1.12 0-1.83-.723-1.878-1.785h4.806v-.454c0-1.739-1.085-3.138-2.986-3.138z"/></g><g><path fill="#fff" d="M211.836 21.315v-7.161h-1.225v7.231c0 .957.525 1.517 1.446 1.517h.502v-1.085h-.256c-.304 0-.467-.175-.467-.502z"/></g><g><path fill="#fff" d="M216.63 21.945c-1.12 0-1.89-.816-1.89-2.088 0-1.224.77-2.087 1.878-2.087 1.073 0 1.89.77 1.89 2.087 0 1.155-.712 2.088-1.879 2.088zm1.842-4.257h-.081c-.199-.315-.828-1.038-1.995-1.038-1.703 0-2.904 1.33-2.904 3.22 0 1.888 1.213 3.183 2.963 3.183a2.344 2.344 0 0 0 1.97-1.015h.071v.864h1.201v-6.1h-1.225z"/></g><g><path fill="#fff" d="M224.164 21.922c-1.12 0-1.89-.805-1.89-2.076 0-1.225.77-2.076 1.879-2.076 1.073 0 1.889.758 1.889 2.076 0 1.154-.711 2.076-1.878 2.076zm1.843-5.12v.886h-.082c-.186-.315-.828-1.038-2.006-1.038-1.668 0-2.892 1.294-2.892 3.196 0 1.9 1.236 3.184 2.95 3.184a2.337 2.337 0 0 0 1.972-1.027h.081v.875c0 1.143-.583 1.832-1.842 1.832-.864 0-1.458-.374-1.599-.992h-1.13c.139 1.108 1.096 2.018 2.729 2.018 1.947 0 3.044-1.132 3.044-2.858v-6.076z"/></g><g><path fill="#fff" d="M172.64 28.733h-1.552l-3.125 3.767h-.07v-3.767h-1.26v8.164h1.26v-2.6l1.026-1.202 2.333 3.803h1.504l-2.997-4.794z"/></g><g><path fill="#fff" d="M177.71 34.371c0 .887-.63 1.54-1.481 1.54-.77 0-1.365-.56-1.365-1.423v-3.697h-1.224v3.919c0 1.317.851 2.332 2.24 2.332.909 0 1.539-.466 1.783-.968h.082v.816h1.19v-6.1h-1.225z"/></g><g><path fill="#fff" d="M181.956 35.304v-7.161h-1.225v7.231c0 .957.525 1.516 1.446 1.516h.502v-1.084h-.257c-.303 0-.466-.175-.466-.502z"/></g><g><path fill="#fff" d="M185.78 29.064h-1.154v1.342c0 .245-.151.396-.362.396h-.804v.992h1.096v3.16c0 1.272.723 1.936 1.925 1.936h1.014v-1.038h-.828c-.641 0-.886-.35-.886-.933v-3.125h1.773V30.79h-1.773z"/></g><g><path fill="#fff" d="M192.989 34.371c0 .887-.63 1.54-1.481 1.54-.77 0-1.365-.56-1.365-1.423v-3.697h-1.225v3.919c0 1.317.852 2.332 2.24 2.332.91 0 1.54-.466 1.784-.968h.082v.816h1.19v-6.1h-1.225z"/></g><g><path fill="#fff" d="M197.27 31.852h-.082V30.79h-1.178v6.1h1.224v-3.01c0-1.131.595-1.913 1.633-1.913h.572V30.78h-.537c-.863 0-1.446.583-1.633 1.073z"/></g><g><path fill="#fff" d="M203.369 35.503h-.082l-1.691-4.712h-1.33l2.461 6.356-.221.584c-.187.49-.514.746-1.073.746h-.537v1.096h.688c1.097 0 1.656-.536 2.006-1.47l2.8-7.312h-1.342z"/></g></g><g><g><path fill="#fff" d="M20.4 15.068v7.907h7.08c-1.127 2.335-3.013 4.093-5.552 4.782-.05.015-.46.119-.617.15a8.148 8.148 0 0 1-2.337.153c-1.511-.125-2.95-.573-4.218-1.417a8.865 8.865 0 0 1-2.914-3.249 9.145 9.145 0 0 1-1.005-5.014 8.69 8.69 0 0 1 1.768-4.55c.889-1.159 2.07-2.068 3.378-2.715 1.802-.892 4.264-.855 4.53-.84.268-.588 4.25-9.311 4.31-9.453.03-.067-3.104-.97-6.946-.8C8.497.432.74 7.731.048 17.458-.688 27.807 7.104 36.79 17.451 37.526c10.347.736 19.332-7.056 20.067-17.403.125-1.761-.038-3.409-.38-5.055z"/></g><g><path fill="#fff" d="M147.117 21.253a8.135 8.135 0 0 0-8.134 8.136 8.135 8.135 0 1 0 16.269 0 8.136 8.136 0 0 0-8.135-8.136z"/></g><g><path fill="#fff" d="M70.339.628H58.394L41.625 36.94H53.57l10.884-23.562 10.885 23.562h11.944L70.514.628z"/></g><g><path fill="#fff" d="M119.523.628l-12.658 18.157 12.659 18.154h11.944L118.81 18.785 131.468.628z"/></g><g><path fill="#fff" d="M106.865.628H95.839V36.94h11.026V18.645z"/></g></g></g></g></svg>