<?xml version="1.0" encoding="utf-8"?>
<!-- Generator: Adobe Illustrator 24.0.1, SVG Export Plug-In . SVG Version: 6.00 Build 0)  -->
<svg version="1.1" id="Warstwa_1" xmlns="http://www.w3.org/2000/svg" xmlns:xlink="http://www.w3.org/1999/xlink" x="0px" y="0px"
	 viewBox="0 0 595.28 595.28" style="enable-background:new 0 0 595.28 595.28;" xml:space="preserve">
<g>
	<path d="M353.77,222.57c20.48,0,37.09-16.6,37.09-37.09s-16.61-37.09-37.09-37.09c-20.48,0-37.09,16.61-37.09,37.09
		S333.29,222.57,353.77,222.57z"/>
	<path d="M261.04,259.66V148.39H149.78c0,60.06,45.86,108.94,105.23,111.3c-49.13,2.34-86.69,42.99-86.69,92.7
		c0,51.21,41.51,92.72,92.73,92.72v-179.1c3.27,48.25,43.48,86.38,92.62,86.38c51.27,0,92.83-41.52,92.83-92.73H261.04z"/>
</g>
</svg>
