<svg data-name="Group 73" xmlns="http://www.w3.org/2000/svg" width="21.777" height="21.777"><path data-name="Path 200" d="M15.882 0H5.895A5.9 5.9 0 000 5.895v9.988a5.9 5.9 0 005.895 5.895h9.988a5.9 5.9 0 005.895-5.895V5.895A5.9 5.9 0 0015.882 0zm-4.993 16.843a5.955 5.955 0 115.955-5.955 5.961 5.961 0 01-5.955 5.955zm6.1-10.5a1.76 1.76 0 111.76-1.76 1.761 1.761 0 01-1.763 1.755z"/><path data-name="Path 201" d="M10.891 6.211a4.678 4.678 0 104.678 4.678 4.683 4.683 0 00-4.678-4.678z"/><path data-name="Path 202" d="M16.986 4.095a.483.483 0 10.483.483.483.483 0 00-.483-.483z"/></svg>