<svg xmlns="http://www.w3.org/2000/svg" width="170" height="65" viewBox="0 0 170 65"><g><g><g><g><g><g><path d="M92.774 4.79v1.38h3.054l-.007.067c-.143 1.265-1.375 2.182-2.93 2.182-1.886 0-3.203-1.365-3.203-3.32 0-1.932 1.312-3.28 3.19-3.28 1.274 0 2.286.61 2.717 1.636h1.882C96.905 1.48 95.11.207 92.877.207c-2.874 0-4.96 2.057-4.96 4.891 0 2.835 2.092 4.891 4.975 4.891 1.419 0 2.626-.465 3.49-1.345.91-.926 1.376-2.258 1.35-3.853z"/></g><g><path d="M103.646 2.282h.196l1.456 4.146h-3.108zm2.13 5.648l.673 1.882h1.806L104.868.384h-2.206l-3.374 9.428h1.75l.659-1.882z"/></g><g><path d="M116.031 9.812h1.986l-3.344-5.648.028-.033L117.91.384h-2.103l-3.28 4.025h-.173V.384h-1.703v9.428h1.703v-2.95l.015-.016 1.14-1.32z"/></g></g><g><path d="M88.24 31.805h2.625c.025 1.79 1.5 3.206 3.925 3.206 2.075 0 3.475-.945 3.475-2.51 0-4.697-9.475-1.218-9.475-8.226 0-2.634 2.15-4.846 5.85-4.846 2.975 0 5.95 1.59 6 5.219h-2.725c0-1.715-1.175-2.808-3.3-2.808-2.15 0-3.15 1.143-3.15 2.385 0 4.2 9.576 1.044 9.576 8.077 0 2.908-2.325 5.169-6.351 5.169-3.75 0-6.45-2.311-6.45-5.666z"/></g><g><path d="M105.465 33.023v-6.735h-2.35v-2.112h1.725c.45 0 .775-.323.775-.845v-2.858h2.475v3.678h3.8v2.137h-3.8v6.66c0 1.243.525 1.988 1.9 1.988h1.775v2.212h-2.175c-2.575 0-4.125-1.417-4.125-4.125z"/></g><g><path d="M124.84 30.662c0 2.46-1.524 4.448-4.025 4.448-2.4 0-4.05-1.74-4.05-4.448 0-2.61 1.65-4.448 4.026-4.448 2.3 0 4.05 1.64 4.05 4.448zm-10.75.025c0 4.026 2.6 6.784 6.35 6.784 2.6 0 3.876-1.665 4.226-2.162h.15v1.84h2.575V24.15h-2.626v1.889h-.174c-.425-.671-1.775-2.212-4.276-2.212-3.65 0-6.225 2.833-6.225 6.859z"/></g><g><path d="M130.24 30.662c0-3.852 2.8-6.834 6.776-6.834 3.1 0 5.725 1.889 6.325 4.87h-2.7c-.45-1.49-1.875-2.484-3.6-2.484-2.475 0-4.1 1.938-4.1 4.448 0 2.56 1.7 4.448 4.15 4.448 1.675 0 3.125-.994 3.575-2.46h2.675c-.575 2.982-3.225 4.82-6.3 4.82-4.05 0-6.8-2.981-6.8-6.808z"/></g><g><path d="M147.866 22.113c1.025 0 1.75-.67 1.75-1.665 0-.944-.725-1.64-1.75-1.64-1 0-1.725.696-1.725 1.64 0 .994.725 1.665 1.725 1.665zm-4.475 20.75h1.175c2.725 0 4.625-1.69 4.625-4.522v-14.19h-2.625v14.165c0 1.317-.825 2.212-2.25 2.212h-.925z"/></g><g><path d="M163.14 30.662c0 2.46-1.524 4.448-4.024 4.448-2.4 0-4.05-1.74-4.05-4.448 0-2.61 1.65-4.448 4.025-4.448 2.3 0 4.05 1.64 4.05 4.448zm-10.75.025c0 4.026 2.6 6.784 6.351 6.784 2.6 0 3.875-1.665 4.225-2.162h.15v1.84h2.575V24.15h-2.625v1.889h-.175c-.425-.671-1.775-2.212-4.275-2.212-3.65 0-6.225 2.833-6.225 6.859z"/></g><g><path d="M97.565 62.211c-3.675 0-6.35-2.758-6.35-6.486 0-3.678 2.675-6.486 6.35-6.486s6.35 2.808 6.35 6.486c0 3.728-2.675 6.486-6.35 6.486zm-.025 2.535c5.275 0 9.15-3.901 9.15-9.02 0-5.07-3.85-9.022-9.125-9.022-5.25 0-9.15 3.902-9.15 9.021 0 5.17 3.875 9.021 9.125 9.021z"/></g><g><path d="M109.915 51.426h2.526v2.262h.174c.4-1.044 1.65-2.287 3.5-2.287h1.15v2.535h-1.224c-2.225 0-3.5 1.665-3.5 4.076v6.411h-2.626z"/></g><g><path d="M120.09 59.776v-8.35h2.626v7.878c0 1.84 1.275 3.032 2.925 3.032 1.825 0 3.175-1.392 3.175-3.28v-7.63h2.625v12.997h-2.55v-1.74h-.175c-.525 1.07-1.875 2.063-3.826 2.063-2.975 0-4.8-2.162-4.8-4.97z"/></g><g><path d="M135.29 51.426h2.55v1.74h.176c.525-1.069 1.875-2.063 3.825-2.063 2.975 0 4.8 2.162 4.8 4.97v8.35h-2.625V56.57c0-1.814-1.275-3.031-2.925-3.031-1.825 0-3.175 1.416-3.175 3.305v7.58h-2.626z"/></g><g><path d="M150.416 51.426h2.625v12.997h-2.625zm-.4-3.703c0-.944.725-1.64 1.725-1.64 1.025 0 1.75.696 1.75 1.64 0 .994-.725 1.666-1.75 1.666-1 0-1.725-.672-1.725-1.666z"/></g><g><path d="M162.784 62.385c-2.4 0-4.05-1.74-4.05-4.448 0-2.61 1.65-4.448 4.025-4.448 2.3 0 4.05 1.64 4.05 4.448 0 2.46-1.525 4.448-4.025 4.448zm-.375 2.361c2.6 0 3.875-1.665 4.225-2.162h.15v1.84h2.575V51.425h-2.625v1.889h-.175c-.425-.671-1.775-2.212-4.275-2.212-3.65 0-6.225 2.833-6.225 6.859s2.6 6.784 6.35 6.784z"/></g></g><g><g><path d="M0 65V48.77h16.328V65z"/></g><g><path d="M48.984 65V48.77h16.329V65z"/></g><g><path d="M32.656 32.849c-4.68 0-8.475-3.772-8.475-8.425 0-4.653 3.795-8.424 8.475-8.424 4.681 0 8.476 3.771 8.476 8.424s-3.795 8.425-8.476 8.425zm24.492-8.425C57.148 10.98 46.183.08 32.656.08c-13.526 0-24.492 10.9-24.492 24.345 0 13.446 10.966 24.346 24.492 24.346 13.527 0 24.492-10.9 24.492-24.346z"/></g></g></g></g></g></svg>