<svg xmlns="http://www.w3.org/2000/svg" viewBox="0 0 22 19"><path d="M15.895 8.821c-.786 0-1.426-.609-1.426-1.357 0-.749.64-1.357 1.426-1.357.787 0 1.427.608 1.427 1.357 0 .748-.64 1.357-1.427 1.357zm-4.992 0c-.786 0-1.426-.609-1.426-1.357 0-.749.64-1.357 1.426-1.357.787 0 1.427.608 1.427 1.357 0 .748-.64 1.357-1.427 1.357zm-4.992 0c-.786 0-1.426-.609-1.426-1.357 0-.749.64-1.357 1.426-1.357.787 0 1.427.608 1.427 1.357 0 .748-.64 1.357-1.427 1.357zM19.461 0H2.346C1.186 0 .206.932.206 2.035v11.197c0 1.103.98 2.036 2.14 2.036h10.183l3.46 3.621a.364.364 0 00.392.088.34.34 0 00.228-.316v-3.393h2.852c1.16 0 2.14-.933 2.14-2.036V2.035C21.6.932 20.62 0 19.46 0z"/></svg>