<svg xmlns="http://www.w3.org/2000/svg" width="105" height="26" viewBox="0 0 105 26"><path fill="#fff" d="M13.747 10.154v5.328h4.77c-.759 1.573-2.03 2.758-3.74 3.223-.034.01-.31.08-.417.1a5.49 5.49 0 01-1.574.103c-1.019-.084-1.988-.386-2.842-.955a5.973 5.973 0 01-1.964-2.189 6.162 6.162 0 01-.677-3.379A5.856 5.856 0 018.494 9.32c.599-.78 1.395-1.393 2.276-1.83 1.215-.6 2.874-.575 3.052-.565.181-.397 2.864-6.274 2.905-6.37.02-.045-2.092-.654-4.68-.54C5.726.292.498 5.21.032 11.764c-.495 6.974 4.755 13.028 11.728 13.523 6.972.496 13.026-4.754 13.522-11.727.084-1.187-.026-2.297-.256-3.406zM99.135 14.322a5.482 5.482 0 00-5.481 5.482 5.482 5.482 0 105.481-5.482zM47.398.423h-8.05L28.05 24.893h8.05l7.334-15.877 7.334 15.876h8.049L47.516.423zM80.541.423l-8.53 12.235 8.53 12.234h8.05l-8.53-12.234L88.59.423zM72.011.423h-7.43v24.47h7.43v-12.33z"/></svg>