<svg xmlns="http://www.w3.org/2000/svg" width="1833.839" height="1616.297" viewBox="0 0 1833.839 1616.297">
  <g id="Group_263" data-name="Group 263" transform="translate(-1020.902 -317.286)">
    <g id="Group_229" data-name="Group 229" transform="translate(1211.721 511.092)">
      <rect id="Rectangle_79" data-name="Rectangle 79" width="50" height="49" transform="translate(0.357 1.208)" fill="#e7ebef"/>
      <path id="Path_269" data-name="Path 269" d="M116.088,349.227,64.5,297.638v51.589Z" transform="translate(-64.499 -246.048)" fill="#e7ebef"/>
      <path id="Path_270" data-name="Path 270" d="M128.49,285.236l51.59,51.589V233.646Z" transform="translate(-76.901 -233.646)" fill="#e7ebef"/>
    </g>
    <g id="Group_249" data-name="Group 249" transform="translate(1211.721 888.24)">
      <rect id="Rectangle_79-2" data-name="Rectangle 79" width="50" height="49" transform="translate(0.357 1.061)" fill="#e7ebef"/>
      <path id="Path_269-2" data-name="Path 269" d="M116.088,349.227,64.5,297.638v51.589Z" transform="translate(-64.499 -246.048)" fill="#e7ebef"/>
      <path id="Path_270-2" data-name="Path 270" d="M128.49,285.236l51.59,51.589V233.646Z" transform="translate(-76.901 -233.646)" fill="#e7ebef"/>
    </g>
    <g id="Group_230" data-name="Group 230" transform="translate(2175.501 329.563)">
      <g id="Group_94" data-name="Group 94" transform="translate(0)">
        <path id="Path_271" data-name="Path 271" d="M131.413,221.156v37.517A33.351,33.351,0,0,0,98.8,232.27H98.72v16.67a16.67,16.67,0,1,1,0,33.34v16.669H98.8a33.352,33.352,0,0,0,32.616-26.4v37.517a44.758,44.758,0,0,0,0-88.907Z" transform="translate(-82.05 -221.156)" fill="#e7ebef"/>
        <rect id="Rectangle_80" data-name="Rectangle 80" width="16.67" height="33.34" transform="translate(0 27.784)" fill="#e7ebef"/>
      </g>
    </g>
    <g id="Group_254" data-name="Group 254" transform="translate(2000.397 899.775)">
      <g id="Group_94-2" data-name="Group 94" transform="translate(0)">
        <path id="Path_271-2" data-name="Path 271" d="M131.413,221.156v37.517A33.351,33.351,0,0,0,98.8,232.27H98.72v16.67a16.67,16.67,0,1,1,0,33.34v16.669H98.8a33.352,33.352,0,0,0,32.616-26.4v37.517a44.758,44.758,0,0,0,0-88.907Z" transform="translate(-82.05 -221.156)" fill="#e7ebef"/>
        <rect id="Rectangle_80-2" data-name="Rectangle 80" width="16.67" height="33.34" transform="translate(0 27.784)" fill="#e7ebef"/>
      </g>
    </g>
    <g id="Group_258" data-name="Group 258" transform="translate(2175.501 1088.349)">
      <g id="Group_94-3" data-name="Group 94" transform="translate(0)">
        <path id="Path_271-3" data-name="Path 271" d="M131.413,221.156v37.517A33.351,33.351,0,0,0,98.8,232.27H98.72v16.67a16.67,16.67,0,1,1,0,33.34v16.669H98.8a33.352,33.352,0,0,0,32.616-26.4v37.517a44.758,44.758,0,0,0,0-88.907Z" transform="translate(-82.05 -221.156)" fill="#e7ebef"/>
        <rect id="Rectangle_80-3" data-name="Rectangle 80" width="16.67" height="33.34" transform="translate(0 27.784)" fill="#e7ebef"/>
      </g>
    </g>
    <g id="Group_261" data-name="Group 261" transform="translate(1021.608 1081.614)">
      <g id="Group_94-4" data-name="Group 94" transform="translate(0)">
        <path id="Path_271-4" data-name="Path 271" d="M131.413,221.156v37.517A33.351,33.351,0,0,0,98.8,232.27H98.72v16.67a16.67,16.67,0,1,1,0,33.34v16.669H98.8a33.352,33.352,0,0,0,32.616-26.4v37.517a44.758,44.758,0,0,0,0-88.907Z" transform="translate(-82.05 -221.156)" fill="#e7ebef"/>
        <rect id="Rectangle_80-4" data-name="Rectangle 80" width="16.67" height="33.34" transform="translate(0 27.784)" fill="#e7ebef"/>
      </g>
    </g>
    <g id="Group_244" data-name="Group 244" transform="translate(1607.534 704.466)">
      <g id="Group_94-5" data-name="Group 94" transform="translate(0)">
        <path id="Path_271-5" data-name="Path 271" d="M131.413,221.156v37.517A33.351,33.351,0,0,0,98.8,232.27H98.72v16.67a16.67,16.67,0,1,1,0,33.34v16.669H98.8a33.352,33.352,0,0,0,32.616-26.4v37.517a44.758,44.758,0,0,0,0-88.907Z" transform="translate(-82.05 -221.156)" fill="#e7ebef"/>
        <rect id="Rectangle_80-5" data-name="Rectangle 80" width="16.67" height="33.34" transform="translate(0 27.784)" fill="#e7ebef"/>
      </g>
    </g>
    <g id="Group_231" data-name="Group 231" transform="translate(1029.882 331.376)">
      <path id="Path_252" data-name="Path 252" d="M151.22,253.163c-.623,0-1.238.028-1.847.081A31.9,31.9,0,1,0,130.02,272.6c-.053.609-.081,1.225-.081,1.847a21.281,21.281,0,1,0,21.281-21.281Z" transform="translate(-87.377 -210.6)" fill="#e7ebef"/>
      <path id="Path_253" data-name="Path 253" d="M87.377,351.8l10.641,10.635L108.658,351.8,98.017,341.157Z" transform="translate(-87.377 -277.313)" fill="#e7ebef"/>
    </g>
    <g id="Group_240" data-name="Group 240" transform="translate(2181.531 522.195)">
      <path id="Path_252-2" data-name="Path 252" d="M151.22,253.163c-.623,0-1.238.028-1.847.081A31.9,31.9,0,1,0,130.02,272.6c-.053.609-.081,1.225-.081,1.847a21.281,21.281,0,1,0,21.281-21.281Z" transform="translate(-87.377 -210.6)" fill="#e7ebef"/>
      <path id="Path_253-2" data-name="Path 253" d="M87.377,351.8l10.641,10.635L108.658,351.8,98.017,341.157Z" transform="translate(-87.377 -277.313)" fill="#e7ebef"/>
    </g>
    <g id="Group_248" data-name="Group 248" transform="translate(1029.882 897.098)">
      <path id="Path_252-3" data-name="Path 252" d="M151.22,253.163c-.623,0-1.238.028-1.847.081A31.9,31.9,0,1,0,130.02,272.6c-.053.609-.081,1.225-.081,1.847a21.281,21.281,0,1,0,21.281-21.281Z" transform="translate(-87.377 -210.6)" fill="#e7ebef"/>
      <path id="Path_253-3" data-name="Path 253" d="M87.377,351.8l10.641,10.635L108.658,351.8,98.017,341.157Z" transform="translate(-87.377 -277.313)" fill="#e7ebef"/>
    </g>
    <g id="Group_233" data-name="Group 233" transform="translate(1023.147 515.276)">
      <rect id="Rectangle_25" data-name="Rectangle 25" width="24.119" height="23.974" transform="translate(0 71.922)" fill="#e7ebef"/>
      <rect id="Rectangle_26" data-name="Rectangle 26" width="24.119" height="23.974" transform="translate(72.356 71.922)" fill="#e7ebef"/>
      <path id="Path_51" data-name="Path 51" d="M104.237,101.09a36.178,36.178,0,1,0-36.178,35.961A36.07,36.07,0,0,0,104.237,101.09ZM68.058,113.535a12.445,12.445,0,1,1,12.52-12.444A12.482,12.482,0,0,1,68.058,113.535Z" transform="translate(-19.821 -65.129)" fill="#e7ebef"/>
    </g>
    <g id="Group_251" data-name="Group 251" transform="translate(1604.584 885.689)">
      <rect id="Rectangle_25-2" data-name="Rectangle 25" width="24.119" height="23.974" transform="translate(0 71.922)" fill="#e7ebef"/>
      <rect id="Rectangle_26-2" data-name="Rectangle 26" width="24.119" height="23.974" transform="translate(72.356 71.922)" fill="#e7ebef"/>
      <path id="Path_51-2" data-name="Path 51" d="M104.237,101.09a36.178,36.178,0,1,0-36.178,35.961A36.07,36.07,0,0,0,104.237,101.09ZM68.058,113.535a12.445,12.445,0,1,1,12.52-12.444A12.482,12.482,0,0,1,68.058,113.535Z" transform="translate(-19.821 -65.129)" fill="#e7ebef"/>
    </g>
    <g id="Group_234" data-name="Group 234" transform="translate(1991.417 324.799)">
      <g id="Group_101" data-name="Group 101" transform="translate(0 0)">
        <path id="Path_296" data-name="Path 296" d="M164.015,253.035a48.322,48.322,0,0,0,48.322,48.322V204.713A48.322,48.322,0,0,0,164.015,253.035Zm24.162,12.08a12.08,12.08,0,1,1,12.08-12.08A12.081,12.081,0,0,1,188.177,265.116Z" transform="translate(-125.321 -204.713)" fill="#e7ebef"/>
        <ellipse id="Ellipse_11" data-name="Ellipse 11" cx="12.081" cy="12.081" rx="12.081" ry="12.081" transform="matrix(0.973, -0.23, 0.23, 0.973, 0, 39.34)" fill="#e7ebef"/>
      </g>
    </g>
    <g id="Group_245" data-name="Group 245" transform="translate(1805.088 704.191)">
      <g id="Group_101-2" data-name="Group 101" transform="translate(0 0)">
        <path id="Path_296-2" data-name="Path 296" d="M164.015,253.035a48.322,48.322,0,0,0,48.322,48.322V204.713A48.322,48.322,0,0,0,164.015,253.035Zm24.162,12.08a12.08,12.08,0,1,1,12.08-12.08A12.081,12.081,0,0,1,188.177,265.116Z" transform="translate(-125.321 -204.713)" fill="#e7ebef"/>
        <ellipse id="Ellipse_11-2" data-name="Ellipse 11" cx="12.081" cy="12.081" rx="12.081" ry="12.081" transform="matrix(0.973, -0.23, 0.23, 0.973, 0, 39.34)" fill="#e7ebef"/>
      </g>
    </g>
    <g id="Group_259" data-name="Group 259" transform="translate(1995.907 1079.094)">
      <g id="Group_101-3" data-name="Group 101" transform="translate(0 0)">
        <path id="Path_296-3" data-name="Path 296" d="M164.015,253.035a48.322,48.322,0,0,0,48.322,48.322V204.713A48.322,48.322,0,0,0,164.015,253.035Zm24.162,12.08a12.08,12.08,0,1,1,12.08-12.08A12.081,12.081,0,0,1,188.177,265.116Z" transform="translate(-125.321 -204.713)" fill="#e7ebef"/>
        <ellipse id="Ellipse_11-3" data-name="Ellipse 11" cx="12.081" cy="12.081" rx="12.081" ry="12.081" transform="matrix(0.973, -0.23, 0.23, 0.973, 0, 39.34)" fill="#e7ebef"/>
      </g>
    </g>
    <g id="Group_235" data-name="Group 235" transform="translate(1605.834 516.251)">
      <rect id="Rectangle_81" data-name="Rectangle 81" width="29.663" height="59.325" transform="translate(0 0)" fill="#e7ebef"/>
      <rect id="Rectangle_82" data-name="Rectangle 82" width="29.663" height="59.325" transform="translate(65.258 35.595)" fill="#e7ebef"/>
      <path id="Path_305" data-name="Path 305" d="M138.745,354.443h35.6l-35.6-35.6Z" transform="translate(-109.082 -259.523)" fill="#e7ebef"/>
      <path id="Path_306" data-name="Path 306" d="M174.341,212.8h-35.6l35.6,35.6Z" transform="translate(-109.082 -212.798)" fill="#e7ebef"/>
    </g>
    <g id="Group_252" data-name="Group 252" transform="translate(1798.898 900.134)">
      <rect id="Rectangle_81-2" data-name="Rectangle 81" width="29.663" height="59.325" transform="translate(0 0)" fill="#e7ebef"/>
      <rect id="Rectangle_82-2" data-name="Rectangle 82" width="29.663" height="59.325" transform="translate(65.258 35.595)" fill="#e7ebef"/>
      <path id="Path_305-2" data-name="Path 305" d="M138.745,354.443h35.6l-35.6-35.6Z" transform="translate(-109.082 -259.523)" fill="#e7ebef"/>
      <path id="Path_306-2" data-name="Path 306" d="M174.341,212.8h-35.6l35.6,35.6Z" transform="translate(-109.082 -212.798)" fill="#e7ebef"/>
    </g>
    <g id="Group_236" data-name="Group 236" transform="translate(1211.721 322.909)">
      <rect id="Rectangle_83" data-name="Rectangle 83" width="18.24" height="18.24" transform="translate(38.692 12.897) rotate(-45)" fill="#e7ebef"/>
      <path id="Path_322" data-name="Path 322" d="M139.85,297.638a51.589,51.589,0,0,0-51.589,51.589H191.439A51.589,51.589,0,0,0,139.85,297.638Z" transform="translate(-88.261 -246.049)" fill="#e7ebef"/>
    </g>
    <g id="Group_260" data-name="Group 260" transform="translate(1209.477 1077.205)">
      <rect id="Rectangle_83-2" data-name="Rectangle 83" width="18.24" height="18.24" transform="translate(38.692 12.897) rotate(-45)" fill="#e7ebef"/>
      <path id="Path_322-2" data-name="Path 322" d="M139.85,297.638a51.589,51.589,0,0,0-51.589,51.589H191.439A51.589,51.589,0,0,0,139.85,297.638Z" transform="translate(-88.261 -246.049)" fill="#e7ebef"/>
    </g>
    <g id="Group_247" data-name="Group 247" transform="translate(2168.061 700.057)">
      <rect id="Rectangle_83-3" data-name="Rectangle 83" width="18.24" height="18.24" transform="translate(38.692 12.897) rotate(-45)" fill="#e7ebef"/>
      <path id="Path_322-3" data-name="Path 322" d="M139.85,297.638a51.589,51.589,0,0,0-51.589,51.589H191.439A51.589,51.589,0,0,0,139.85,297.638Z" transform="translate(-88.261 -246.049)" fill="#e7ebef"/>
    </g>
    <g id="Group_241" data-name="Group 241" transform="translate(1020.902 695.567)">
      <rect id="Rectangle_83-4" data-name="Rectangle 83" width="18.24" height="18.24" transform="translate(38.692 12.897) rotate(-45)" fill="#e7ebef"/>
      <path id="Path_322-4" data-name="Path 322" d="M139.85,297.638a51.589,51.589,0,0,0-51.589,51.589H191.439A51.589,51.589,0,0,0,139.85,297.638Z" transform="translate(-88.261 -246.049)" fill="#e7ebef"/>
    </g>
    <g id="Group_237" data-name="Group 237" transform="translate(1597.141 317.286)">
      <ellipse id="Ellipse_12" data-name="Ellipse 12" cx="14.187" cy="14.187" rx="14.187" ry="14.187" transform="translate(85.125 14.179)" fill="#e7ebef"/>
      <ellipse id="Ellipse_13" data-name="Ellipse 13" cx="7.094" cy="7.09" rx="7.094" ry="7.09" transform="translate(0 42.554)" fill="#e7ebef"/>
      <ellipse id="Ellipse_14" data-name="Ellipse 14" cx="7.086" cy="7.086" rx="7.086" ry="7.086" transform="translate(42.571)" fill="#e7ebef"/>
      <path id="Path_350" data-name="Path 350" d="M124.017,329.3a56.749,56.749,0,0,0,56.749-56.749H124.017Z" transform="translate(-67.267 -215.807)" fill="#e7ebef"/>
      <path id="Path_351" data-name="Path 351" d="M121.814,270.345V234.876H86.345A35.469,35.469,0,0,0,121.814,270.345Z" transform="translate(-65.064 -213.603)" fill="#e7ebef"/>
      <path id="Path_352" data-name="Path 352" d="M63.742,330.178A42.562,42.562,0,0,0,106.3,287.616H63.742Z" transform="translate(-63.742 -216.688)" fill="#e7ebef"/>
    </g>
    <g id="Group_256" data-name="Group 256" transform="translate(1597.141 1067.092)">
      <ellipse id="Ellipse_12-2" data-name="Ellipse 12" cx="14.187" cy="14.187" rx="14.187" ry="14.187" transform="translate(85.125 14.179)" fill="#e7ebef"/>
      <ellipse id="Ellipse_13-2" data-name="Ellipse 13" cx="7.094" cy="7.09" rx="7.094" ry="7.09" transform="translate(0 42.554)" fill="#e7ebef"/>
      <ellipse id="Ellipse_14-2" data-name="Ellipse 14" cx="7.086" cy="7.086" rx="7.086" ry="7.086" transform="translate(42.571)" fill="#e7ebef"/>
      <path id="Path_350-2" data-name="Path 350" d="M124.017,329.3a56.749,56.749,0,0,0,56.749-56.749H124.017Z" transform="translate(-67.267 -215.807)" fill="#e7ebef"/>
      <path id="Path_351-2" data-name="Path 351" d="M121.814,270.345V234.876H86.345A35.469,35.469,0,0,0,121.814,270.345Z" transform="translate(-65.064 -213.603)" fill="#e7ebef"/>
      <path id="Path_352-2" data-name="Path 352" d="M63.742,330.178A42.562,42.562,0,0,0,106.3,287.616H63.742Z" transform="translate(-63.742 -216.688)" fill="#e7ebef"/>
    </g>
    <g id="Group_246" data-name="Group 246" transform="translate(1987.758 696.679)">
      <ellipse id="Ellipse_12-3" data-name="Ellipse 12" cx="14.187" cy="14.187" rx="14.187" ry="14.187" transform="translate(85.125 14.179)" fill="#e7ebef"/>
      <ellipse id="Ellipse_13-3" data-name="Ellipse 13" cx="7.094" cy="7.09" rx="7.094" ry="7.09" transform="translate(0 42.554)" fill="#e7ebef"/>
      <ellipse id="Ellipse_14-3" data-name="Ellipse 14" cx="7.086" cy="7.086" rx="7.086" ry="7.086" transform="translate(42.571)" fill="#e7ebef"/>
      <path id="Path_350-3" data-name="Path 350" d="M124.017,329.3a56.749,56.749,0,0,0,56.749-56.749H124.017Z" transform="translate(-67.267 -215.807)" fill="#e7ebef"/>
      <path id="Path_351-3" data-name="Path 351" d="M121.814,270.345V234.876H86.345A35.469,35.469,0,0,0,121.814,270.345Z" transform="translate(-65.064 -213.603)" fill="#e7ebef"/>
      <path id="Path_352-3" data-name="Path 352" d="M63.742,330.178A42.562,42.562,0,0,0,106.3,287.616H63.742Z" transform="translate(-63.742 -216.688)" fill="#e7ebef"/>
    </g>
    <g id="Group_228" data-name="Group 228" transform="translate(1807.333 331.16)">
      <path id="Path_212" data-name="Path 212" d="M130.564,250.51V211.686L87.056,255.194V298.7h43.508V255.194h43.508V211.686A43.673,43.673,0,0,0,130.564,250.51Z" transform="translate(-87.056 -211.686)" fill="#e7ebef"/>
      <path id="Path_213" data-name="Path 213" d="M216.516,341.146V297.638l-43.508,43.508Z" transform="translate(-129.5 -254.13)" fill="#e7ebef"/>
    </g>
    <g id="Group_257" data-name="Group 257" transform="translate(1809.578 1078.722)">
      <path id="Path_212-2" data-name="Path 212" d="M130.564,250.51V211.686L87.056,255.194V298.7h43.508V255.194h43.508V211.686A43.673,43.673,0,0,0,130.564,250.51Z" transform="translate(-87.056 -211.686)" fill="#e7ebef"/>
      <path id="Path_213-2" data-name="Path 213" d="M216.516,341.146V297.638l-43.508,43.508Z" transform="translate(-129.5 -254.13)" fill="#e7ebef"/>
    </g>
    <g id="Group_243" data-name="Group 243" transform="translate(1412.226 703.818)">
      <path id="Path_212-3" data-name="Path 212" d="M130.564,250.51V211.686L87.056,255.194V298.7h43.508V255.194h43.508V211.686A43.673,43.673,0,0,0,130.564,250.51Z" transform="translate(-87.056 -211.686)" fill="#e7ebef"/>
      <path id="Path_213-3" data-name="Path 213" d="M216.516,341.146V297.638l-43.508,43.508Z" transform="translate(-129.5 -254.13)" fill="#e7ebef"/>
    </g>
    <g id="Group_232" data-name="Group 232" transform="translate(1412.226 331.145)">
      <path id="Path_221" data-name="Path 221" d="M192.011,297.64a21.753,21.753,0,0,0-21.753,21.751h-43.51a21.875,21.875,0,0,0,43.623,2.235,21.754,21.754,0,1,0,21.64-23.986Z" transform="translate(-126.748 -254.131)" fill="#e7ebef"/>
      <path id="Path_222" data-name="Path 222" d="M148.5,270.883a21.753,21.753,0,0,0,21.754-21.752h43.508a21.875,21.875,0,0,0-43.622-2.24,21.754,21.754,0,1,0-21.64,23.992Z" transform="translate(-126.748 -227.377)" fill="#e7ebef"/>
    </g>
    <g id="Group_242" data-name="Group 242" transform="translate(1219.162 708.293)">
      <path id="Path_221-2" data-name="Path 221" d="M192.011,297.64a21.753,21.753,0,0,0-21.753,21.751h-43.51a21.875,21.875,0,0,0,43.623,2.235,21.754,21.754,0,1,0,21.64-23.986Z" transform="translate(-126.748 -254.131)" fill="#e7ebef"/>
      <path id="Path_222-2" data-name="Path 222" d="M148.5,270.883a21.753,21.753,0,0,0,21.754-21.752h43.508a21.875,21.875,0,0,0-43.622-2.24,21.754,21.754,0,1,0-21.64,23.992Z" transform="translate(-126.748 -227.377)" fill="#e7ebef"/>
    </g>
    <g id="Group_239" data-name="Group 239" transform="translate(2000.397 519.719)">
      <path id="Path_221-3" data-name="Path 221" d="M192.011,297.64a21.753,21.753,0,0,0-21.753,21.751h-43.51a21.875,21.875,0,0,0,43.623,2.235,21.754,21.754,0,1,0,21.64-23.986Z" transform="translate(-126.748 -254.131)" fill="#e7ebef"/>
      <path id="Path_222-3" data-name="Path 222" d="M148.5,270.883a21.753,21.753,0,0,0,21.754-21.752h43.508a21.875,21.875,0,0,0-43.622-2.24,21.754,21.754,0,1,0-21.64,23.992Z" transform="translate(-126.748 -227.377)" fill="#e7ebef"/>
    </g>
    <g id="Group_255" data-name="Group 255" transform="translate(1412.226 1078.706)">
      <path id="Path_221-4" data-name="Path 221" d="M192.011,297.64a21.753,21.753,0,0,0-21.753,21.751h-43.51a21.875,21.875,0,0,0,43.623,2.235,21.754,21.754,0,1,0,21.64-23.986Z" transform="translate(-126.748 -254.131)" fill="#e7ebef"/>
      <path id="Path_222-4" data-name="Path 222" d="M148.5,270.883a21.753,21.753,0,0,0,21.754-21.752h43.508a21.875,21.875,0,0,0-43.622-2.24,21.754,21.754,0,1,0-21.64,23.992Z" transform="translate(-126.748 -227.377)" fill="#e7ebef"/>
    </g>
    <g id="Group_238" data-name="Group 238" transform="translate(1407.71 505.437)">
      <ellipse id="Ellipse_10" data-name="Ellipse 10" cx="14.097" cy="14.097" rx="14.097" ry="14.097" transform="translate(59.115 10.789) rotate(-22.5)" fill="#e7ebef"/>
      <path id="Path_243" data-name="Path 243" d="M111.734,271.324V229.033H69.443c0,22.828,17.431,41.406,40,42.3-18.673.888-32.949,16.339-32.949,35.232a35.242,35.242,0,0,0,35.242,35.242V273.736a35.286,35.286,0,0,0,70.486-2.411Z" transform="translate(-69.443 -224.711)" fill="#e7ebef"/>
    </g>
    <g id="Group_250" data-name="Group 250" transform="translate(1412.199 889.32)">
      <ellipse id="Ellipse_10-2" data-name="Ellipse 10" cx="14.097" cy="14.097" rx="14.097" ry="14.097" transform="translate(59.115 10.789) rotate(-22.5)" fill="#e7ebef"/>
      <path id="Path_243-2" data-name="Path 243" d="M111.734,271.324V229.033H69.443c0,22.828,17.431,41.406,40,42.3-18.673.888-32.949,16.339-32.949,35.232a35.242,35.242,0,0,0,35.242,35.242V273.736a35.286,35.286,0,0,0,70.486-2.411Z" transform="translate(-69.443 -224.711)" fill="#e7ebef"/>
    </g>
    <g id="Group_112" data-name="Group 112" transform="translate(1793.473 507.465)">
      <path id="Path_252-4" data-name="Path 252" d="M172.534,267.372c-.83,0-1.652.038-2.464.108a42.547,42.547,0,1,0-25.814,25.814c-.07.812-.108,1.634-.108,2.464a28.386,28.386,0,1,0,28.386-28.386Z" transform="translate(-87.377 -210.6)" fill="#e7ebef"/>
      <path id="Path_253-4" data-name="Path 253" d="M87.377,355.358l14.193,14.185,14.193-14.193L101.57,341.157Z" transform="translate(-87.377 -255.999)" fill="#e7ebef"/>
    </g>
    <g id="Group_253" data-name="Group 253" transform="translate(2168.376 882.368)">
      <path id="Path_252-5" data-name="Path 252" d="M172.534,267.372c-.83,0-1.652.038-2.464.108a42.547,42.547,0,1,0-25.814,25.814c-.07.812-.108,1.634-.108,2.464a28.386,28.386,0,1,0,28.386-28.386Z" transform="translate(-87.377 -210.6)" fill="#e7ebef"/>
      <path id="Path_253-5" data-name="Path 253" d="M87.377,355.358l14.193,14.185,14.193-14.193L101.57,341.157Z" transform="translate(-87.377 -255.999)" fill="#e7ebef"/>
    </g>
    <g id="Group_264" data-name="Group 264" transform="translate(2355.435 317.286)">
      <g id="Group_244-2" data-name="Group 244" transform="translate(199.825 387.18)">
        <g id="Group_94-6" data-name="Group 94" transform="translate(0)">
          <path id="Path_271-6" data-name="Path 271" d="M131.413,221.156v37.517A33.351,33.351,0,0,0,98.8,232.27H98.72v16.67a16.67,16.67,0,1,1,0,33.34v16.669H98.8a33.352,33.352,0,0,0,32.616-26.4v37.517a44.758,44.758,0,0,0,0-88.907Z" transform="translate(-82.05 -221.156)" fill="#e7ebef"/>
          <rect id="Rectangle_80-6" data-name="Rectangle 80" width="16.67" height="33.34" transform="translate(0 27.784)" fill="#e7ebef"/>
        </g>
      </g>
      <g id="Group_251-2" data-name="Group 251" transform="translate(196.874 568.403)">
        <rect id="Rectangle_25-3" data-name="Rectangle 25" width="24.119" height="23.974" transform="translate(0 71.922)" fill="#e7ebef"/>
        <rect id="Rectangle_26-3" data-name="Rectangle 26" width="24.119" height="23.974" transform="translate(72.356 71.922)" fill="#e7ebef"/>
        <path id="Path_51-3" data-name="Path 51" d="M104.237,101.09a36.178,36.178,0,1,0-36.178,35.961A36.07,36.07,0,0,0,104.237,101.09ZM68.058,113.535a12.445,12.445,0,1,1,12.52-12.444A12.482,12.482,0,0,1,68.058,113.535Z" transform="translate(-19.821 -65.129)" fill="#e7ebef"/>
      </g>
      <g id="Group_245-2" data-name="Group 245" transform="translate(397.379 386.905)">
        <g id="Group_101-4" data-name="Group 101" transform="translate(0 0)">
          <path id="Path_296-4" data-name="Path 296" d="M164.015,253.035a48.322,48.322,0,0,0,48.322,48.322V204.713A48.322,48.322,0,0,0,164.015,253.035Zm24.162,12.08a12.08,12.08,0,1,1,12.08-12.08A12.081,12.081,0,0,1,188.177,265.116Z" transform="translate(-125.321 -204.713)" fill="#e7ebef"/>
          <ellipse id="Ellipse_11-4" data-name="Ellipse 11" cx="12.081" cy="12.081" rx="12.081" ry="12.081" transform="matrix(0.973, -0.23, 0.23, 0.973, 0, 39.34)" fill="#e7ebef"/>
        </g>
      </g>
      <g id="Group_235-2" data-name="Group 235" transform="translate(198.124 198.965)">
        <rect id="Rectangle_81-3" data-name="Rectangle 81" width="29.663" height="59.325" transform="translate(0 0)" fill="#e7ebef"/>
        <rect id="Rectangle_82-3" data-name="Rectangle 82" width="29.663" height="59.325" transform="translate(65.258 35.595)" fill="#e7ebef"/>
        <path id="Path_305-3" data-name="Path 305" d="M138.745,354.443h35.6l-35.6-35.6Z" transform="translate(-109.082 -259.523)" fill="#e7ebef"/>
        <path id="Path_306-3" data-name="Path 306" d="M174.341,212.8h-35.6l35.6,35.6Z" transform="translate(-109.082 -212.798)" fill="#e7ebef"/>
      </g>
      <g id="Group_252-2" data-name="Group 252" transform="translate(391.188 582.848)">
        <rect id="Rectangle_81-4" data-name="Rectangle 81" width="29.663" height="59.325" transform="translate(0 0)" fill="#e7ebef"/>
        <rect id="Rectangle_82-4" data-name="Rectangle 82" width="29.663" height="59.325" transform="translate(65.258 35.595)" fill="#e7ebef"/>
        <path id="Path_305-4" data-name="Path 305" d="M138.745,354.443h35.6l-35.6-35.6Z" transform="translate(-109.082 -259.523)" fill="#e7ebef"/>
        <path id="Path_306-4" data-name="Path 306" d="M174.341,212.8h-35.6l35.6,35.6Z" transform="translate(-109.082 -212.798)" fill="#e7ebef"/>
      </g>
      <g id="Group_237-2" data-name="Group 237" transform="translate(189.431)">
        <ellipse id="Ellipse_12-4" data-name="Ellipse 12" cx="14.187" cy="14.187" rx="14.187" ry="14.187" transform="translate(85.125 14.179)" fill="#e7ebef"/>
        <ellipse id="Ellipse_13-4" data-name="Ellipse 13" cx="7.094" cy="7.09" rx="7.094" ry="7.09" transform="translate(0 42.554)" fill="#e7ebef"/>
        <ellipse id="Ellipse_14-4" data-name="Ellipse 14" cx="7.086" cy="7.086" rx="7.086" ry="7.086" transform="translate(42.571)" fill="#e7ebef"/>
        <path id="Path_350-4" data-name="Path 350" d="M124.017,329.3a56.749,56.749,0,0,0,56.749-56.749H124.017Z" transform="translate(-67.267 -215.807)" fill="#e7ebef"/>
        <path id="Path_351-4" data-name="Path 351" d="M121.814,270.345V234.876H86.345A35.469,35.469,0,0,0,121.814,270.345Z" transform="translate(-65.064 -213.603)" fill="#e7ebef"/>
        <path id="Path_352-4" data-name="Path 352" d="M63.742,330.178A42.562,42.562,0,0,0,106.3,287.616H63.742Z" transform="translate(-63.742 -216.688)" fill="#e7ebef"/>
      </g>
      <g id="Group_256-2" data-name="Group 256" transform="translate(189.431 749.806)">
        <ellipse id="Ellipse_12-5" data-name="Ellipse 12" cx="14.187" cy="14.187" rx="14.187" ry="14.187" transform="translate(85.125 14.179)" fill="#e7ebef"/>
        <ellipse id="Ellipse_13-5" data-name="Ellipse 13" cx="7.094" cy="7.09" rx="7.094" ry="7.09" transform="translate(0 42.554)" fill="#e7ebef"/>
        <ellipse id="Ellipse_14-5" data-name="Ellipse 14" cx="7.086" cy="7.086" rx="7.086" ry="7.086" transform="translate(42.571)" fill="#e7ebef"/>
        <path id="Path_350-5" data-name="Path 350" d="M124.017,329.3a56.749,56.749,0,0,0,56.749-56.749H124.017Z" transform="translate(-67.267 -215.807)" fill="#e7ebef"/>
        <path id="Path_351-5" data-name="Path 351" d="M121.814,270.345V234.876H86.345A35.469,35.469,0,0,0,121.814,270.345Z" transform="translate(-65.064 -213.603)" fill="#e7ebef"/>
        <path id="Path_352-5" data-name="Path 352" d="M63.742,330.178A42.562,42.562,0,0,0,106.3,287.616H63.742Z" transform="translate(-63.742 -216.688)" fill="#e7ebef"/>
      </g>
      <g id="Group_228-2" data-name="Group 228" transform="translate(399.623 13.874)">
        <path id="Path_212-4" data-name="Path 212" d="M130.564,250.51V211.686L87.056,255.194V298.7h43.508V255.194h43.508V211.686A43.673,43.673,0,0,0,130.564,250.51Z" transform="translate(-87.056 -211.686)" fill="#e7ebef"/>
        <path id="Path_213-4" data-name="Path 213" d="M216.516,341.146V297.638l-43.508,43.508Z" transform="translate(-129.5 -254.13)" fill="#e7ebef"/>
      </g>
      <g id="Group_257-2" data-name="Group 257" transform="translate(401.868 761.435)">
        <path id="Path_212-5" data-name="Path 212" d="M130.564,250.51V211.686L87.056,255.194V298.7h43.508V255.194h43.508V211.686A43.673,43.673,0,0,0,130.564,250.51Z" transform="translate(-87.056 -211.686)" fill="#e7ebef"/>
        <path id="Path_213-5" data-name="Path 213" d="M216.516,341.146V297.638l-43.508,43.508Z" transform="translate(-129.5 -254.13)" fill="#e7ebef"/>
      </g>
      <g id="Group_243-2" data-name="Group 243" transform="translate(4.516 386.532)">
        <path id="Path_212-6" data-name="Path 212" d="M130.564,250.51V211.686L87.056,255.194V298.7h43.508V255.194h43.508V211.686A43.673,43.673,0,0,0,130.564,250.51Z" transform="translate(-87.056 -211.686)" fill="#e7ebef"/>
        <path id="Path_213-6" data-name="Path 213" d="M216.516,341.146V297.638l-43.508,43.508Z" transform="translate(-129.5 -254.13)" fill="#e7ebef"/>
      </g>
      <g id="Group_232-2" data-name="Group 232" transform="translate(4.516 13.859)">
        <path id="Path_221-5" data-name="Path 221" d="M192.011,297.64a21.753,21.753,0,0,0-21.753,21.751h-43.51a21.875,21.875,0,0,0,43.623,2.235,21.754,21.754,0,1,0,21.64-23.986Z" transform="translate(-126.748 -254.131)" fill="#e7ebef"/>
        <path id="Path_222-5" data-name="Path 222" d="M148.5,270.883a21.753,21.753,0,0,0,21.754-21.752h43.508a21.875,21.875,0,0,0-43.622-2.24,21.754,21.754,0,1,0-21.64,23.992Z" transform="translate(-126.748 -227.377)" fill="#e7ebef"/>
      </g>
      <g id="Group_255-2" data-name="Group 255" transform="translate(4.516 761.42)">
        <path id="Path_221-6" data-name="Path 221" d="M192.011,297.64a21.753,21.753,0,0,0-21.753,21.751h-43.51a21.875,21.875,0,0,0,43.623,2.235,21.754,21.754,0,1,0,21.64-23.986Z" transform="translate(-126.748 -254.131)" fill="#e7ebef"/>
        <path id="Path_222-6" data-name="Path 222" d="M148.5,270.883a21.753,21.753,0,0,0,21.754-21.752h43.508a21.875,21.875,0,0,0-43.622-2.24,21.754,21.754,0,1,0-21.64,23.992Z" transform="translate(-126.748 -227.377)" fill="#e7ebef"/>
      </g>
      <g id="Group_238-2" data-name="Group 238" transform="translate(0 188.151)">
        <ellipse id="Ellipse_10-3" data-name="Ellipse 10" cx="14.097" cy="14.097" rx="14.097" ry="14.097" transform="translate(59.115 10.789) rotate(-22.5)" fill="#e7ebef"/>
        <path id="Path_243-3" data-name="Path 243" d="M111.734,271.324V229.033H69.443c0,22.828,17.431,41.406,40,42.3-18.673.888-32.949,16.339-32.949,35.232a35.242,35.242,0,0,0,35.242,35.242V273.736a35.286,35.286,0,0,0,70.486-2.411Z" transform="translate(-69.443 -224.711)" fill="#e7ebef"/>
      </g>
      <g id="Group_250-2" data-name="Group 250" transform="translate(4.49 572.034)">
        <ellipse id="Ellipse_10-4" data-name="Ellipse 10" cx="14.097" cy="14.097" rx="14.097" ry="14.097" transform="translate(59.115 10.789) rotate(-22.5)" fill="#e7ebef"/>
        <path id="Path_243-4" data-name="Path 243" d="M111.734,271.324V229.033H69.443c0,22.828,17.431,41.406,40,42.3-18.673.888-32.949,16.339-32.949,35.232a35.242,35.242,0,0,0,35.242,35.242V273.736a35.286,35.286,0,0,0,70.486-2.411Z" transform="translate(-69.443 -224.711)" fill="#e7ebef"/>
      </g>
      <g id="Group_112-2" data-name="Group 112" transform="translate(385.764 190.179)">
        <path id="Path_252-6" data-name="Path 252" d="M172.534,267.372c-.83,0-1.652.038-2.464.108a42.547,42.547,0,1,0-25.814,25.814c-.07.812-.108,1.634-.108,2.464a28.386,28.386,0,1,0,28.386-28.386Z" transform="translate(-87.377 -210.6)" fill="#e7ebef"/>
        <path id="Path_253-6" data-name="Path 253" d="M87.377,355.358l14.193,14.185,14.193-14.193L101.57,341.157Z" transform="translate(-87.377 -255.999)" fill="#e7ebef"/>
      </g>
    </g>
    <g id="Group_265" data-name="Group 265" transform="translate(0 753)">
      <g id="Group_229-2" data-name="Group 229" transform="translate(1211.721 511.092)">
        <rect id="Rectangle_79-3" data-name="Rectangle 79" width="50" height="49" transform="translate(0.357 1.208)" fill="#e7ebef"/>
        <path id="Path_269-3" data-name="Path 269" d="M116.088,349.227,64.5,297.638v51.589Z" transform="translate(-64.499 -246.048)" fill="#e7ebef"/>
        <path id="Path_270-3" data-name="Path 270" d="M128.49,285.236l51.59,51.589V233.646Z" transform="translate(-76.901 -233.646)" fill="#e7ebef"/>
      </g>
      <g id="Group_249-2" data-name="Group 249" transform="translate(1211.721 888.24)">
        <rect id="Rectangle_79-4" data-name="Rectangle 79" width="50" height="49" transform="translate(0.357 1.061)" fill="#e7ebef"/>
        <path id="Path_269-4" data-name="Path 269" d="M116.088,349.227,64.5,297.638v51.589Z" transform="translate(-64.499 -246.048)" fill="#e7ebef"/>
        <path id="Path_270-4" data-name="Path 270" d="M128.49,285.236l51.59,51.589V233.646Z" transform="translate(-76.901 -233.646)" fill="#e7ebef"/>
      </g>
      <g id="Group_254-2" data-name="Group 254" transform="translate(2000.397 899.775)">
        <g id="Group_94-7" data-name="Group 94" transform="translate(0)">
          <path id="Path_271-7" data-name="Path 271" d="M131.413,221.156v37.517A33.351,33.351,0,0,0,98.8,232.27H98.72v16.67a16.67,16.67,0,1,1,0,33.34v16.669H98.8a33.352,33.352,0,0,0,32.616-26.4v37.517a44.758,44.758,0,0,0,0-88.907Z" transform="translate(-82.05 -221.156)" fill="#e7ebef"/>
          <rect id="Rectangle_80-7" data-name="Rectangle 80" width="16.67" height="33.34" transform="translate(0 27.784)" fill="#e7ebef"/>
        </g>
      </g>
      <g id="Group_258-2" data-name="Group 258" transform="translate(2175.501 1088.349)">
        <g id="Group_94-8" data-name="Group 94" transform="translate(0)">
          <path id="Path_271-8" data-name="Path 271" d="M131.413,221.156v37.517A33.351,33.351,0,0,0,98.8,232.27H98.72v16.67a16.67,16.67,0,1,1,0,33.34v16.669H98.8a33.352,33.352,0,0,0,32.616-26.4v37.517a44.758,44.758,0,0,0,0-88.907Z" transform="translate(-82.05 -221.156)" fill="#e7ebef"/>
          <rect id="Rectangle_80-8" data-name="Rectangle 80" width="16.67" height="33.34" transform="translate(0 27.784)" fill="#e7ebef"/>
        </g>
      </g>
      <g id="Group_261-2" data-name="Group 261" transform="translate(1021.608 1081.614)">
        <g id="Group_94-9" data-name="Group 94" transform="translate(0)">
          <path id="Path_271-9" data-name="Path 271" d="M131.413,221.156v37.517A33.351,33.351,0,0,0,98.8,232.27H98.72v16.67a16.67,16.67,0,1,1,0,33.34v16.669H98.8a33.352,33.352,0,0,0,32.616-26.4v37.517a44.758,44.758,0,0,0,0-88.907Z" transform="translate(-82.05 -221.156)" fill="#e7ebef"/>
          <rect id="Rectangle_80-9" data-name="Rectangle 80" width="16.67" height="33.34" transform="translate(0 27.784)" fill="#e7ebef"/>
        </g>
      </g>
      <g id="Group_244-3" data-name="Group 244" transform="translate(1607.534 704.466)">
        <g id="Group_94-10" data-name="Group 94" transform="translate(0)">
          <path id="Path_271-10" data-name="Path 271" d="M131.413,221.156v37.517A33.351,33.351,0,0,0,98.8,232.27H98.72v16.67a16.67,16.67,0,1,1,0,33.34v16.669H98.8a33.352,33.352,0,0,0,32.616-26.4v37.517a44.758,44.758,0,0,0,0-88.907Z" transform="translate(-82.05 -221.156)" fill="#e7ebef"/>
          <rect id="Rectangle_80-10" data-name="Rectangle 80" width="16.67" height="33.34" transform="translate(0 27.784)" fill="#e7ebef"/>
        </g>
      </g>
      <g id="Group_240-2" data-name="Group 240" transform="translate(2181.531 522.195)">
        <path id="Path_252-7" data-name="Path 252" d="M151.22,253.163c-.623,0-1.238.028-1.847.081A31.9,31.9,0,1,0,130.02,272.6c-.053.609-.081,1.225-.081,1.847a21.281,21.281,0,1,0,21.281-21.281Z" transform="translate(-87.377 -210.6)" fill="#e7ebef"/>
        <path id="Path_253-7" data-name="Path 253" d="M87.377,351.8l10.641,10.635L108.658,351.8,98.017,341.157Z" transform="translate(-87.377 -277.313)" fill="#e7ebef"/>
      </g>
      <g id="Group_248-2" data-name="Group 248" transform="translate(1029.882 897.098)">
        <path id="Path_252-8" data-name="Path 252" d="M151.22,253.163c-.623,0-1.238.028-1.847.081A31.9,31.9,0,1,0,130.02,272.6c-.053.609-.081,1.225-.081,1.847a21.281,21.281,0,1,0,21.281-21.281Z" transform="translate(-87.377 -210.6)" fill="#e7ebef"/>
        <path id="Path_253-8" data-name="Path 253" d="M87.377,351.8l10.641,10.635L108.658,351.8,98.017,341.157Z" transform="translate(-87.377 -277.313)" fill="#e7ebef"/>
      </g>
      <g id="Group_233-2" data-name="Group 233" transform="translate(1023.147 515.276)">
        <rect id="Rectangle_25-4" data-name="Rectangle 25" width="24.119" height="23.974" transform="translate(0 71.922)" fill="#e7ebef"/>
        <rect id="Rectangle_26-4" data-name="Rectangle 26" width="24.119" height="23.974" transform="translate(72.356 71.922)" fill="#e7ebef"/>
        <path id="Path_51-4" data-name="Path 51" d="M104.237,101.09a36.178,36.178,0,1,0-36.178,35.961A36.07,36.07,0,0,0,104.237,101.09ZM68.058,113.535a12.445,12.445,0,1,1,12.52-12.444A12.482,12.482,0,0,1,68.058,113.535Z" transform="translate(-19.821 -65.129)" fill="#e7ebef"/>
      </g>
      <g id="Group_251-3" data-name="Group 251" transform="translate(1604.584 885.689)">
        <rect id="Rectangle_25-5" data-name="Rectangle 25" width="24.119" height="23.974" transform="translate(0 71.922)" fill="#e7ebef"/>
        <rect id="Rectangle_26-5" data-name="Rectangle 26" width="24.119" height="23.974" transform="translate(72.356 71.922)" fill="#e7ebef"/>
        <path id="Path_51-5" data-name="Path 51" d="M104.237,101.09a36.178,36.178,0,1,0-36.178,35.961A36.07,36.07,0,0,0,104.237,101.09ZM68.058,113.535a12.445,12.445,0,1,1,12.52-12.444A12.482,12.482,0,0,1,68.058,113.535Z" transform="translate(-19.821 -65.129)" fill="#e7ebef"/>
      </g>
      <g id="Group_245-3" data-name="Group 245" transform="translate(1805.088 704.191)">
        <g id="Group_101-5" data-name="Group 101" transform="translate(0 0)">
          <path id="Path_296-5" data-name="Path 296" d="M164.015,253.035a48.322,48.322,0,0,0,48.322,48.322V204.713A48.322,48.322,0,0,0,164.015,253.035Zm24.162,12.08a12.08,12.08,0,1,1,12.08-12.08A12.081,12.081,0,0,1,188.177,265.116Z" transform="translate(-125.321 -204.713)" fill="#e7ebef"/>
          <ellipse id="Ellipse_11-5" data-name="Ellipse 11" cx="12.081" cy="12.081" rx="12.081" ry="12.081" transform="matrix(0.973, -0.23, 0.23, 0.973, 0, 39.34)" fill="#e7ebef"/>
        </g>
      </g>
      <g id="Group_259-2" data-name="Group 259" transform="translate(1995.907 1079.094)">
        <g id="Group_101-6" data-name="Group 101" transform="translate(0 0)">
          <path id="Path_296-6" data-name="Path 296" d="M164.015,253.035a48.322,48.322,0,0,0,48.322,48.322V204.713A48.322,48.322,0,0,0,164.015,253.035Zm24.162,12.08a12.08,12.08,0,1,1,12.08-12.08A12.081,12.081,0,0,1,188.177,265.116Z" transform="translate(-125.321 -204.713)" fill="#e7ebef"/>
          <ellipse id="Ellipse_11-6" data-name="Ellipse 11" cx="12.081" cy="12.081" rx="12.081" ry="12.081" transform="matrix(0.973, -0.23, 0.23, 0.973, 0, 39.34)" fill="#e7ebef"/>
        </g>
      </g>
      <g id="Group_235-3" data-name="Group 235" transform="translate(1605.834 516.251)">
        <rect id="Rectangle_81-5" data-name="Rectangle 81" width="29.663" height="59.325" transform="translate(0 0)" fill="#e7ebef"/>
        <rect id="Rectangle_82-5" data-name="Rectangle 82" width="29.663" height="59.325" transform="translate(65.258 35.595)" fill="#e7ebef"/>
        <path id="Path_305-5" data-name="Path 305" d="M138.745,354.443h35.6l-35.6-35.6Z" transform="translate(-109.082 -259.523)" fill="#e7ebef"/>
        <path id="Path_306-5" data-name="Path 306" d="M174.341,212.8h-35.6l35.6,35.6Z" transform="translate(-109.082 -212.798)" fill="#e7ebef"/>
      </g>
      <g id="Group_252-3" data-name="Group 252" transform="translate(1798.898 900.134)">
        <rect id="Rectangle_81-6" data-name="Rectangle 81" width="29.663" height="59.325" transform="translate(0 0)" fill="#e7ebef"/>
        <rect id="Rectangle_82-6" data-name="Rectangle 82" width="29.663" height="59.325" transform="translate(65.258 35.595)" fill="#e7ebef"/>
        <path id="Path_305-6" data-name="Path 305" d="M138.745,354.443h35.6l-35.6-35.6Z" transform="translate(-109.082 -259.523)" fill="#e7ebef"/>
        <path id="Path_306-6" data-name="Path 306" d="M174.341,212.8h-35.6l35.6,35.6Z" transform="translate(-109.082 -212.798)" fill="#e7ebef"/>
      </g>
      <g id="Group_260-2" data-name="Group 260" transform="translate(1209.477 1077.205)">
        <rect id="Rectangle_83-5" data-name="Rectangle 83" width="18.24" height="18.24" transform="translate(38.692 12.897) rotate(-45)" fill="#e7ebef"/>
        <path id="Path_322-5" data-name="Path 322" d="M139.85,297.638a51.589,51.589,0,0,0-51.589,51.589H191.439A51.589,51.589,0,0,0,139.85,297.638Z" transform="translate(-88.261 -246.049)" fill="#e7ebef"/>
      </g>
      <g id="Group_247-2" data-name="Group 247" transform="translate(2168.061 700.057)">
        <rect id="Rectangle_83-6" data-name="Rectangle 83" width="18.24" height="18.24" transform="translate(38.692 12.897) rotate(-45)" fill="#e7ebef"/>
        <path id="Path_322-6" data-name="Path 322" d="M139.85,297.638a51.589,51.589,0,0,0-51.589,51.589H191.439A51.589,51.589,0,0,0,139.85,297.638Z" transform="translate(-88.261 -246.049)" fill="#e7ebef"/>
      </g>
      <g id="Group_241-2" data-name="Group 241" transform="translate(1020.902 695.567)">
        <rect id="Rectangle_83-7" data-name="Rectangle 83" width="18.24" height="18.24" transform="translate(38.692 12.897) rotate(-45)" fill="#e7ebef"/>
        <path id="Path_322-7" data-name="Path 322" d="M139.85,297.638a51.589,51.589,0,0,0-51.589,51.589H191.439A51.589,51.589,0,0,0,139.85,297.638Z" transform="translate(-88.261 -246.049)" fill="#e7ebef"/>
      </g>
      <g id="Group_256-3" data-name="Group 256" transform="translate(1597.141 1067.092)">
        <ellipse id="Ellipse_12-6" data-name="Ellipse 12" cx="14.187" cy="14.187" rx="14.187" ry="14.187" transform="translate(85.125 14.179)" fill="#e7ebef"/>
        <ellipse id="Ellipse_13-6" data-name="Ellipse 13" cx="7.094" cy="7.09" rx="7.094" ry="7.09" transform="translate(0 42.554)" fill="#e7ebef"/>
        <ellipse id="Ellipse_14-6" data-name="Ellipse 14" cx="7.086" cy="7.086" rx="7.086" ry="7.086" transform="translate(42.571)" fill="#e7ebef"/>
        <path id="Path_350-6" data-name="Path 350" d="M124.017,329.3a56.749,56.749,0,0,0,56.749-56.749H124.017Z" transform="translate(-67.267 -215.807)" fill="#e7ebef"/>
        <path id="Path_351-6" data-name="Path 351" d="M121.814,270.345V234.876H86.345A35.469,35.469,0,0,0,121.814,270.345Z" transform="translate(-65.064 -213.603)" fill="#e7ebef"/>
        <path id="Path_352-6" data-name="Path 352" d="M63.742,330.178A42.562,42.562,0,0,0,106.3,287.616H63.742Z" transform="translate(-63.742 -216.688)" fill="#e7ebef"/>
      </g>
      <g id="Group_246-2" data-name="Group 246" transform="translate(1987.758 696.679)">
        <ellipse id="Ellipse_12-7" data-name="Ellipse 12" cx="14.187" cy="14.187" rx="14.187" ry="14.187" transform="translate(85.125 14.179)" fill="#e7ebef"/>
        <ellipse id="Ellipse_13-7" data-name="Ellipse 13" cx="7.094" cy="7.09" rx="7.094" ry="7.09" transform="translate(0 42.554)" fill="#e7ebef"/>
        <ellipse id="Ellipse_14-7" data-name="Ellipse 14" cx="7.086" cy="7.086" rx="7.086" ry="7.086" transform="translate(42.571)" fill="#e7ebef"/>
        <path id="Path_350-7" data-name="Path 350" d="M124.017,329.3a56.749,56.749,0,0,0,56.749-56.749H124.017Z" transform="translate(-67.267 -215.807)" fill="#e7ebef"/>
        <path id="Path_351-7" data-name="Path 351" d="M121.814,270.345V234.876H86.345A35.469,35.469,0,0,0,121.814,270.345Z" transform="translate(-65.064 -213.603)" fill="#e7ebef"/>
        <path id="Path_352-7" data-name="Path 352" d="M63.742,330.178A42.562,42.562,0,0,0,106.3,287.616H63.742Z" transform="translate(-63.742 -216.688)" fill="#e7ebef"/>
      </g>
      <g id="Group_257-3" data-name="Group 257" transform="translate(1809.578 1078.722)">
        <path id="Path_212-7" data-name="Path 212" d="M130.564,250.51V211.686L87.056,255.194V298.7h43.508V255.194h43.508V211.686A43.673,43.673,0,0,0,130.564,250.51Z" transform="translate(-87.056 -211.686)" fill="#e7ebef"/>
        <path id="Path_213-7" data-name="Path 213" d="M216.516,341.146V297.638l-43.508,43.508Z" transform="translate(-129.5 -254.13)" fill="#e7ebef"/>
      </g>
      <g id="Group_243-3" data-name="Group 243" transform="translate(1412.226 703.818)">
        <path id="Path_212-8" data-name="Path 212" d="M130.564,250.51V211.686L87.056,255.194V298.7h43.508V255.194h43.508V211.686A43.673,43.673,0,0,0,130.564,250.51Z" transform="translate(-87.056 -211.686)" fill="#e7ebef"/>
        <path id="Path_213-8" data-name="Path 213" d="M216.516,341.146V297.638l-43.508,43.508Z" transform="translate(-129.5 -254.13)" fill="#e7ebef"/>
      </g>
      <g id="Group_242-2" data-name="Group 242" transform="translate(1219.162 708.293)">
        <path id="Path_221-7" data-name="Path 221" d="M192.011,297.64a21.753,21.753,0,0,0-21.753,21.751h-43.51a21.875,21.875,0,0,0,43.623,2.235,21.754,21.754,0,1,0,21.64-23.986Z" transform="translate(-126.748 -254.131)" fill="#e7ebef"/>
        <path id="Path_222-7" data-name="Path 222" d="M148.5,270.883a21.753,21.753,0,0,0,21.754-21.752h43.508a21.875,21.875,0,0,0-43.622-2.24,21.754,21.754,0,1,0-21.64,23.992Z" transform="translate(-126.748 -227.377)" fill="#e7ebef"/>
      </g>
      <g id="Group_239-2" data-name="Group 239" transform="translate(2000.397 519.719)">
        <path id="Path_221-8" data-name="Path 221" d="M192.011,297.64a21.753,21.753,0,0,0-21.753,21.751h-43.51a21.875,21.875,0,0,0,43.623,2.235,21.754,21.754,0,1,0,21.64-23.986Z" transform="translate(-126.748 -254.131)" fill="#e7ebef"/>
        <path id="Path_222-8" data-name="Path 222" d="M148.5,270.883a21.753,21.753,0,0,0,21.754-21.752h43.508a21.875,21.875,0,0,0-43.622-2.24,21.754,21.754,0,1,0-21.64,23.992Z" transform="translate(-126.748 -227.377)" fill="#e7ebef"/>
      </g>
      <g id="Group_255-3" data-name="Group 255" transform="translate(1412.226 1078.706)">
        <path id="Path_221-9" data-name="Path 221" d="M192.011,297.64a21.753,21.753,0,0,0-21.753,21.751h-43.51a21.875,21.875,0,0,0,43.623,2.235,21.754,21.754,0,1,0,21.64-23.986Z" transform="translate(-126.748 -254.131)" fill="#e7ebef"/>
        <path id="Path_222-9" data-name="Path 222" d="M148.5,270.883a21.753,21.753,0,0,0,21.754-21.752h43.508a21.875,21.875,0,0,0-43.622-2.24,21.754,21.754,0,1,0-21.64,23.992Z" transform="translate(-126.748 -227.377)" fill="#e7ebef"/>
      </g>
      <g id="Group_238-3" data-name="Group 238" transform="translate(1407.71 505.437)">
        <ellipse id="Ellipse_10-5" data-name="Ellipse 10" cx="14.097" cy="14.097" rx="14.097" ry="14.097" transform="translate(59.115 10.789) rotate(-22.5)" fill="#e7ebef"/>
        <path id="Path_243-5" data-name="Path 243" d="M111.734,271.324V229.033H69.443c0,22.828,17.431,41.406,40,42.3-18.673.888-32.949,16.339-32.949,35.232a35.242,35.242,0,0,0,35.242,35.242V273.736a35.286,35.286,0,0,0,70.486-2.411Z" transform="translate(-69.443 -224.711)" fill="#e7ebef"/>
      </g>
      <g id="Group_250-3" data-name="Group 250" transform="translate(1412.199 889.32)">
        <ellipse id="Ellipse_10-6" data-name="Ellipse 10" cx="14.097" cy="14.097" rx="14.097" ry="14.097" transform="translate(59.115 10.789) rotate(-22.5)" fill="#e7ebef"/>
        <path id="Path_243-6" data-name="Path 243" d="M111.734,271.324V229.033H69.443c0,22.828,17.431,41.406,40,42.3-18.673.888-32.949,16.339-32.949,35.232a35.242,35.242,0,0,0,35.242,35.242V273.736a35.286,35.286,0,0,0,70.486-2.411Z" transform="translate(-69.443 -224.711)" fill="#e7ebef"/>
      </g>
      <g id="Group_112-3" data-name="Group 112" transform="translate(1793.473 507.465)">
        <path id="Path_252-9" data-name="Path 252" d="M172.534,267.372c-.83,0-1.652.038-2.464.108a42.547,42.547,0,1,0-25.814,25.814c-.07.812-.108,1.634-.108,2.464a28.386,28.386,0,1,0,28.386-28.386Z" transform="translate(-87.377 -210.6)" fill="#e7ebef"/>
        <path id="Path_253-9" data-name="Path 253" d="M87.377,355.358l14.193,14.185,14.193-14.193L101.57,341.157Z" transform="translate(-87.377 -255.999)" fill="#e7ebef"/>
      </g>
      <g id="Group_253-2" data-name="Group 253" transform="translate(2168.376 882.368)">
        <path id="Path_252-10" data-name="Path 252" d="M172.534,267.372c-.83,0-1.652.038-2.464.108a42.547,42.547,0,1,0-25.814,25.814c-.07.812-.108,1.634-.108,2.464a28.386,28.386,0,1,0,28.386-28.386Z" transform="translate(-87.377 -210.6)" fill="#e7ebef"/>
        <path id="Path_253-10" data-name="Path 253" d="M87.377,355.358l14.193,14.185,14.193-14.193L101.57,341.157Z" transform="translate(-87.377 -255.999)" fill="#e7ebef"/>
      </g>
      <g id="Group_264-2" data-name="Group 264" transform="translate(2355.435 317.286)">
        <g id="Group_244-4" data-name="Group 244" transform="translate(199.825 387.18)">
          <g id="Group_94-11" data-name="Group 94" transform="translate(0)">
            <path id="Path_271-11" data-name="Path 271" d="M131.413,221.156v37.517A33.351,33.351,0,0,0,98.8,232.27H98.72v16.67a16.67,16.67,0,1,1,0,33.34v16.669H98.8a33.352,33.352,0,0,0,32.616-26.4v37.517a44.758,44.758,0,0,0,0-88.907Z" transform="translate(-82.05 -221.156)" fill="#e7ebef"/>
            <rect id="Rectangle_80-11" data-name="Rectangle 80" width="16.67" height="33.34" transform="translate(0 27.784)" fill="#e7ebef"/>
          </g>
        </g>
        <g id="Group_251-4" data-name="Group 251" transform="translate(196.874 568.403)">
          <rect id="Rectangle_25-6" data-name="Rectangle 25" width="24.119" height="23.974" transform="translate(0 71.922)" fill="#e7ebef"/>
          <rect id="Rectangle_26-6" data-name="Rectangle 26" width="24.119" height="23.974" transform="translate(72.356 71.922)" fill="#e7ebef"/>
          <path id="Path_51-6" data-name="Path 51" d="M104.237,101.09a36.178,36.178,0,1,0-36.178,35.961A36.07,36.07,0,0,0,104.237,101.09ZM68.058,113.535a12.445,12.445,0,1,1,12.52-12.444A12.482,12.482,0,0,1,68.058,113.535Z" transform="translate(-19.821 -65.129)" fill="#e7ebef"/>
        </g>
        <g id="Group_245-4" data-name="Group 245" transform="translate(397.379 386.905)">
          <g id="Group_101-7" data-name="Group 101" transform="translate(0 0)">
            <path id="Path_296-7" data-name="Path 296" d="M164.015,253.035a48.322,48.322,0,0,0,48.322,48.322V204.713A48.322,48.322,0,0,0,164.015,253.035Zm24.162,12.08a12.08,12.08,0,1,1,12.08-12.08A12.081,12.081,0,0,1,188.177,265.116Z" transform="translate(-125.321 -204.713)" fill="#e7ebef"/>
            <ellipse id="Ellipse_11-7" data-name="Ellipse 11" cx="12.081" cy="12.081" rx="12.081" ry="12.081" transform="matrix(0.973, -0.23, 0.23, 0.973, 0, 39.34)" fill="#e7ebef"/>
          </g>
        </g>
        <g id="Group_235-4" data-name="Group 235" transform="translate(198.124 198.965)">
          <rect id="Rectangle_81-7" data-name="Rectangle 81" width="29.663" height="59.325" transform="translate(0 0)" fill="#e7ebef"/>
          <rect id="Rectangle_82-7" data-name="Rectangle 82" width="29.663" height="59.325" transform="translate(65.258 35.595)" fill="#e7ebef"/>
          <path id="Path_305-7" data-name="Path 305" d="M138.745,354.443h35.6l-35.6-35.6Z" transform="translate(-109.082 -259.523)" fill="#e7ebef"/>
          <path id="Path_306-7" data-name="Path 306" d="M174.341,212.8h-35.6l35.6,35.6Z" transform="translate(-109.082 -212.798)" fill="#e7ebef"/>
        </g>
        <g id="Group_252-4" data-name="Group 252" transform="translate(391.188 582.848)">
          <rect id="Rectangle_81-8" data-name="Rectangle 81" width="29.663" height="59.325" transform="translate(0 0)" fill="#e7ebef"/>
          <rect id="Rectangle_82-8" data-name="Rectangle 82" width="29.663" height="59.325" transform="translate(65.258 35.595)" fill="#e7ebef"/>
          <path id="Path_305-8" data-name="Path 305" d="M138.745,354.443h35.6l-35.6-35.6Z" transform="translate(-109.082 -259.523)" fill="#e7ebef"/>
          <path id="Path_306-8" data-name="Path 306" d="M174.341,212.8h-35.6l35.6,35.6Z" transform="translate(-109.082 -212.798)" fill="#e7ebef"/>
        </g>
        <g id="Group_256-4" data-name="Group 256" transform="translate(189.431 749.806)">
          <ellipse id="Ellipse_12-8" data-name="Ellipse 12" cx="14.187" cy="14.187" rx="14.187" ry="14.187" transform="translate(85.125 14.179)" fill="#e7ebef"/>
          <ellipse id="Ellipse_13-8" data-name="Ellipse 13" cx="7.094" cy="7.09" rx="7.094" ry="7.09" transform="translate(0 42.554)" fill="#e7ebef"/>
          <ellipse id="Ellipse_14-8" data-name="Ellipse 14" cx="7.086" cy="7.086" rx="7.086" ry="7.086" transform="translate(42.571)" fill="#e7ebef"/>
          <path id="Path_350-8" data-name="Path 350" d="M124.017,329.3a56.749,56.749,0,0,0,56.749-56.749H124.017Z" transform="translate(-67.267 -215.807)" fill="#e7ebef"/>
          <path id="Path_351-8" data-name="Path 351" d="M121.814,270.345V234.876H86.345A35.469,35.469,0,0,0,121.814,270.345Z" transform="translate(-65.064 -213.603)" fill="#e7ebef"/>
          <path id="Path_352-8" data-name="Path 352" d="M63.742,330.178A42.562,42.562,0,0,0,106.3,287.616H63.742Z" transform="translate(-63.742 -216.688)" fill="#e7ebef"/>
        </g>
        <g id="Group_257-4" data-name="Group 257" transform="translate(401.868 761.435)">
          <path id="Path_212-9" data-name="Path 212" d="M130.564,250.51V211.686L87.056,255.194V298.7h43.508V255.194h43.508V211.686A43.673,43.673,0,0,0,130.564,250.51Z" transform="translate(-87.056 -211.686)" fill="#e7ebef"/>
          <path id="Path_213-9" data-name="Path 213" d="M216.516,341.146V297.638l-43.508,43.508Z" transform="translate(-129.5 -254.13)" fill="#e7ebef"/>
        </g>
        <g id="Group_243-4" data-name="Group 243" transform="translate(4.516 386.532)">
          <path id="Path_212-10" data-name="Path 212" d="M130.564,250.51V211.686L87.056,255.194V298.7h43.508V255.194h43.508V211.686A43.673,43.673,0,0,0,130.564,250.51Z" transform="translate(-87.056 -211.686)" fill="#e7ebef"/>
          <path id="Path_213-10" data-name="Path 213" d="M216.516,341.146V297.638l-43.508,43.508Z" transform="translate(-129.5 -254.13)" fill="#e7ebef"/>
        </g>
        <g id="Group_255-4" data-name="Group 255" transform="translate(4.516 761.42)">
          <path id="Path_221-10" data-name="Path 221" d="M192.011,297.64a21.753,21.753,0,0,0-21.753,21.751h-43.51a21.875,21.875,0,0,0,43.623,2.235,21.754,21.754,0,1,0,21.64-23.986Z" transform="translate(-126.748 -254.131)" fill="#e7ebef"/>
          <path id="Path_222-10" data-name="Path 222" d="M148.5,270.883a21.753,21.753,0,0,0,21.754-21.752h43.508a21.875,21.875,0,0,0-43.622-2.24,21.754,21.754,0,1,0-21.64,23.992Z" transform="translate(-126.748 -227.377)" fill="#e7ebef"/>
        </g>
        <g id="Group_238-4" data-name="Group 238" transform="translate(0 188.151)">
          <ellipse id="Ellipse_10-7" data-name="Ellipse 10" cx="14.097" cy="14.097" rx="14.097" ry="14.097" transform="translate(59.115 10.789) rotate(-22.5)" fill="#e7ebef"/>
          <path id="Path_243-7" data-name="Path 243" d="M111.734,271.324V229.033H69.443c0,22.828,17.431,41.406,40,42.3-18.673.888-32.949,16.339-32.949,35.232a35.242,35.242,0,0,0,35.242,35.242V273.736a35.286,35.286,0,0,0,70.486-2.411Z" transform="translate(-69.443 -224.711)" fill="#e7ebef"/>
        </g>
        <g id="Group_250-4" data-name="Group 250" transform="translate(4.49 572.034)">
          <ellipse id="Ellipse_10-8" data-name="Ellipse 10" cx="14.097" cy="14.097" rx="14.097" ry="14.097" transform="translate(59.115 10.789) rotate(-22.5)" fill="#e7ebef"/>
          <path id="Path_243-8" data-name="Path 243" d="M111.734,271.324V229.033H69.443c0,22.828,17.431,41.406,40,42.3-18.673.888-32.949,16.339-32.949,35.232a35.242,35.242,0,0,0,35.242,35.242V273.736a35.286,35.286,0,0,0,70.486-2.411Z" transform="translate(-69.443 -224.711)" fill="#e7ebef"/>
        </g>
        <g id="Group_112-4" data-name="Group 112" transform="translate(385.764 190.179)">
          <path id="Path_252-11" data-name="Path 252" d="M172.534,267.372c-.83,0-1.652.038-2.464.108a42.547,42.547,0,1,0-25.814,25.814c-.07.812-.108,1.634-.108,2.464a28.386,28.386,0,1,0,28.386-28.386Z" transform="translate(-87.377 -210.6)" fill="#e7ebef"/>
          <path id="Path_253-11" data-name="Path 253" d="M87.377,355.358l14.193,14.185,14.193-14.193L101.57,341.157Z" transform="translate(-87.377 -255.999)" fill="#e7ebef"/>
        </g>
      </g>
    </g>
  </g>
</svg>
