<svg xmlns="http://www.w3.org/2000/svg" width="86" height="114" viewBox="0 0 86 114"><path fill="#fff" d="M7.31.843C3.415.843.23 4.03.23 7.923v99.116c0 3.894 3.186 7.08 7.08 7.08h71.38c3.894 0 7.08-3.186 7.08-7.08V25.45L61.176.843z"/><path fill="#1d1d1b" d="M61.165 25.445h24.602L61.175.843h-.01z" opacity=".3"/><g opacity=".2"><path fill="#848484" d="M.23 69.552v-1.77h85.523v1.77zM.23 98.968v-1.77h85.523v1.77z" opacity=".2"/></g><path d="M25.267 83.662v-5.905h3.884c1.338 0 2.166.167 2.484.503.319.333.478 1.197.478 2.595 0 1.214-.194 1.986-.577 2.315-.382.325-1.285.492-2.704.492h-3.568zm0 7.968v-5.338h3.688l.726-.01c2.259 0 3.76-.365 4.5-1.09.74-.727 1.111-2.196 1.111-4.405 0-2.222-.39-3.727-1.168-4.506-.775-.779-2.283-1.168-4.517-1.168H22.13V91.63zM40.421 77.757h4.659c1.462 0 2.39.326 2.785.988.394.662.592 2.209.592 4.644 0 2.358-.22 3.88-.658 4.57-.443.687-1.413 1.034-2.914 1.034H40.42zM37.288 91.63h8.217c2.605 0 4.28-.588 5.023-1.759.74-1.176 1.11-3.823 1.11-7.944 0-2.523-.463-4.29-1.387-5.299-.923-1.009-2.538-1.515-4.845-1.515h-8.118zM57.063 77.757v4.454h7.401v2.633h-7.402v6.79h-3.136V75.117h10.938v2.64h-7.801z"/></svg>