<svg xmlns="http://www.w3.org/2000/svg" viewBox="0 0 20 19"><path d="M8.27 11.132C6.362 9.32 5.932 7.505 5.835 6.778a.633.633 0 01.197-.545l1.542-1.467a.632.632 0 00.097-.81L5.216.326a.708.708 0 00-.892-.239L.382 1.855a.646.646 0 00-.379.65c.207 1.868 1.062 6.459 5.803 10.97 4.74 4.511 9.564 5.325 11.527 5.522a.692.692 0 00.685-.36l1.856-3.752a.638.638 0 00-.25-.848l-3.813-2.336a.715.715 0 00-.852.092l-1.541 1.468a.706.706 0 01-.573.187c-.764-.093-2.67-.502-4.576-2.316z"/><path d="M15.838 10.155c-.38 0-.689-.293-.689-.655-.003-2.713-2.313-4.911-5.164-4.914-.38 0-.689-.294-.689-.655 0-.362.309-.656.689-.656 3.61.004 6.537 2.789 6.541 6.225 0 .362-.308.655-.688.655z"/><path d="M19.28 10.155c-.38 0-.688-.293-.688-.655-.006-4.521-3.856-8.185-8.607-8.19-.38 0-.689-.294-.689-.655 0-.362.309-.656.689-.656 5.511.006 9.978 4.256 9.984 9.5a.64.64 0 01-.202.464.707.707 0 01-.487.192z"/></svg>