<?xml version="1.0" encoding="UTF-8" standalone="no"?> <svg xmlns:dc="http://purl.org/dc/elements/1.1/" xmlns:cc="http://creativecommons.org/ns#" xmlns:rdf="http://www.w3.org/1999/02/22-rdf-syntax-ns#" xmlns:svg="http://www.w3.org/2000/svg" xmlns="http://www.w3.org/2000/svg" height="298.35001" width="298.35001" xml:space="preserve" viewBox="0 0 298.34999 298.34999" y="0px" x="0px" id="Warstwa_1" version="1.1"><metadata id="metadata17"></metadata><defs id="defs15"></defs> <style id="style2" type="text/css"> .st0{fill:#FFFFFF;} </style> <g transform="translate(-148.46,-148.62)" id="g10"> <path style="fill:#ffffff" id="path6" d="m 372.23,297.81 c -41.19,0 -74.58,33.38 -74.58,74.57 H 148.47 c 0,41.19 33.57,74.58 74.98,74.58 38.81,0 70.73,-29.33 74.59,-66.92 3.83,37.59 35.59,66.93 74.19,66.93 41.19,0 74.58,-33.39 74.58,-74.58 0,-41.19 -33.39,-74.58 -74.58,-74.58 z" class="st0"></path> <path style="fill:#ffffff" id="path8" d="m 223.05,297.8 c 41.19,0 74.58,-33.39 74.58,-74.58 H 446.8 c 0,-41.19 -33.57,-74.59 -74.98,-74.59 -38.8,0 -70.72,29.32 -74.59,66.9 -3.84,-37.58 -35.59,-66.91 -74.19,-66.91 -41.19,0 -74.58,33.39 -74.58,74.58 0.01,41.21 33.4,74.6 74.59,74.6 z" class="st0"></path> </g> </svg> 