<?xml version="1.0" encoding="UTF-8" standalone="no"?> <svg xmlns:dc="http://purl.org/dc/elements/1.1/" xmlns:cc="http://creativecommons.org/ns#" xmlns:rdf="http://www.w3.org/1999/02/22-rdf-syntax-ns#" xmlns:svg="http://www.w3.org/2000/svg" xmlns="http://www.w3.org/2000/svg" height="296.72" width="296.72" xml:space="preserve" viewBox="0 0 296.71999 296.71999" y="0px" x="0px" id="Warstwa_1" version="1.1"><metadata id="metadata17"></metadata><defs id="defs15"></defs> <style id="style2" type="text/css"> .st0{fill:#FFFFFF;} </style> <g transform="translate(-149.78,-148.39)" id="g10"> <path style="fill:#ffffff" id="path6" d="m 353.77,222.57 c 20.48,0 37.09,-16.6 37.09,-37.09 0,-20.49 -16.61,-37.09 -37.09,-37.09 -20.48,0 -37.09,16.61 -37.09,37.09 0,20.48 16.61,37.09 37.09,37.09 z" class="st0"></path> <path style="fill:#ffffff" id="path8" d="M 261.04,259.66 V 148.39 H 149.78 c 0,60.06 45.86,108.94 105.23,111.3 -49.13,2.34 -86.69,42.99 -86.69,92.7 0,51.21 41.51,92.72 92.73,92.72 v -179.1 c 3.27,48.25 43.48,86.38 92.62,86.38 51.27,0 92.83,-41.52 92.83,-92.73 H 261.04 Z" class="st0"></path> </g> </svg> 