<?xml version="1.0" encoding="UTF-8"?> <svg xmlns="http://www.w3.org/2000/svg" viewBox="0 0 441 441"><path d="M330.75 220.5c-3.222 0-6.414.148-9.577.414 6.193-17.365 9.577-36.06 9.577-55.539C330.75 74.042 256.708 0 165.375 0S0 74.042 0 165.375 74.042 330.75 165.375 330.75c19.493 0 38.174-3.384 55.539-9.562-.266 3.163-.414 6.34-.414 9.562 0 60.904 49.361 110.25 110.25 110.25S441 391.654 441 330.75c0-60.889-49.361-110.25-110.25-110.25zM.015 385.905L55.125 441l55.125-55.125-55.125-55.125z" fill="#fff"></path></svg> 