<?xml version="1.0" encoding="UTF-8" standalone="no"?> <svg xmlns:dc="http://purl.org/dc/elements/1.1/" xmlns:cc="http://creativecommons.org/ns#" xmlns:rdf="http://www.w3.org/1999/02/22-rdf-syntax-ns#" xmlns:svg="http://www.w3.org/2000/svg" xmlns="http://www.w3.org/2000/svg" height="296.85999" width="296.88" xml:space="preserve" viewBox="0 0 296.87999 296.85997" y="0px" x="0px" id="Warstwa_1" version="1.1"><metadata id="metadata21"></metadata><defs id="defs19"></defs> <style id="style2" type="text/css"> .st0{fill:#FFFFFF;} </style> <g transform="translate(-149.78,-149.15)" id="g14"> <path style="fill:#ffffff" id="path6" d="m 314.61,149.15 v 125.28 c -10.66,-50.37 -55.37,-88.17 -108.91,-88.17 -0.09,0 -0.17,0 -0.26,0 v 55.66 0 0 c 30.74,0 55.66,24.92 55.66,55.66 0,30.74 -24.92,55.66 -55.66,55.66 v 55.66 c 0.09,0 0.17,0 0.26,0 53.54,0 98.25,-37.8 108.91,-88.16 v 125.27 c 74.24,-8.07 132.05,-71.44 132.05,-148.44 0,-77 -57.81,-140.35 -132.05,-148.42 z" class="st0"></path> <polygon style="fill:#ffffff" id="polygon8" points="149.78,353.25 205.44,353.25 205.44,241.92 149.78,241.92 " class="st0"></polygon> <polygon style="fill:#ffffff" id="polygon10" points="" class="st0"></polygon> <polygon style="fill:#ffffff" id="polygon12" points="" class="st0"></polygon> </g> </svg> 