<?xml version="1.0" encoding="UTF-8"?> <svg xmlns="http://www.w3.org/2000/svg" version="1.1" id="Warstwa_1" x="0" y="0" viewBox="0 0 441 441" xml:space="preserve"><style type="text/css" id="style2"></style><path id="rect6" fill="#fff" stroke-width="1.481" d="M0 330.754h110.246V441H0z"></path><path id="rect8" fill="#fff" stroke-width="1.481" d="M330.754 330.754H441V441H330.754z"></path><path d="M385.884 165.377C385.884 74.04 311.844 0 220.507 0 129.171 0 55.131 74.04 55.131 165.377c0 91.336 74.04 165.377 165.376 165.377 91.337 0 165.377-74.04 165.377-165.377zM220.507 222.61c-31.6 0-57.233-25.618-57.233-57.233 0-31.6 25.618-57.233 57.233-57.233 31.616 0 57.234 25.618 57.234 57.233-.015 31.6-25.633 57.233-57.234 57.233z" id="path10" fill="#fff" stroke-width="1.481"></path></svg> 