<?xml version="1.0" encoding="UTF-8" standalone="no"?> <svg xmlns:dc="http://purl.org/dc/elements/1.1/" xmlns:cc="http://creativecommons.org/ns#" xmlns:rdf="http://www.w3.org/1999/02/22-rdf-syntax-ns#" xmlns:svg="http://www.w3.org/2000/svg" xmlns="http://www.w3.org/2000/svg" height="297.5" width="260.31" xml:space="preserve" viewBox="0 0 260.30998 297.49999" y="0px" x="0px" id="Warstwa_1" version="1.1"><metadata id="metadata19"></metadata><defs id="defs17"></defs> <style id="style2" type="text/css"> .st0{fill:none;} .st1{fill:#FFFFFF;} </style> <g transform="translate(-167.01,-148.78)" id="g12"> <path style="fill:none" id="path6" d="m 352.95,260.34 c -20.54,0 -37.19,16.65 -37.19,37.19 0,20.54 16.65,37.19 37.19,37.19 20.54,0 37.19,-16.65 37.19,-37.19 -0.01,-20.53 -16.66,-37.19 -37.19,-37.19 z" class="st0"></path> <path style="fill:#ffffff" id="path8" d="m 278.57,297.53 c 0,82.15 66.6,148.75 148.75,148.75 v -297.5 c -82.15,0 -148.75,66.6 -148.75,148.75 z m 74.38,37.19 c -20.54,0 -37.19,-16.65 -37.19,-37.19 0,-20.54 16.65,-37.19 37.19,-37.19 20.54,0 37.19,16.65 37.19,37.19 -0.01,20.54 -16.66,37.19 -37.19,37.19 z" class="st1"></path> <path style="fill:#ffffff" id="path10" d="m 204.2,260.34 c -20.54,0 -37.19,16.65 -37.19,37.19 0,20.54 16.65,37.19 37.19,37.19 20.54,0 37.19,-16.65 37.19,-37.19 0,-20.54 -16.66,-37.19 -37.19,-37.19 z" class="st1"></path> </g> </svg> 