<?xml version="1.0" encoding="UTF-8" standalone="no"?> <svg xmlns:dc="http://purl.org/dc/elements/1.1/" xmlns:cc="http://creativecommons.org/ns#" xmlns:rdf="http://www.w3.org/1999/02/22-rdf-syntax-ns#" xmlns:svg="http://www.w3.org/2000/svg" xmlns="http://www.w3.org/2000/svg" height="297.01999" width="297.04001" xml:space="preserve" viewBox="0 0 297.03999 297.01997" y="0px" x="0px" id="Warstwa_1" version="1.1"><metadata id="metadata25"></metadata><defs id="defs23"></defs> <style id="style2" type="text/css"> .st0{fill:#FFFFFF;} </style> <g transform="translate(-149.77,-149.09)" id="g18"> <circle style="fill:#ffffff" id="circle6" r="37.130001" cy="223.33" cx="409.67999" class="st0"></circle> <path style="fill:#ffffff" id="path8" d="m 168.34,297.57 c 10.25,0 18.57,-8.31 18.57,-18.56 0,-10.25 -8.31,-18.55 -18.57,-18.55 -10.25,0 -18.57,8.31 -18.57,18.55 0,10.25 8.32,18.56 18.57,18.56 z" class="st0"></path> <path style="fill:#ffffff" id="path10" d="m 279.73,186.18 c 10.24,0 18.54,-8.3 18.54,-18.54 0,-10.24 -8.3,-18.55 -18.54,-18.55 -10.24,0 -18.54,8.3 -18.54,18.55 -0.01,10.24 8.29,18.54 18.54,18.54 z" class="st0"></path> <path style="fill:#ffffff" id="path12" d="M 298.29,297.59 V 446.1 c 82.03,0 148.52,-66.49 148.52,-148.51 z" class="st0"></path> <path style="fill:#ffffff" id="path14" d="m 298.29,297.59 v -92.82 h -92.82 c 0,51.26 41.55,92.82 92.82,92.82 z" class="st0"></path> <path style="fill:#ffffff" id="path16" d="m 149.77,446.11 c 61.52,0 111.39,-49.87 111.39,-111.39 H 149.77 Z" class="st0"></path> </g> </svg> 