<?xml version="1.0" encoding="utf-8"?>
<!-- Generator: Adobe Illustrator 25.0.0, SVG Export Plug-In . SVG Version: 6.00 Build 0)  -->
<svg version="1.1" id="Warstwa_1" xmlns="http://www.w3.org/2000/svg" xmlns:xlink="http://www.w3.org/1999/xlink" x="0px" y="0px"
	 viewBox="0 0 421.2 171.9" style="enable-background:new 0 0 421.2 171.9;" xml:space="preserve">
<style type="text/css">
	.st0{fill:#FFFFFF;}
	.st1{fill:#100C08;}
</style>
<path class="st0" d="M231.4,13.3c0-7.5,5.5-13,13.1-13c5.9,0,10.6,3.4,12.1,8.6h-5c-1.1-2.7-3.8-4.3-7.2-4.3c-4.9,0-8.4,3.6-8.4,8.7
	c0,5.2,3.5,8.8,8.4,8.8c4.1,0,7.3-2.4,7.7-5.8l0-0.2h-8v-3.7h13c0.1,4.2-1.2,7.7-3.5,10.2c-2.3,2.3-5.5,3.6-9.2,3.6
	C236.9,26.2,231.4,20.8,231.4,13.3z M265.9,25.8h-4.6l8.9-25h5.8l8.9,25h-4.8l-1.8-5h-10.7L265.9,25.8z M269,16.8h8.2l-3.8-11h-0.5
	L269,16.8z M295.7,18l3-3.5l6.6,11.3h5.2l-8.8-15l8.5-10h-5.5l-8.6,10.7h-0.5V0.8h-4.5v25h4.5V18z M273.4,75.1
	c0,14.3-8.6,23.1-23.3,23.1h-14.6V52.1h14.6C264.8,52.1,273.4,61.6,273.4,75.1z M266.2,75.1c0-10.7-6.6-16.7-16.2-16.7h-7.4V92h7.4
	C259.5,92,266.2,86.2,266.2,75.1z M297.7,62.9c10.6,0,18.1,7.8,18.1,18.1c0,10.3-7.6,18-18.2,18c-10.6,0-18.2-7.7-18.2-18
	C279.5,70.6,287.1,62.9,297.7,62.9z M297.7,69.2c-6.5,0-11.1,5-11.1,11.8c0,6.8,4.7,11.8,11.1,11.8c6.5,0,11.1-5,11.1-11.8
	C308.8,74.1,304.2,69.2,297.7,69.2z M362.6,62.9c-4.7,0-8.3,1.7-10.6,5.8h-0.5c-2-3.5-5.6-5.8-10.5-5.8c-4.9,0-8.2,2.5-9.7,5.4h-0.5
	v-4.5h-6.7v34.4h6.9V77.9c0-5.1,3.4-8.6,7.8-8.6s7.4,3,7.4,7.8v21h6.9V78.1c0-5.5,3.5-8.8,7.8-8.8c4.5,0,7.2,3,7.2,8.6v20.2h6.9
	V75.6C375.2,68.1,370.2,62.9,362.6,62.9z M240.7,136.2c0-3.3,2.6-6.3,8.3-6.3c5.6,0,8.7,2.9,8.7,7.4h7.2c-0.1-9.6-8-13.8-15.8-13.8
	c-9.7,0-15.4,5.9-15.4,12.8c0,18.6,24.9,9.3,24.9,21.8c0,4.1-3.7,6.6-9.1,6.6c-6.4,0-10.3-3.8-10.3-8.5h-6.9c0,8.9,7.1,15,17,15
	c10.6,0,16.7-6,16.7-13.7C265.9,138.9,240.7,147.3,240.7,136.2z M281.1,164.1l17.9-22.3V136h-26v5.8h17.3v0.5l-17.9,22.2v6h26.9
	v-5.9h-18.2V164.1z M319,126.2h-6.5v7.6c0,1.4-0.9,2.2-2,2.2h-4.5v5.6h6.2v17.8c0,7.2,4.1,10.9,10.9,10.9h5.7v-5.9H324
	c-3.6,0-5-2-5-5.3v-17.6h10V136h-10V126.2z M359.7,156.2c0,5-3.6,8.7-8.4,8.7c-4.3,0-7.7-3.2-7.7-8V136h-6.9v22.1
	c0,7.4,4.8,13.2,12.6,13.2c5.1,0,8.7-2.6,10.1-5.5h0.5v4.6h6.7V136h-6.9V156.2z M405.7,136h-8.6l-13,14.7h-0.4V121h-6.9v49.4h6.9
	V160l5.3-5.9l9.7,16.3h7.8L393.7,149L405.7,136z M416.6,130.6c2.7,0,4.6-1.8,4.6-4.4c0-2.5-1.9-4.3-4.6-4.3c-2.6,0-4.5,1.8-4.5,4.3
	C412,128.8,413.9,130.6,416.6,130.6z M413.1,170.4h6.9V136h-6.9V170.4z M86,76.7V0L0,86v86h86V86h86V0C127.3,0,90.6,33.6,86,76.7z
	 M171.9,171.9V86l-86,86H171.9z"/>
</svg>
