<?xml version="1.0" encoding="UTF-8" standalone="no"?>
<svg
   xmlns:dc="http://purl.org/dc/elements/1.1/"
   xmlns:cc="http://creativecommons.org/ns#"
   xmlns:rdf="http://www.w3.org/1999/02/22-rdf-syntax-ns#"
   xmlns:svg="http://www.w3.org/2000/svg"
   xmlns="http://www.w3.org/2000/svg"
   id="Warstwa_1"
   data-name="Warstwa 1"
   viewBox="0 0 449.13581 78.279766"
   version="1.1"
   width="449.13583"
   height="78.27977">
  <metadata
     id="metadata77">
    <rdf:RDF>
      <cc:Work
         rdf:about="">
        <dc:format>image/svg+xml</dc:format>
        <dc:type
           rdf:resource="http://purl.org/dc/dcmitype/StillImage" />
        <dc:title>RGB_GAK_logo uzupełniające_negatyw</dc:title>
      </cc:Work>
    </rdf:RDF>
  </metadata>
  <defs
     id="defs4">
    <style
       id="style2">.cls-1{fill:#100c08;}.cls-2{fill:#fff;}</style>
  </defs>
  <title
     id="title6">RGB_GAK_logo uzupełniające_negatyw</title>
  <path
     class="cls-2"
     d="m 336.79585,17.910524 c 4.62,0 8.28,-3.11 8.19,-8.8999996 h -8.58 v 2.0999996 h 5.81 c -0.18,2.62 -2.44,4.47 -5.39,4.47 a 6.03,6.03 0 0 1 0,-12.0599996 5.13,5.13 0 0 1 5,3.11 h 2.74 a 7.81,7.81 0 0 0 -7.73,-5.46 8.37,8.37 0 1 0 0,16.7399996 z"
     id="path10" />
  <path
     class="cls-2"
     d="m 352.95585,17.910524 a 4.62,4.62 0 0 0 3.89,-2 h 0.11 v 1.71 h 2.38 V 0.32052437 h -2.38 V 7.3205244 h -0.17 a 4.62,4.62 0 0 0 -3.94,-2.05 c -3.36,0 -5.74,2.63 -5.74,6.3599996 0,3.73 2.4,6.28 5.85,6.28 z m 0.32,-10.4499996 c 2.12,0 3.74,1.52 3.74,4.1299996 0,2.28 -1.41,4.13 -3.72,4.13 -2.31,0 -3.73,-1.62 -3.73,-4.13 0,-2.5099996 1.53,-4.1099996 3.72,-4.1099996 z"
     id="path12" />
  <path
     class="cls-2"
     d="m 367.85585,17.910524 a 4.64,4.64 0 0 0 3.9,-2 h 0.14 v 1.71 h 2.37 V 5.5505244 h -2.42 v 1.75 h -0.16 a 4.63,4.63 0 0 0 -3.94,-2.05 c -3.37,0 -5.75,2.63 -5.75,6.3599996 0,3.73 2.4,6.3 5.86,6.3 z m 0.32,-10.4499996 c 2.13,0 3.74,1.52 3.74,4.1299996 0,2.28 -1.41,4.13 -3.71,4.13 -2.3,0 -3.74,-1.62 -3.74,-4.13 0,-2.5099996 1.49,-4.1099996 3.71,-4.1099996 z"
     id="path14" />
  <path
     class="cls-2"
     d="M 388.21585,17.610524 V 9.8605244 a 4.31,4.31 0 0 0 -4.43,-4.61 3.8,3.8 0 0 0 -3.52,1.91 h -0.17 v -1.61 h -2.35 V 17.610524 h 2.42 v -7 a 2.93,2.93 0 0 1 2.93,-3.0699996 2.66,2.66 0 0 1 2.7,2.8099996 v 7.29 z"
     id="path16" />
  <polygon
     class="cls-2"
     points="455.24,262.11 457.02,262.11 459.09,258.9 456.53,258.9 "
     id="polygon18"
     transform="translate(-73.044153,-258.51948)" />
  <path
     class="cls-2"
     d="m 395.95585,15.920524 c -1.57,0 -2.47,-0.64 -2.63,-1.89 h -2.28 c 0.16,2.33 1.77,3.88 4.84,3.88 3.07,0 4.89,-1.59 4.89,-3.88 0,-5.1099996 -7.15,-2.62 -7.15,-5.2999996 0,-0.9 0.85,-1.54 2.22,-1.54 1.37,0 2.23,0.66 2.37,1.68 h 2.21 c -0.18,-2.31 -2.07,-3.62 -4.49,-3.62 -2.77,0 -4.57,1.5 -4.57,3.53 0,4.9099996 7.06,2.4199996 7.06,5.3699996 -0.04,1.06 -0.92,1.77 -2.47,1.77 z"
     id="path20" />
  <polygon
     class="cls-2"
     points="479.52,269.21 479.38,269.21 479.38,258.83 476.96,258.83 476.96,276.13 479.38,276.13 479.38,272.49 481.25,270.43 484.66,276.13 487.41,276.13 482.91,268.63 487.11,264.07 484.09,264.07 "
     id="polygon22"
     transform="translate(-73.044153,-258.51948)" />
  <path
     class="cls-2"
     d="m 417.86585,3.6605244 a 1.54,1.54 0 1 0 -1.59,-1.55 1.5,1.5 0 0 0 1.59,1.55 z"
     id="path24" />
  <rect
     class="cls-2"
     x="416.64584"
     y="5.5505319"
     width="2.4200001"
     height="12.06"
     id="rect26" />
  <path
     class="cls-2"
     d="m 333.73585,29.140524 -6,16.14 h 2.56 l 1.26,-3.51 h 7.27 l 1.27,3.51 h 2.62 l -6,-16.14 z m -1.36,10.39 2.76,-7.6 h 0.17 l 2.76,7.6 z"
     id="path28" />
  <path
     class="cls-2"
     d="m 347.45585,39.330524 c 0,-2.24 1.17,-3.78 3.22,-3.78 h 1.13 v -2.36 h -1.06 a 3.47,3.47 0 0 0 -3.22,2.12 h -0.17 v -2.09 h -2.32 v 12.06 h 2.42 z"
     id="path30" />
  <path
     class="cls-2"
     d="m 365.22585,41.100524 h -2.47 a 3.36,3.36 0 0 1 -3.29,2.28 4.14,4.14 0 0 1 -0.05,-8.25 3.34,3.34 0 0 1 3.32,2.31 h 2.49 a 5.71,5.71 0 0 0 -5.83,-4.52 6.33,6.33 0 0 0 0,12.66 5.65,5.65 0 0 0 5.83,-4.48 z"
     id="path32" />
  <path
     class="cls-2"
     d="m 375.89585,37.990524 v 7.29 h 2.42 v -7.75 a 4.32,4.32 0 0 0 -4.45,-4.61 3.88,3.88 0 0 0 -3.55,1.91 h -0.16 v -6.85 h -2.4 v 17.3 h 2.42 v -7.15 a 2.92,2.92 0 0 1 3,-2.95 2.69,2.69 0 0 1 2.72,2.81 z"
     id="path34" />
  <rect
     class="cls-2"
     x="381.79584"
     y="33.220516"
     width="2.4200001"
     height="12.06"
     id="rect36" />
  <path
     class="cls-2"
     d="m 383.02585,28.260524 a 1.54,1.54 0 1 0 1.61,1.52 1.51,1.51 0 0 0 -1.61,-1.52 z"
     id="path38" />
  <path
     class="cls-2"
     d="m 387.70585,33.220524 v 17.36 h 2.42 v -7.1 h 0.14 a 4.56,4.56 0 0 0 4,2.06 c 3.34,0 5.72,-2.63 5.72,-6.37 0,-3.74 -2.38,-6.29 -5.86,-6.29 a 4.5,4.5 0 0 0 -3.87,2 h -0.16 v -1.73 z m 6,1.89 c 2.23,0 3.73,1.61 3.73,4.12 0,2.51 -1.5,4.15 -3.69,4.15 -2.19,0 -3.73,-1.54 -3.73,-4.15 0.04,-2.28 1.42,-4.12 3.73,-4.12 z"
     id="path40" />
  <path
     class="cls-2"
     d="m 408.03585,32.920524 c -3.43,0 -6,2.53 -6,6.36 a 5.94,5.94 0 0 0 6.07,6.3 c 3,0 5.12,-1.62 5.74,-4 h -2.35 a 3.77,3.77 0 0 1 -7,-1.61 h 9.46 v -0.9 c 0,-3.39 -2.16,-6.15 -5.92,-6.15 z m -3.55,5.23 a 3.5,3.5 0 0 1 3.55,-3.2 3.34,3.34 0 0 1 3.51,3.2 z"
     id="path42" />
  <path
     class="cls-2"
     d="m 418.75585,42.140524 v -14.16 h -2.42 v 14.3 a 2.68,2.68 0 0 0 2.86,3 h 1 v -2.15 h -0.51 c -0.6,0 -0.93,-0.34 -0.93,-0.99 z"
     id="path44" />
  <path
     class="cls-2"
     d="m 431.87585,34.970524 h -0.16 a 4.63,4.63 0 0 0 -3.94,-2.05 c -3.37,0 -5.74,2.63 -5.74,6.36 0,3.73 2.39,6.3 5.85,6.3 a 4.64,4.64 0 0 0 3.9,-2 h 0.17 v 1.71 h 2.37 v -12.07 h -2.42 z m -3.64,8.41 c -2.22,0 -3.74,-1.61 -3.74,-4.12 0,-2.51 1.52,-4.13 3.72,-4.13 2.2,0 3.73,1.52 3.73,4.13 0.01,2.28 -1.41,4.12 -3.71,4.12 z"
     id="path46" />
  <path
     class="cls-2"
     d="m 446.77585,33.220524 v 1.75 h -0.17 a 4.58,4.58 0 0 0 -4,-2.05 c -3.3,0 -5.72,2.56 -5.72,6.31 0,3.75 2.44,6.3 5.83,6.3 a 4.63,4.63 0 0 0 3.9,-2 h 0.16 v 1.73 c 0,2.26 -1.15,3.62 -3.64,3.62 -1.71,0 -2.88,-0.74 -3.16,-2 h -2.24 c 0.28,2.19 2.17,4 5.4,4 3.85,0 6,-2.24 6,-5.65 v -12 z m -3.65,10.12 c -2.21,0 -3.73,-1.59 -3.73,-4.11 0,-2.52 1.52,-4.1 3.71,-4.1 2.19,0 3.73,1.5 3.73,4.1 0,2.25 -1.4,4.11 -3.71,4.11 z"
     id="path48" />
  <polygon
     class="cls-2"
     points="405.07,322.77 404.93,322.77 404.93,315.32 402.44,315.32 402.44,331.46 404.93,331.46 404.93,326.32 406.96,323.95 411.57,331.46 414.55,331.46 408.62,321.99 414.32,315.32 411.25,315.32 "
     id="polygon50"
     transform="translate(-73.044153,-258.51948)" />
  <path
     class="cls-2"
     d="m 351.29585,67.950524 a 2.9,2.9 0 0 1 -2.93,3 2.64,2.64 0 0 1 -2.69,-2.81 v -7.31 h -2.43 v 7.75 a 4.32,4.32 0 0 0 4.43,4.61 3.81,3.81 0 0 0 3.53,-1.91 h 0.16 v 1.61 h 2.35 v -12.02 h -2.42 z"
     id="path52" />
  <path
     class="cls-2"
     d="m 359.68585,69.790524 v -14.15 h -2.42 v 14.29 a 2.68,2.68 0 0 0 2.86,3 h 1 v -2.14 h -0.5 c -0.61,0 -0.94,-0.31 -0.94,-1 z"
     id="path54" />
  <path
     class="cls-2"
     d="m 367.25585,57.480524 h -2.3 v 2.65 a 0.71,0.71 0 0 1 -0.71,0.78 h -1.59 v 2 h 2.16 v 6.25 a 3.46,3.46 0 0 0 3.81,3.83 h 2 v -2.11 h -1.64 c -1.27,0 -1.75,-0.69 -1.75,-1.85 v -6.18 h 3.5 v -2 h -3.5 z"
     id="path56" />
  <path
     class="cls-2"
     d="m 381.49585,67.950524 a 2.9,2.9 0 0 1 -2.92,3 2.64,2.64 0 0 1 -2.7,-2.81 v -7.31 h -2.42 v 7.75 a 4.31,4.31 0 0 0 4.42,4.61 3.81,3.81 0 0 0 3.53,-1.91 h 0.16 v 1.61 h 2.39 v -12.02 h -2.43 z"
     id="path58" />
  <path
     class="cls-2"
     d="m 389.95585,62.970524 h -0.17 v -2.1 h -2.32 v 12.06 h 2.42 v -5.95 c 0,-2.24 1.17,-3.78 3.22,-3.78 h 1.13 v -2.35 h -1.06 a 3.47,3.47 0 0 0 -3.22,2.12 z"
     id="path60" />
  <path
     class="cls-2"
     d="m 402.01585,70.190524 h -0.16 l -3.34,-9.32 h -2.63 l 4.87,12.61 -0.44,1.15 a 2.06,2.06 0 0 1 -2.12,1.48 h -1.06 v 2.16 h 1.36 a 3.85,3.85 0 0 0 4,-2.9 l 5.46,-14.5 h -2.66 z"
     id="path62" />
  <path
     class="cls-2"
     d="m 40.325847,29.790524 v 15.63 h 14 a 17.11,17.11 0 0 1 -11,9.46 c -0.1,0 -0.91,0.23 -1.22,0.29 a 16,16 0 0 1 -4.62,0.3 17.08,17.08 0 0 1 -14.1,-9.22 18.12,18.12 0 0 1 -2,-9.91 17.19,17.19 0 0 1 3.5,-9 18.75,18.75 0 0 1 6.68,-5.36 c 3.56,-1.77 8.42,-1.69 9,-1.67 0.53,-1.16 8.4,-18.3999996 8.52,-18.6799996 0.06,-0.13 -6.14,-1.92000003 -13.73,-1.59000003 a 37.14,37.14 0 1 0 38.83,39.73999963 36.35,36.35 0 0 0 -0.75,-10 z"
     id="path64" />
  <path
     class="cls-2"
     d="m 290.81585,42.020524 a 16.08,16.08 0 1 0 16.14,16.08 16.08,16.08 0 0 0 -16.14,-16.08 z"
     id="path66" />
  <polygon
     class="cls-2"
     points="188.47,259.76 155.32,331.55 178.94,331.55 200.45,284.97 221.97,331.55 245.58,331.55 212.43,259.76 212.09,259.76 188.82,259.76 "
     id="polygon68"
     transform="translate(-73.044153,-258.51948)" />
  <polygon
     class="cls-2"
     points="309.32,331.55 332.93,331.55 307.9,295.66 332.93,259.76 309.32,259.76 284.29,295.66 "
     id="polygon70"
     transform="translate(-73.044153,-258.51948)" />
  <polygon
     class="cls-2"
     points="262.5,331.55 284.29,331.55 284.29,295.66 284.29,295.38 284.29,259.76 262.5,259.76 "
     id="polygon72"
     transform="translate(-73.044153,-258.51948)" />
</svg>
