<?xml version="1.0" encoding="utf-8"?>
<!-- Generator: Adobe Illustrator 25.0.0, SVG Export Plug-In . SVG Version: 6.00 Build 0)  -->
<svg version="1.1" id="Warstwa_1" xmlns="http://www.w3.org/2000/svg" xmlns:xlink="http://www.w3.org/1999/xlink" x="0px" y="0px"
	 viewBox="0 0 341.8 140.5" style="enable-background:new 0 0 341.8 140.5;" xml:space="preserve">
<style type="text/css">
	.st0{fill:#FFFFFF;}
	.st1{fill:#100C08;}
</style>
<path class="st1" d="M205,10.2c0.1,3.5-0.9,6.3-2.9,8.3c-1.9,1.9-4.5,2.9-7.5,2.9c-6.2,0-10.7-4.5-10.7-10.6
	c0-6.1,4.5-10.6,10.7-10.6c4.8,0,8.7,2.8,9.9,7h-4c-0.9-2.2-3.1-3.5-5.8-3.5c-4,0-6.9,2.9-6.9,7.1c0,4.2,2.8,7.2,6.9,7.2
	c3.3,0,6-2,6.3-4.7l0-0.1h-6.6v-3H205z M213.6,17l-1.4,4.1h-3.8l7.3-20.4h4.7l7.3,20.4h-3.9l-1.4-4.1H213.6z M214.6,13.7h6.7l-3.1-9
	h-0.4L214.6,13.7z M244.4,21.1h4.3l-7.2-12.2l0.1-0.1l6.9-8.1h-4.5l-7.1,8.7h-0.4V0.7h-3.7v20.4h3.7v-6.4l2.5-2.9L244.4,21.1z
	 M204.6,80.9c10.8,0,19.3-7.3,19.1-20.8h-20v4.9h13.6c-0.4,6.1-5.7,10.4-12.6,10.4c-8.1,0-13.6-6-13.6-14.1c0-8,5.4-14,13.6-14
	c5.8,0,9.8,3,11.6,7.3h6.4c-2.3-7.3-8.9-12.7-18-12.7c-11.4,0-19.6,8.4-19.6,19.5C185,72.6,193.2,80.9,204.6,80.9z M242.3,80.9
	c5.6,0,8.3-3.6,9.1-4.7h0.3v4h5.5V52.1h-5.6v4.1h-0.4c-0.9-1.5-3.8-4.8-9.2-4.8c-7.9,0-13.4,6.1-13.4,14.8
	C228.6,75,234.2,80.9,242.3,80.9z M243.1,75.8c-5.2,0-8.7-3.8-8.7-9.6c0-5.6,3.6-9.6,8.7-9.6c4.9,0,8.7,3.6,8.7,9.6
	C251.7,71.5,248.5,75.8,243.1,75.8z M265.3,80.2h5.6V63.7c0-4.1,2.8-7,6.3-7s6.1,2.5,6.1,6.4v17.2h5.6V63.8c0-4.5,2.9-7.2,6.4-7.2
	c3.7,0,5.9,2.5,5.9,7v16.5h5.6V61.8c0-6.1-4.1-10.4-10.3-10.4c-3.8,0-6.8,1.4-8.7,4.7h-0.4c-1.6-2.9-4.6-4.7-8.6-4.7
	c-4,0-6.7,2-7.9,4.4h-0.4v-3.7h-5.5V80.2z M326.8,80.9c5.6,0,8.3-3.6,9.1-4.7h0.3v4h5.5V52.1h-5.6v4.1h-0.4
	c-0.9-1.5-3.8-4.8-9.2-4.8c-7.9,0-13.4,6.1-13.4,14.8C313.2,75,318.8,80.9,326.8,80.9z M327.6,75.8c-5.2,0-8.7-3.8-8.7-9.6
	c0-5.6,3.5-9.6,8.7-9.6c4.9,0,8.7,3.6,8.7,9.6C336.3,71.5,333,75.8,327.6,75.8z M105.4,70.3C86,70.3,70.3,86,70.3,105.4H0
	c0,19.4,15.8,35.1,35.3,35.1c18.3,0,33.3-13.8,35.1-31.5c1.8,17.7,16.8,31.5,34.9,31.5c19.4,0,35.1-15.7,35.1-35.1
	S124.8,70.3,105.4,70.3z M35.1,70.3c19.4,0,35.1-15.7,35.1-35.1h70.3c0-19.4-15.8-35.1-35.3-35.1C86.9,0,71.9,13.8,70.1,31.5
	C68.3,13.8,53.3,0,35.1,0C15.7,0,0,15.7,0,35.1S15.7,70.3,35.1,70.3z"/>
</svg>
