<?xml version="1.0" encoding="utf-8"?>
<!-- Generator: Adobe Illustrator 25.0.0, SVG Export Plug-In . SVG Version: 6.00 Build 0)  -->
<svg version="1.1" id="Warstwa_1" xmlns="http://www.w3.org/2000/svg" xmlns:xlink="http://www.w3.org/1999/xlink" x="0px" y="0px"
	 viewBox="0 0 456.4 137.2" style="enable-background:new 0 0 456.4 137.2;" xml:space="preserve">
<style type="text/css">
	.st0{fill:#FFFFFF;}
	.st1{fill:#100C08;}
</style>
<path class="st1" d="M205.3,10c0.1,3.4-0.9,6.2-2.8,8.1c-1.8,1.9-4.4,2.8-7.3,2.8c-6.1,0-10.5-4.3-10.5-10.3s4.4-10.3,10.4-10.3
	c4.7,0,8.5,2.7,9.7,6.9h-4c-0.9-2.2-3-3.5-5.7-3.5c-3.9,0-6.7,2.9-6.7,6.9c0,4.1,2.8,7,6.7,7c3.3,0,5.9-1.9,6.2-4.6l0-0.1h-6.4V10
	H205.3z M213.6,16.6l-1.4,4h-3.7l7.1-19.9h4.6l7.1,19.9h-3.8l-1.4-4H213.6z M214.7,13.4h6.5l-3.1-8.8h-0.4L214.7,13.4z M243.8,20.6
	h4.2l-7-11.9l6.8-8h-4.4l-6.9,8.5H236V0.6h-3.6v19.9h3.6v-6.2l2.4-2.8L243.8,20.6z M204.9,79c10.5,0,18.9-7.1,18.6-20.3H204v4.8
	h13.2c-0.4,6-5.6,10.2-12.3,10.2c-7.9,0-13.3-5.8-13.3-13.8c0-7.8,5.3-13.7,13.2-13.7c5.6,0,9.6,2.9,11.3,7.1h6.2
	c-2.2-7.1-8.7-12.4-17.6-12.4c-11.1,0-19.1,8.2-19.1,19.1C185.7,70.9,193.8,79,204.9,79z M241.7,79c5.5,0,8.1-3.5,8.9-4.6h0.3v3.9
	h5.4V39h-5.5v15.9h-0.4c-0.9-1.4-3.7-4.7-9-4.7c-7.7,0-13.1,6-13.1,14.5S233.8,79,241.7,79z M242.5,74c-5,0-8.5-3.7-8.5-9.4
	c0-5.5,3.5-9.4,8.5-9.4c4.8,0,8.5,3.5,8.5,9.4C250.9,69.8,247.7,74,242.5,74z M275.6,79c5.5,0,8.1-3.5,8.9-4.6h0.3v3.9h5.4V50.9
	h-5.5v4h-0.4c-0.9-1.4-3.7-4.7-9-4.7c-7.7,0-13.1,6-13.1,14.5S267.7,79,275.6,79z M276.4,74c-5,0-8.5-3.7-8.5-9.4
	c0-5.5,3.5-9.4,8.5-9.4c4.8,0,8.5,3.5,8.5,9.4C284.9,69.8,281.6,74,276.4,74z M298.1,78.3h5.5v-16c0-4,2.8-7,6.7-7
	c3.5,0,6.1,2.6,6.1,6.4v16.6h5.5V60.7c0-5.9-3.8-10.5-10.1-10.5c-4.1,0-6.9,2.1-8,4.4h-0.4v-3.7h-5.4V78.3z M308.3,46.4h4l4.7-7.3
	h-5.8L308.3,46.4z M339.4,79c6.9,0,11.1-3.6,11.1-8.8c0-11.7-16.3-6-16.3-12.1c0-2,1.9-3.5,5-3.5c3.3,0,5.1,1.5,5.4,3.8h5
	c-0.4-5.3-4.7-8.2-10.2-8.2c-6.3,0-10.4,3.4-10.4,8c0,11.2,16.1,5.5,16.1,12.2c0,2.4-2,4-5.6,4c-3.6,0-5.6-1.5-6-4.3h-5.2
	C328.7,75.5,332.4,79,339.4,79z M380.9,78.3l-10.2-17.1l9.6-10.4h-6.9l-10.4,11.7h-0.3V39h-5.5v39.4h5.5V70l4.3-4.7l7.8,13H380.9z
	 M389.5,46.6c2.2,0,3.7-1.4,3.7-3.5c0-2-1.5-3.5-3.7-3.5c-2.1,0-3.6,1.5-3.6,3.5C385.9,45.2,387.4,46.6,389.5,46.6z M386.7,78.3h5.5
	V50.9h-5.5V78.3z M412.1,79c6.8,0,11.7-3.7,13.1-9h-5.4c-1.1,2.7-4.1,4.4-7.6,4.4c-5,0-8.2-3.3-8.5-8h21.6v-2
	c0-7.8-4.9-14.1-13.4-14.1c-7.8,0-13.7,5.8-13.7,14.5C398.2,72.9,403.8,79,412.1,79z M403.9,62.1c0.4-4.3,3.9-7.3,8.1-7.3
	c4.3,0,7.6,2.7,8,7.3H403.9z M188,136h21v-5h-15.3V99.2H188V136z M227.2,136.7c8.4,0,14.5-6.2,14.5-14.4s-6-14.4-14.4-14.4
	s-14.5,6.2-14.5,14.4S218.7,136.7,227.2,136.7z M227.2,131.7c-5.1,0-8.9-3.9-8.9-9.4c0-5.4,3.7-9.4,8.9-9.4s8.9,3.9,8.9,9.4
	C236.1,127.7,232.4,131.7,227.2,131.7z M259.7,136.7c5.5,0,8.1-3.5,8.9-4.6h0.3v3.9h5.4V96.6h-5.5v15.9h-0.4c-0.9-1.4-3.7-4.7-9-4.7
	c-7.7,0-13.1,6-13.1,14.5S251.9,136.7,259.7,136.7z M260.5,131.7c-5,0-8.5-3.7-8.5-9.4c0-5.5,3.5-9.4,8.5-9.4c4.8,0,8.5,3.5,8.5,9.4
	C269,127.5,265.8,131.7,260.5,131.7z M294.8,136.7c8.4,0,14.5-6.2,14.5-14.4s-6-14.4-14.4-14.4c-8.5,0-14.5,6.2-14.5,14.4
	S286.4,136.7,294.8,136.7z M294.8,131.7c-5.1,0-8.9-3.9-8.9-9.4c0-5.4,3.7-9.4,8.9-9.4s8.9,3.9,8.9,9.4
	C303.7,127.7,300,131.7,294.8,131.7z M320.3,136h6.6l6.5-20.4h0.3L340,136h6.6l8.1-27.5h-5.9l-5.6,21h-0.4l-6.5-21h-5.8l-6.6,21
	h-0.4l-5.6-21h-5.8L320.3,136z M363.3,104.2c2.2,0,3.7-1.4,3.7-3.5c0-2-1.5-3.5-3.7-3.5c-2.1,0-3.6,1.5-3.6,3.5
	C359.7,102.8,361.2,104.2,363.3,104.2z M360.5,136h5.5v-27.5h-5.5V136z M383.4,136.7c6.9,0,11.1-3.6,11.1-8.8
	c0-11.7-16.3-6-16.3-12.1c0-2,1.9-3.5,5-3.5c3.3,0,5.1,1.5,5.4,3.8h5c-0.4-5.3-4.7-8.2-10.2-8.2c-6.3,0-10.4,3.4-10.4,8
	c0,11.2,16.1,5.5,16.1,12.2c0,2.4-2,4-5.6,4c-3.6,0-5.6-1.5-6-4.3h-5.2C372.8,133.2,376.5,136.7,383.4,136.7z M425.6,136l-10.2-17.1
	l9.6-10.4H418l-10.4,11.7h-0.3V96.6h-5.5V136h5.5v-8.3l4.3-4.7l7.8,13H425.6z M441.9,136.7c8.4,0,14.5-6.2,14.5-14.4
	s-6-14.4-14.4-14.4c-8.5,0-14.5,6.2-14.5,14.4S433.4,136.7,441.9,136.7z M441.9,131.7c-5.1,0-8.9-3.9-8.9-9.4c0-5.4,3.7-9.4,8.9-9.4
	c5.2,0,8.9,3.9,8.9,9.4C450.8,127.7,447.1,131.7,441.9,131.7z M94.3,34.3c9.5,0,17.2-7.7,17.2-17.2S103.8,0,94.3,0
	c-9.5,0-17.2,7.7-17.2,17.2S84.9,34.3,94.3,34.3z M51.5,51.5V0H0c0,27.8,21.2,50.4,48.7,51.5C25.9,52.5,8.6,71.3,8.6,94.3
	c0,23.7,19.2,42.9,42.9,42.9V54.4C53,76.7,71.6,94.3,94.3,94.3c23.7,0,42.9-19.2,42.9-42.9H51.5z"/>
</svg>
