<?xml version="1.0" encoding="UTF-8" standalone="no"?>
<svg
   xmlns:dc="http://purl.org/dc/elements/1.1/"
   xmlns:cc="http://creativecommons.org/ns#"
   xmlns:rdf="http://www.w3.org/1999/02/22-rdf-syntax-ns#"
   xmlns:svg="http://www.w3.org/2000/svg"
   xmlns="http://www.w3.org/2000/svg"
   xmlns:sodipodi="http://sodipodi.sourceforge.net/DTD/sodipodi-0.dtd"
   xmlns:inkscape="http://www.inkscape.org/namespaces/inkscape"
   version="1.1"
   id="Warstwa_1"
   x="0px"
   y="0px"
   viewBox="0 0 557.40004 171.93802"
   xml:space="preserve"
   sodipodi:docname="full_logo-mobilny-full-logo.svg"
   width="557.40002"
   height="171.93802"
   inkscape:version="1.0.1 (3bc2e813f5, 2020-09-07)"><metadata
   id="metadata57"><rdf:RDF><cc:Work
       rdf:about=""><dc:format>image/svg+xml</dc:format><dc:type
         rdf:resource="http://purl.org/dc/dcmitype/StillImage" /><dc:title></dc:title></cc:Work></rdf:RDF></metadata><defs
   id="defs55" /><sodipodi:namedview
   pagecolor="#ffffff"
   bordercolor="#666666"
   borderopacity="1"
   objecttolerance="10"
   gridtolerance="10"
   guidetolerance="10"
   inkscape:pageopacity="0"
   inkscape:pageshadow="2"
   inkscape:window-width="1920"
   inkscape:window-height="1137"
   id="namedview53"
   showgrid="false"
   fit-margin-top="0"
   fit-margin-left="0"
   fit-margin-right="0"
   fit-margin-bottom="0"
   inkscape:zoom="2.1787335"
   inkscape:cx="399.1162"
   inkscape:cy="85.949997"
   inkscape:window-x="1912"
   inkscape:window-y="-8"
   inkscape:window-maximized="1"
   inkscape:current-layer="Warstwa_1" />
<style
   type="text/css"
   id="style2">
	.st0{fill:#FFFFFF;}
</style>
<path
   class="st0"
   d="m 239.1,9.2 c -6.5,0 -11.3,4.7 -11.3,11.2 0,6.5 4.8,11.2 11.3,11.2 3.2,0 6,-1.1 7.9,-3.1 2.1,-2.1 3.1,-5.2 3.1,-8.8 h -11.3 v 3.2 h 6.9 v 0.2 c -0.3,2.9 -3.1,5 -6.6,5 -4.3,0 -7.3,-3.1 -7.3,-7.6 0,-4.4 3,-7.5 7.2,-7.5 2.9,0 5.2,1.4 6.2,3.7 h 4.3 c -1.2,-4.6 -5.3,-7.5 -10.4,-7.5"
   id="path4" />
<path
   class="st0"
   d="m 268.4,26.8 1.5,4.3 H 274 L 266.3,9.6 h -5 l -7.7,21.5 h 4 l 1.5,-4.3 z m -4.8,-12.9 h 0.4 l 3.3,9.5 h -7.1 z"
   id="path6" />
<polygon
   class="st0"
   points="296.2,31.1 288.6,18.2 296,9.6 291.2,9.6 283.8,18.8 283.4,18.8 283.4,9.6 279.5,9.6 279.5,31.1 283.4,31.1 283.4,24.4 286,21.3 286.1,21.5 291.7,31.1 "
   id="polygon8" />
<g
   id="g46">
	<polygon
   class="st0"
   points="262.9,57.6 249.1,91.2 234.2,57.6 228.6,57.6 228.6,97.2 233.7,97.2 233.7,69.1 246.2,96.9 246.3,97.2 252,97.2 263.4,69.2 263.4,97.2 268.6,97.2 268.6,57.6 "
   id="polygon10" />
	<path
   class="st0"
   d="m 291.5,66.8 c -8.8,0 -15.5,6.7 -15.5,15.5 0,9 6.5,15.5 15.4,15.5 8.8,0 15.5,-6.7 15.5,-15.5 0,-8.8 -6.6,-15.5 -15.4,-15.5 z m 10.1,15.6 c 0,6.2 -4.3,10.7 -10.2,10.7 -6,0 -10.1,-4.4 -10.1,-10.7 0,-6.2 4.3,-10.7 10.1,-10.7 6,-0.1 10.2,4.5 10.2,10.7 z"
   id="path12" />
	<path
   class="st0"
   d="m 318.9,93.1 c 2.4,3.1 5.9,4.9 9.9,4.9 8.7,0 14.8,-6.4 14.8,-15.5 0,-9 -6.1,-15.6 -14.4,-15.6 -5.8,0 -8.9,3.4 -10.1,4.9 v -17 h -5.2 v 42.4 h 5 z m 9.8,-21.5 c 5.7,0 9.6,4.4 9.6,10.8 0,6.5 -3.8,10.7 -9.7,10.7 -5.7,0 -9.6,-4.4 -9.6,-10.7 -0.1,-6.4 3.8,-10.8 9.7,-10.8 z"
   id="path14" />
	<rect
   x="350.5"
   y="67.5"
   class="st0"
   width="5.1999998"
   height="29.700001"
   id="rect16" />
	<path
   class="st0"
   d="m 353.2,56 c -2,0 -3.6,1.5 -3.6,3.6 0,2.1 1.5,3.6 3.6,3.6 2.1,0 3.6,-1.6 3.6,-3.6 0,-2.1 -1.5,-3.6 -3.6,-3.6 z"
   id="path18" />
	<path
   class="st0"
   d="m 373,92.5 h -1.7 c -1.1,0 -1.7,-0.6 -1.7,-1.9 V 54.8 h -5.2 v 35.8 c 0,4.1 2.3,6.6 6.1,6.6 h 2.5 z"
   id="path20" />
	<path
   class="st0"
   d="M 405.6,97.2 V 78.7 c 0,-7 -4.6,-11.8 -11.2,-11.8 -4.4,0 -7.3,2.2 -8.7,4.3 v -3.6 h -5.2 v 29.7 h 5.2 V 79.6 c 0,-4.5 3.3,-7.8 7.7,-7.8 4.1,0 7,3 7,7.2 v 18.3 z"
   id="path22" />
	<path
   class="st0"
   d="m 421.2,101.7 c -0.9,2.4 -2.4,3.4 -5,3.4 h -2.6 v 4.8 h 3.4 c 4.5,0 7.2,-1.9 8.9,-6.4 l 14,-36 h -5.8 l -8.9,24.1 -8.7,-23.8 -0.1,-0.3 h -5.8 l 11.9,30.8 z"
   id="path24" />
	<path
   class="st0"
   d="m 240.5,119 h -11.9 v 39.6 h 11.9 c 12.4,0 19.9,-7.4 19.9,-19.8 0,-12 -7.8,-19.8 -19.9,-19.8 z m 0,34.8 h -6.6 v -29.9 h 6.6 c 8.9,0 14.4,5.7 14.4,14.9 0.1,9.4 -5.3,15 -14.4,15 z"
   id="path26" />
	<path
   class="st0"
   d="m 280.6,128.2 c -8.8,0 -15.5,6.7 -15.5,15.5 0,9 6.5,15.6 15.4,15.6 8.8,0 15.5,-6.7 15.5,-15.6 0,-8.8 -6.6,-15.5 -15.4,-15.5 z m 10.1,15.6 c 0,6.2 -4.3,10.7 -10.2,10.7 -6,0 -10.1,-4.4 -10.1,-10.7 0,-6.2 4.3,-10.7 10.1,-10.7 5.9,0 10.2,4.5 10.2,10.7 z"
   id="path28" />
	<path
   class="st0"
   d="m 335.2,128.2 c -4.3,0 -7.4,1.7 -9.3,5.2 -1.8,-3.3 -5.2,-5.2 -9.3,-5.2 -3.6,0 -6.6,1.6 -8.3,4.3 V 129 H 303 v 29.7 h 5.2 v -17.8 c 0,-4.4 3,-7.7 7.1,-7.7 4,0 6.7,2.8 6.7,7 v 18.5 h 5.2 V 141 c 0,-5.4 3.6,-7.8 7.2,-7.8 4.2,0 6.6,2.8 6.6,7.8 v 17.7 h 5.2 v -19.1 c 0,-6.7 -4.6,-11.4 -11,-11.4 z"
   id="path30" />
	<polygon
   class="st0"
   points="376.1,138.2 376.1,119 370.8,119 370.8,158.6 376.1,158.6 376.1,145.7 381,140 393.1,158.6 399.6,158.6 384.6,135.8 399.1,119 392.4,119 "
   id="polygon32" />
	<path
   class="st0"
   d="m 423.9,146.7 c 0,4.5 -3.3,7.8 -7.7,7.8 -4.1,0 -7,-3 -7,-7.2 V 129 H 404 v 18.5 c 0,7 4.6,11.8 11.2,11.8 4.4,0 7.3,-2.2 8.7,-4.3 v 3.6 h 5.2 V 129 h -5.2 z"
   id="path34" />
	<path
   class="st0"
   d="m 442.9,152 v -35.8 h -5.2 V 152 c 0,4.1 2.3,6.6 6.1,6.6 h 2.5 v -4.7 h -1.7 c -1.2,0 -1.7,-0.6 -1.7,-1.9 z"
   id="path36" />
	<path
   class="st0"
   d="m 460.6,120.6 h -4.9 v 7.3 c 0,0.7 -0.4,1 -1,1 H 450 v 4.5 h 5.4 v 16 c 0,5.8 3.3,9.1 9,9.1 h 4.7 V 154 h -4.4 c -2.9,0 -4.1,-1.4 -4.1,-4.5 v -15.9 h 8.9 V 129 h -8.9 z"
   id="path38" />
	<path
   class="st0"
   d="m 495.7,146.7 c 0,4.5 -3.3,7.8 -7.7,7.8 -4.1,0 -7,-3 -7,-7.2 V 129 h -5.2 v 18.5 c 0,7 4.6,11.8 11.2,11.8 4.4,0 7.3,-2.2 8.7,-4.3 v 3.6 h 5.2 V 129 h -5.2 z"
   id="path40" />
	<path
   class="st0"
   d="M 514.7,133.5 V 129 h -5.2 v 29.7 h 5.2 v -15.3 c 0,-5.6 3.1,-9.2 7.8,-9.2 h 2.8 V 129 h -2.9 c -3.6,0 -6.4,2.1 -7.7,4.5 z"
   id="path42" />
	<path
   class="st0"
   d="m 551.6,129 -8.9,24.1 -8.7,-23.8 -0.1,-0.3 h -5.8 l 11.9,30.8 -1.3,3.3 c -0.9,2.4 -2.4,3.4 -5,3.4 h -2.6 v 4.8 h 3.4 c 4.5,0 7.2,-1.9 8.9,-6.4 l 14,-36 z"
   id="path44" />
</g>
<path
   class="st0"
   d="m 165,126.1 c 12.8,-31.2 3.3,-67.1 -21.1,-90 l -25.1,24.2 c 14.5,12.5 20.3,33 13.1,50.8 -8.9,21.8 -34.2,31.2 -56.6,21 -6.9,-3.2 -12.7,-7.8 -17.2,-13.4 l -25.2,24.2 c 7.8,8.9 17.6,16.4 29,21.6 40.7,18.5 86.8,1.3 103.1,-38.4"
   id="path48" />
<polygon
   class="st0"
   points="28.3,87.7 29.8,89.3 58.1,118.7 118.8,60.3 56.4,62.1 60.6,0 0,58.3 "
   id="polygon50" />
</svg>
