<?xml version="1.0" encoding="UTF-8" standalone="no"?>
<svg
   xmlns:dc="http://purl.org/dc/elements/1.1/"
   xmlns:cc="http://creativecommons.org/ns#"
   xmlns:rdf="http://www.w3.org/1999/02/22-rdf-syntax-ns#"
   xmlns:svg="http://www.w3.org/2000/svg"
   xmlns="http://www.w3.org/2000/svg"
   id="Warstwa_1"
   data-name="Warstwa 1"
   viewBox="0 0 420.51997 174.01895"
   version="1.1"
   width="420.51999"
   height="174.01897"
   style="
">
  <metadata
     id="metadata33">
    <rdf:RDF>
      <cc:Work
         rdf:about="">
        <dc:format>image/svg+xml</dc:format>
        <dc:type
           rdf:resource="http://purl.org/dc/dcmitype/StillImage" />
        <dc:title>RGB_plama_logo podstawowe_negatyw</dc:title>
      </cc:Work>
    </rdf:RDF>
  </metadata>
  <defs
     id="defs4">
    <style
       id="style2">.cls-1{fill:#100c08;}.cls-2{fill:#fff;}</style>
  </defs>
  <title
     id="title6">RGB_plama_logo podstawowe_negatyw</title>
  <path
     class="cls-2"
     d="m 232.62,12.568966 v 3.7 h 8.14 v 0.18 c -0.38,3.39 -3.67,5.85 -7.81,5.85 -5,0 -8.54,-3.66 -8.54,-8.9 0,-5.2399995 3.5,-8.7999995 8.5,-8.7999995 3.4,0 6.1,1.64 7.25,4.39 h 5 c -1.52,-5.3 -6.31,-8.71000001 -12.26,-8.71000001 -7.66,0 -13.22,5.52000001 -13.22,13.11999951 0,7.6 5.58,13.11 13.26,13.11 a 12.65,12.65 0 0 0 9.31,-3.6 c 2.42,-2.49 3.66,-6.06 3.59,-10.34 z"
     id="path10"
     style="fill:#000000" />
  <path
     class="cls-2"
     d="m 267.29,20.988966 1.8,5 h 4.81 l -9,-25.27999951 h -5.88 l -9,25.27999951 h 4.6 l 1.76,-5 z M 261.62,5.8489665 h 0.53 l 3.88,11.1099995 h -8.29 z"
     id="path12"
     style="fill:#000000" />
  <polygon
     class="cls-2"
     points="381.4,211.42 372.66,222.21 372.2,222.21 372.2,211.42 367.66,211.42 367.66,236.7 372.2,236.7 372.2,228.79 372.24,228.74 375.28,225.21 382,236.7 387.3,236.7 378.38,221.55 378.46,221.47 387.01,211.42 "
     id="polygon14"
     transform="translate(-87.38,-210.66103)"
     style="fill:#000000" />
  <path
     class="cls-2"
     d="m 223.88,52.688966 h 17.2 c 8.72,0 14.92,5.8 14.92,14.53 0,8.73 -6.46,14.72 -14.92,14.72 h -10 v 17.4 h -7.2 z m 16.53,23.06 c 5,0 8.33,-3.6 8.33,-8.53 a 7.94,7.94 0 0 0 -8.33,-8.33 h -9.33 v 16.86 z"
     id="path16"
     style="fill:#000000" />
  <path
     class="cls-2"
     d="m 263.86,90.668966 v -41.33 h 7 v 40.91 c 0,1.87 0.93,2.87 2.67,2.87 h 1.46 v 6.22 h -2.86 c -5.27,0 -8.27,-3.2 -8.27,-8.67 z"
     id="path18"
     style="fill:#000000" />
  <path
     class="cls-2"
     d="m 280.32,82.008966 c 0,-10.79 6.87,-18.39 16.6,-18.39 a 13.36,13.36 0 0 1 11.39,5.93 h 0.47 v -5.06 h 7 v 34.85 h -6.86 v -4.93 h -0.4 a 13.37,13.37 0 0 1 -11.26,5.800014 c -10.01,-0.01 -16.94,-7.410014 -16.94,-18.200014 z m 28.66,-0.07 c 0,-7.53 -4.67,-11.92 -10.8,-11.92 -6.33,0 -10.73,4.93 -10.73,11.92 0,7.27 4.4,11.93 10.8,11.93 6.66,0 10.73,-5.33 10.73,-11.93 z"
     id="path20"
     style="fill:#000000" />
  <path
     class="cls-2"
     d="m 325.83,64.488966 h 6.79 v 4.59 h 0.47 c 1.53,-2.93 4.79,-5.46 9.79,-5.46 a 11.69,11.69 0 0 1 10.66,5.86 h 0.47 c 2.33,-4.13 6,-5.86 10.73,-5.86 7.66,0 12.72,5.33 12.72,12.86 v 22.86 h -7 v -20.46 c 0,-5.67 -2.73,-8.73 -7.33,-8.73 -4.4,0 -7.93,3.26 -7.93,8.86 v 20.33 h -7 v -21.26 c 0,-4.87 -3.13,-7.93 -7.53,-7.93 -4.4,0 -7.86,3.53 -7.86,8.66 v 20.53 h -7 z"
     id="path22"
     style="fill:#000000" />
  <path
     class="cls-2"
     d="m 385.07,82.008966 c 0,-10.79 6.86,-18.39 16.59,-18.39 a 13.4,13.4 0 0 1 11.4,5.93 h 0.46 v -5.06 h 7 v 34.85 h -6.9 v -4.93 h -0.4 a 13.41,13.41 0 0 1 -11.27,5.800014 c -9.95,-0.01 -16.88,-7.410014 -16.88,-18.200014 z m 28.65,-0.07 c 0,-7.53 -4.66,-11.92 -10.79,-11.92 -6.33,0 -10.73,4.93 -10.73,11.92 0,7.27 4.4,11.93 10.79,11.93 6.63,0 10.73,-5.33 10.73,-11.93 z"
     id="path24"
     style="fill:#000000" />
  <path
     class="cls-2"
     d="m 130.55,86.978966 c -1.27,0 -2.53,0.06 -3.77,0.16 A 65.25,65.25 0 1 0 87.2,126.71898 c -0.11,1.24 -0.17,2.5 -0.17,3.78 a 43.52,43.52 0 1 0 43.52,-43.520014 z"
     id="path26"
     style="fill:#000000" />
  <polygon
     class="cls-2"
     points="87.38,362.93 109.14,384.68 130.9,362.92 109.14,341.16 "
     id="polygon28"
     transform="translate(-87.38,-210.66103)"
     style="fill:#000000" />
</svg>
