<?xml version="1.0" encoding="utf-8"?>
<!-- Generator: Adobe Illustrator 25.0.0, SVG Export Plug-In . SVG Version: 6.00 Build 0)  -->
<svg version="1.1" id="Warstwa_1" xmlns="http://www.w3.org/2000/svg" xmlns:xlink="http://www.w3.org/1999/xlink" x="0px" y="0px"
	 viewBox="0 0 466.3 128" style="enable-background:new 0 0 466.3 128;" xml:space="preserve">
<style type="text/css">
	.st0{fill:#FFFFFF;}
	.st1{fill:#100C08;}
</style>
<g>
	<g>
		<g>
			<path class="st0" d="M183,9.3V12h6l0,0.1c-0.3,2.5-2.7,4.3-5.7,4.3c-3.7,0-6.3-2.7-6.3-6.5c0-3.8,2.6-6.5,6.3-6.5
				c2.5,0,4.5,1.2,5.3,3.2h3.7c-1.1-3.9-4.6-6.4-9-6.4c-5.6,0-9.7,4.1-9.7,9.6c0,5.6,4.1,9.6,9.7,9.6c2.8,0,5.1-0.9,6.8-2.7
				c1.8-1.8,2.7-4.5,2.6-7.6H183z"/>
			<path class="st0" d="M208.5,15.5l1.3,3.7h3.5l-6.6-18.6h-4.3l-6.6,18.6h3.4l1.3-3.7H208.5z M204.3,4.3h0.4l2.9,8.2h-6.1
				L204.3,4.3z"/>
			<polygon class="st0" points="228.6,19.2 232.5,19.2 225.9,8.1 226,8 232.2,0.6 228.1,0.6 221.7,8.5 221.4,8.5 221.4,0.6 218,0.6 
				218,19.2 221.4,19.2 221.4,13.4 221.4,13.3 223.6,10.7 			"/>
		</g>
		<path class="st0" d="M176.6,38.8h12.6c6.4,0,11,4.3,11,10.7c0,6.4-4.8,10.8-11,10.8h-7.3v12.8h-5.3V38.8z M188.7,55.7
			c3.7,0,6.1-2.6,6.1-6.3c0-3.6-2.4-6.1-6.1-6.1h-6.9v12.4H188.7z"/>
		<path class="st0" d="M205.9,47.5h4.9v4.5h0.3c0.8-2.1,3.2-4.5,6.9-4.5h2.3v5H218c-4.4,0-6.9,3.3-6.9,8v12.6h-5.1V47.5z"/>
		<path class="st0" d="M223.5,60.3c0-7.7,5.7-13.5,13.6-13.5s13.5,5.8,13.5,13.5c0,7.6-5.7,13.4-13.5,13.4
			C229.2,73.7,223.5,68,223.5,60.3z M245.3,60.3c0-5.1-3.4-8.8-8.3-8.8s-8.3,3.7-8.3,8.8c0,5.1,3.5,8.8,8.3,8.8
			C241.9,69.1,245.3,65.3,245.3,60.3z"/>
		<path class="st0" d="M250.6,79.7h1.8c2.8,0,4.4-1.8,4.4-4.4V47.5h5.1v28c0,5.6-3.7,8.9-9.1,8.9h-2.3V79.7z M256,40.2
			c0-1.9,1.4-3.2,3.4-3.2c2,0,3.4,1.4,3.4,3.2c0,2-1.4,3.3-3.4,3.3C257.4,43.4,256,42.1,256,40.2z"/>
		<path class="st0" d="M268.3,60.3c0-8.1,5.5-13.5,12.8-13.5c8,0,12.5,5.9,12.5,13.2v1.9h-20.2c0.2,4.5,3.2,7.5,7.9,7.5
			c3.2,0,6-1.6,7.1-4.1h5c-1.3,4.9-5.9,8.4-12.2,8.4C273.5,73.7,268.3,68,268.3,60.3z M288.5,57.9c-0.3-4.3-3.5-6.8-7.4-6.8
			c-3.9,0-7.2,2.8-7.5,6.8H288.5z"/>
		<path class="st0" d="M316.2,73.1L308.9,61l-4,4.4v7.7h-5.1V36.3h5.1v22h0.3l9.7-10.9h6.4l-8.9,9.7l9.6,15.9H316.2z"/>
		<path class="st0" d="M329.4,64.9V51.7h-4.6v-4.2h3.4c0.9,0,1.5-0.6,1.5-1.7v-5.6h4.9v7.3h7.4v4.2h-7.4v13.1c0,2.4,1,3.9,3.7,3.9
			h3.5v4.4h-4.3C332.4,73.1,329.4,70.3,329.4,64.9z"/>
		<path class="st0" d="M346.3,60.3c0-7.7,5.7-13.5,13.6-13.5s13.5,5.8,13.5,13.5c0,7.6-5.7,13.4-13.5,13.4
			C351.9,73.7,346.3,68,346.3,60.3z M368.1,60.3c0-5.1-3.4-8.8-8.3-8.8s-8.3,3.7-8.3,8.8c0,5.1,3.5,8.8,8.3,8.8
			C364.6,69.1,368.1,65.3,368.1,60.3z"/>
		<path class="st0" d="M379.5,47.5h4.9v4.5h0.3c0.8-2.1,3.2-4.5,6.9-4.5h2.3v5h-2.4c-4.4,0-6.9,3.3-6.9,8v12.6h-5.1V47.5z"/>
		<path class="st0" d="M399.8,47.5h5v3.4h0.3c1-2.1,3.7-4.1,7.5-4.1c5.8,0,9.4,4.3,9.4,9.8v16.5h-5.1V57.6c0-3.6-2.5-6-5.7-6
			c-3.6,0-6.2,2.8-6.2,6.5v14.9h-5.1V47.5z"/>
		<path class="st0" d="M428.7,40.2c0-1.9,1.4-3.2,3.4-3.2c2,0,3.4,1.4,3.4,3.2c0,2-1.4,3.3-3.4,3.3
			C430.1,43.4,428.7,42.1,428.7,40.2z M429.5,47.5h5.1v25.6h-5.1V47.5z"/>
		<path class="st0" d="M440.2,60.3c0-7.9,5-13.5,12.2-13.5c4.9,0,7.5,3,8.4,4.4h0.3v-3.7h5.1v25.6h-5v-3.6h-0.3
			c-0.7,1-3.2,4.3-8.3,4.3C445.3,73.7,440.2,68.3,440.2,60.3z M461.3,60.3c0-5.5-3.4-8.8-7.9-8.8c-4.7,0-7.9,3.6-7.9,8.8
			c0,5.3,3.2,8.8,7.9,8.8C458.3,69.1,461.3,65.1,461.3,60.3z"/>
	</g>
	<g>
		<rect class="st0" width="64" height="64"/>
		<polygon class="st0" points="64,128 0,64 0,128 		"/>
		<polygon class="st0" points="64,64 128,128 128,0 		"/>
	</g>
</g>
</svg>
