<?xml version="1.0" encoding="utf-8"?>
<!-- Generator: Adobe Illustrator 25.0.0, SVG Export Plug-In . SVG Version: 6.00 Build 0)  -->
<svg version="1.1" id="Warstwa_1" xmlns="http://www.w3.org/2000/svg" xmlns:xlink="http://www.w3.org/1999/xlink" x="0px" y="0px"
	 viewBox="0 0 450.5 153" style="enable-background:new 0 0 450.5 153;" xml:space="preserve">
<style type="text/css">
	.st0{fill:#FFFFFF;}
	.st1{fill:#100C08;}
</style>
<g>
	<g>
		<g>
			<path class="st1" d="M78,0v59.3c-5-23.8-26.2-41.7-51.6-41.7c0,0-0.1,0-0.1,0v26.3c14.6,0,26.3,11.8,26.3,26.3
				S40.9,96.6,26.3,96.6V123c0,0,0.1,0,0.1,0C51.8,123,73,105.1,78,81.2v59.3c35.1-3.8,62.5-33.8,62.5-70.3S113.2,3.8,78,0z"/>
			<rect y="43.9" class="st1" width="26.3" height="52.7"/>
		</g>
	</g>
	<g>
		<g>
			<path class="st1" d="M199.8,0.3c-6.2,0-10.7,4.5-10.7,10.6c0,6.1,4.5,10.6,10.7,10.6c3.1,0,5.7-1,7.5-2.9c2-2,3-4.9,2.9-8.3
				h-10.7v3h6.6l0,0.1c-0.3,2.7-3,4.7-6.3,4.7c-4.1,0-6.9-3-6.9-7.2c0-4.2,2.8-7.1,6.9-7.1c2.7,0,4.9,1.3,5.8,3.5h4.1
				C208.5,3,204.6,0.3,199.8,0.3z"/>
			<path class="st1" d="M227.6,17l1.4,4.1h3.9l-7.3-20.4h-4.7l-7.3,20.4h3.8l1.4-4.1H227.6z M223,4.8h0.4l3.1,9h-6.7L223,4.8z"/>
			<polygon class="st1" points="244.3,11.9 249.7,21.1 253.9,21.1 246.7,8.8 253.7,0.7 249.2,0.7 242.1,9.4 241.7,9.4 241.7,0.7 
				238.1,0.7 238.1,21.1 241.7,21.1 241.7,14.7 244.2,11.8 			"/>
		</g>
		<path class="st1" d="M189.9,68.7h5.6c0.1,3.9,3.2,6.9,8.4,6.9c4.5,0,7.5-2,7.5-5.4c0-10.2-20.4-2.6-20.4-17.8
			c0-5.7,4.6-10.5,12.6-10.5c6.4,0,12.8,3.4,12.9,11.3h-5.9c0-3.7-2.5-6.1-7.1-6.1c-4.6,0-6.8,2.5-6.8,5.2c0,9.1,20.6,2.3,20.6,17.5
			c0,6.3-5,11.2-13.7,11.2C195.7,80.9,189.9,75.9,189.9,68.7z"/>
		<path class="st1" d="M222.2,66.2c0-8.3,6-14.8,14.6-14.8c6.7,0,12.3,4.1,13.6,10.5h-5.8c-1-3.2-4-5.4-7.7-5.4
			c-5.3,0-8.8,4.2-8.8,9.6c0,5.5,3.7,9.6,8.9,9.6c3.6,0,6.7-2.2,7.7-5.3h5.8c-1.2,6.5-6.9,10.4-13.6,10.4
			C228.1,80.9,222.2,74.5,222.2,66.2z"/>
		<path class="st1" d="M255.3,66.3c0-8.9,6-14.8,14-14.8c8.8,0,13.8,6.5,13.8,14.5V68h-22.2c0.2,4.9,3.5,8.2,8.7,8.2
			c3.6,0,6.6-1.7,7.7-4.5h5.5c-1.5,5.4-6.5,9.2-13.4,9.2C261,80.9,255.3,74.7,255.3,66.3z M277.5,63.6c-0.4-4.7-3.8-7.5-8.2-7.5
			c-4.3,0-7.9,3.1-8.3,7.5H277.5z"/>
		<path class="st1" d="M289.9,52.1h5.5v3.8h0.4c1.1-2.3,4-4.5,8.2-4.5c6.4,0,10.3,4.7,10.3,10.8v18.1h-5.6v-17
			c0-3.9-2.7-6.6-6.3-6.6c-3.9,0-6.8,3.1-6.8,7.2v16.4h-5.6V52.1z"/>
		<path class="st1" d="M320.5,66.3c0-8.7,5.5-14.8,13.4-14.8c5.4,0,8.3,3.3,9.2,4.8h0.4v-4.1h5.6v28.1h-5.5v-4h-0.3
			c-0.8,1.1-3.5,4.7-9.1,4.7C326.1,80.9,320.5,75,320.5,66.3z M343.6,66.2c0-6.1-3.8-9.6-8.7-9.6c-5.1,0-8.7,4-8.7,9.6
			c0,5.9,3.6,9.6,8.7,9.6C340.3,75.8,343.6,71.5,343.6,66.2z"/>
		<path class="st1" d="M192.5,102.9h6.8l13.1,30.3h0.3l11.9-30.3h6.7v37.7h-5.6v-25.8h-0.3l-10.2,25.8h-5.6l-11.2-26h-0.3v26h-5.6
			V102.9z"/>
		<path class="st1" d="M240.2,130.5v-18.1h5.6v17.1c0,4,2.7,6.6,6.3,6.6c3.9,0,6.8-3,6.8-7.1v-16.5h5.6v28.1h-5.5v-3.8h-0.4
			c-1.1,2.3-4,4.5-8.2,4.5C244.1,141.3,240.2,136.6,240.2,130.5z"/>
		<path class="st1" d="M271.4,135.7l14.6-18.1v-0.4h-14.1v-4.7h21.2v4.7l-14.6,18.2v0.4h14.9v4.8h-22V135.7z"/>
		<path class="st1" d="M300.7,147.9h2.5c2.6,0,4.1-1.2,4.9-3.4l1-2.7l-11.4-29.3h6.1l7.8,21.7h0.4l7.7-21.7h6.2l-12.9,33.7
			c-1.6,4.3-4.2,6.8-9.3,6.8h-3.2V147.9z"/>
		<path class="st1" d="M328.6,126.6c0-8.3,6-14.8,14.6-14.8c6.7,0,12.3,4.1,13.6,10.5H351c-1-3.2-4-5.4-7.7-5.4
			c-5.3,0-8.8,4.2-8.8,9.6c0,5.5,3.7,9.6,8.9,9.6c3.6,0,6.7-2.2,7.7-5.3h5.8c-1.2,6.5-6.9,10.4-13.6,10.4
			C334.5,141.3,328.6,134.8,328.6,126.6z"/>
		<path class="st1" d="M361.9,135.7l14.6-18.1v-0.4h-14.1v-4.7h21.2v4.7L369,135.4v0.4h14.9v4.8h-22V135.7z"/>
		<path class="st1" d="M391.4,112.5h5.5v3.8h0.4c1.1-2.3,4-4.5,8.2-4.5c6.4,0,10.3,4.7,10.3,10.8v18.1h-5.6v-17
			c0-3.9-2.7-6.6-6.3-6.6c-3.9,0-6.8,3.1-6.8,7.2v16.4h-5.6V112.5z"/>
		<path class="st1" d="M421.9,126.6c0-8.7,5.5-14.8,13.4-14.8c5.4,0,8.3,3.3,9.2,4.8h0.4v-4.1h5.6v28.1H445v-4h-0.3
			c-0.8,1.1-3.5,4.7-9.1,4.7C427.5,141.3,421.9,135.3,421.9,126.6z M445,126.6c0-6.1-3.8-9.6-8.7-9.6c-5.1,0-8.7,4-8.7,9.6
			c0,5.9,3.6,9.6,8.7,9.6C441.8,136.2,445,131.9,445,126.6z"/>
	</g>
</g>
</svg>
