<?xml version="1.0" encoding="UTF-8" standalone="no"?>
<svg
   xmlns:dc="http://purl.org/dc/elements/1.1/"
   xmlns:cc="http://creativecommons.org/ns#"
   xmlns:rdf="http://www.w3.org/1999/02/22-rdf-syntax-ns#"
   xmlns:svg="http://www.w3.org/2000/svg"
   xmlns="http://www.w3.org/2000/svg"
   id="Warstwa_1"
   data-name="Warstwa 1"
   viewBox="0 0 428.15998 165.12"
   version="1.1"
   width="428.16"
   height="165.12001">
  <metadata
     id="metadata49">
    <rdf:RDF>
      <cc:Work
         rdf:about="">
        <dc:format>image/svg+xml</dc:format>
        <dc:type
           rdf:resource="http://purl.org/dc/dcmitype/StillImage" />
        <dc:title>RGB_stacjaorunia_logo podstawowe_negatyw</dc:title>
      </cc:Work>
    </rdf:RDF>
  </metadata>
  <defs
     id="defs4">
    <style
       id="style2">.cls-1{fill:#100c08;}.cls-2{fill:#fff;}</style>
  </defs>
  <title
     id="title6">RGB_stacjaorunia_logo podstawowe_negatyw</title>
  <path
     class="cls-2"
     d="m 234.54,11.98 v 3.51 h 7.72 v 0.17 c -0.36,3.22 -3.47,5.55 -7.4,5.55 -4.77,0 -8.1,-3.47 -8.1,-8.44 0,-4.97 3.32,-8.35 8.06,-8.35 a 7.07,7.07 0 0 1 6.87,4.17 h 4.75 c -1.44,-5 -6,-8.27 -11.63,-8.27 a 12.09,12.09 0 0 0 -12.54,12.45 c 0,7.2 5.29,12.44 12.58,12.44 a 12,12 0 0 0 8.82,-3.43 c 2.3,-2.35 3.48,-5.74 3.41,-9.8 z"
     id="path10" />
  <path
     class="cls-2"
     d="m 267.44,19.97 1.7,4.78 h 4.57 l -8.56,-24 h -5.61 l -8.53,24 h 4.43 l 1.67,-4.78 z M 262.06,5.6 h 0.49 l 3.68,10.55 h -7.85 z"
     id="path12" />
  <polygon
     class="cls-2"
     points="373.46,225.47 373.54,225.39 381.65,215.86 376.33,215.86 368.04,226.09 367.6,226.09 367.6,215.86 363.29,215.86 363.29,239.83 367.6,239.83 367.6,232.33 367.64,232.29 370.52,228.93 376.9,239.83 381.92,239.83 "
     id="polygon14"
     transform="translate(-83.559998,-215.08)" />
  <path
     class="cls-2"
     d="m 223.08,80.69 h 6.64 c 0.06,4.55 3.79,8.15 9.92,8.15 5.24,0 8.78,-2.4 8.78,-6.38 0,-12 -24,-3.1 -24,-20.92 0,-6.7 5.44,-12.33 14.79,-12.33 7.52,0 15,4 15.17,13.28 h -6.84 c 0,-4.36 -3,-7.15 -8.34,-7.15 -5.34,0 -8,2.91 -8,6.07 0,10.68 24.21,2.66 24.21,20.54 0,7.4 -5.88,13.15 -16.05,13.15 -9.45,0 -16.28,-5.88 -16.28,-14.41 z"
     id="path16" />
  <path
     class="cls-2"
     d="M 266.63,83.79 V 66.66 h -5.95 v -5.37 h 4.37 a 2,2 0 0 0 2,-2.15 v -7.22 h 6.25 v 9.35 h 9.61 v 5.44 h -9.61 v 16.94 c 0,3.16 1.33,5.05 4.81,5.05 h 4.48 v 5.63 h -5.5 c -6.55,-0.05 -10.46,-3.65 -10.46,-10.54 z"
     id="path18" />
  <path
     class="cls-2"
     d="m 288.44,77.85 c 0,-10.24 6.51,-17.45 15.74,-17.45 a 12.69,12.69 0 0 1 10.81,5.63 h 0.45 v -4.81 h 6.64 v 33.06 h -6.51 V 89.6 h -0.38 a 12.71,12.71 0 0 1 -10.69,5.5 c -9.5,0 -16.06,-7.01 -16.06,-17.25 z m 27.18,-0.07 c 0,-7.14 -4.42,-11.31 -10.24,-11.31 -6,0 -10.18,4.68 -10.18,11.31 0,6.89 4.18,11.32 10.24,11.32 6.31,0 10.17,-5.06 10.17,-11.32 z"
     id="path20" />
  <path
     class="cls-2"
     d="m 329.26,77.78 c 0,-9.79 7.08,-17.38 17.13,-17.38 7.84,0 14.47,4.8 16,12.39 h -6.83 a 9.18,9.18 0 0 0 -9.1,-6.32 c -6.25,0 -10.36,4.93 -10.36,11.31 0,6.38 4.29,11.32 10.49,11.32 a 9.25,9.25 0 0 0 9,-6.26 h 6.76 c -1.45,7.58 -8.15,12.26 -15.93,12.26 -10.21,0 -17.16,-7.58 -17.16,-17.32 z"
     id="path22" />
  <path
     class="cls-2"
     d="m 362.51,102.92 h 2.34 c 3.6,0 5.68,-2.27 5.68,-5.62 v -36 h 6.64 v 36.09 c 0,7.21 -4.8,11.51 -11.69,11.51 h -3 z m 6.93,-51.11 a 4.39,4.39 0 1 1 4.36,4.23 4.14,4.14 0 0 1 -4.36,-4.23 z"
     id="path24" />
  <path
     class="cls-2"
     d="m 385.26,77.85 c 0,-10.24 6.51,-17.45 15.74,-17.45 a 12.65,12.65 0 0 1 10.8,5.63 h 0.45 v -4.81 h 6.63 v 33.06 h -6.51 V 89.6 h -0.38 a 12.67,12.67 0 0 1 -10.68,5.5 c -9.48,0 -16.05,-7.01 -16.05,-17.25 z m 27.18,-0.07 c 0,-7.14 -4.43,-11.31 -10.24,-11.31 -6,0 -10.18,4.68 -10.18,11.31 0,6.89 4.17,11.32 10.24,11.32 6.32,0 10.18,-5.06 10.18,-11.32 z"
     id="path26" />
  <path
     class="cls-2"
     d="m 223.52,141.53 c 0,-13 9.86,-22.95 23.13,-22.95 13.27,0 23.07,10 23.07,22.95 0,12.95 -9.79,22.94 -23.13,22.94 -13.34,0 -23.07,-9.8 -23.07,-22.94 z m 39.19,0 c 0,-9.36 -6.77,-16.5 -16.06,-16.5 -9.29,0 -16,7.14 -16,16.5 0,9.36 6.76,16.49 16,16.49 9.24,0 16.06,-7.01 16.06,-16.49 z"
     id="path28" />
  <path
     class="cls-2"
     d="m 277.88,130.59 h 6.38 v 5.75 h 0.44 a 9.53,9.53 0 0 1 8.85,-5.81 h 2.89 v 6.45 h -3.1 c -5.62,0 -8.85,4.23 -8.85,10.36 v 16.31 h -6.63 z"
     id="path30" />
  <path
     class="cls-2"
     d="m 303.6,151.83 v -21.24 h 6.64 v 20 c 0,4.68 3.22,7.71 7.39,7.71 4.62,0 8,-3.54 8,-8.34 v -19.37 h 6.63 v 33.06 h -6.44 v -4.42 h -0.38 c -1.33,2.71 -4.74,5.24 -9.68,5.24 -7.55,0 -12.16,-5.5 -12.16,-12.64 z"
     id="path32" />
  <path
     class="cls-2"
     d="m 342.03,130.59 h 6.41 v 4.43 h 0.45 c 1.32,-2.72 4.74,-5.25 9.67,-5.25 7.52,0 12.13,5.5 12.13,12.64 v 21.24 h -6.63 v -20 c 0,-4.62 -3.23,-7.71 -7.4,-7.71 -4.61,0 -8,3.6 -8,8.4 v 19.28 h -6.63 z"
     id="path34" />
  <path
     class="cls-2"
     d="m 379.25,121.18 a 4.4,4.4 0 1 1 4.37,4.23 4.15,4.15 0 0 1 -4.37,-4.23 z m 1,9.41 h 6.63 v 33.06 h -6.63 z"
     id="path36" />
  <path
     class="cls-2"
     d="m 394.53,147.22 c 0,-10.24 6.51,-17.45 15.74,-17.45 a 12.69,12.69 0 0 1 10.81,5.63 h 0.44 v -4.81 h 6.64 v 33.06 h -6.51 v -4.68 h -0.38 a 12.7,12.7 0 0 1 -10.68,5.5 c -9.49,0 -16.06,-7.01 -16.06,-17.25 z m 27.18,-0.07 c 0,-7.14 -4.42,-11.31 -10.24,-11.31 -6,0 -10.18,4.68 -10.18,11.31 0,6.89 4.18,11.32 10.24,11.32 6.32,0 10.18,-5.06 10.18,-11.32 z"
     id="path38" />
  <rect
     class="cls-2"
     x="0"
     y="123.84001"
     width="41.279999"
     height="41.279999"
     id="rect40" />
  <rect
     class="cls-2"
     x="123.84"
     y="123.84001"
     width="41.279999"
     height="41.279999"
     id="rect42" />
  <path
     class="cls-2"
     d="M 144.44,61.92 A 61.92,61.92 0 1 0 82.520002,123.84 61.92,61.92 0 0 0 144.44,61.92 Z M 82.520002,83.35 A 21.43,21.43 0 1 1 103.98,61.92 21.43,21.43 0 0 1 82.560002,83.35 Z"
     id="path44" />
</svg>
