<?xml version="1.0" encoding="utf-8"?>
<!-- Generator: Adobe Illustrator 25.0.0, SVG Export Plug-In . SVG Version: 6.00 Build 0)  -->
<svg version="1.1" id="Warstwa_1" xmlns="http://www.w3.org/2000/svg" xmlns:xlink="http://www.w3.org/1999/xlink" x="0px" y="0px"
	 viewBox="0 0 406.6 185.8" style="enable-background:new 0 0 406.6 185.8;" xml:space="preserve">
<style type="text/css">
	.st0{fill:#FFFFFF;}
	.st1{fill:#100C08;}
</style>
<g>
	<g>
		<g>
			<path class="st0" d="M240.8,13.5v3.9h8.7l0,0.2c-0.4,3.6-3.9,6.2-8.3,6.2c-5.4,0-9.1-3.9-9.1-9.5c0-5.5,3.7-9.4,9.1-9.4
				c3.6,0,6.5,1.7,7.7,4.7h5.4c-1.6-5.7-6.7-9.3-13.1-9.3c-8.2,0-14.1,5.9-14.1,14s6,14,14.2,14c4,0,7.5-1.3,9.9-3.9
				c2.6-2.7,3.9-6.5,3.8-11H240.8z"/>
			<path class="st0" d="M277.8,22.5l1.9,5.4h5.1l-9.6-27h-6.3l-9.6,27h5l1.9-5.4H277.8z M271.7,6.3h0.6l4.1,11.9h-8.8L271.7,6.3z"/>
			<polygon class="st0" points="306.9,27.9 312.6,27.9 303.1,11.7 303.2,11.6 312.3,0.9 306.3,0.9 297,12.4 296.5,12.4 296.5,0.9 
				291.6,0.9 291.6,27.9 296.5,27.9 296.5,19.4 296.5,19.4 299.8,15.6 			"/>
		</g>
		<path class="st0" d="M241.9,63.1h-14.8v-6.8h37.2v6.8h-14.8v43h-7.6V63.1z"/>
		<path class="st0" d="M263.1,87.6c0-11.8,8-19.6,18.6-19.6c11.6,0,18.2,8.5,18.2,19.1v2.8h-29.3c0.3,6.5,4.6,10.9,11.5,10.9
			c4.7,0,8.8-2.3,10.2-5.9h7.3c-1.9,7.2-8.5,12.2-17.7,12.2C270.7,107,263.1,98.8,263.1,87.6z M292.5,84.1
			c-0.5-6.3-5.1-9.9-10.8-9.9c-5.7,0-10.4,4.1-11,9.9H292.5z"/>
		<path class="st0" d="M306.3,87.6c0-11.5,7.3-19.6,17.7-19.6c7.1,0,11,4.4,12.2,6.3h0.5v-5.4h7.5v37.2h-7.3v-5.3h-0.4
			c-1,1.4-4.6,6.2-12,6.2C313.7,107,306.3,99.1,306.3,87.6z M336.9,87.5c0-8-5-12.7-11.5-12.7c-6.8,0-11.5,5.3-11.5,12.7
			c0,7.8,4.7,12.7,11.5,12.7C332.6,100.3,336.9,94.6,336.9,87.5z"/>
		<path class="st0" d="M358.5,94.3V75h-6.7v-6h4.9c1.3,0,2.2-0.9,2.2-2.4v-8.2h7v10.5h10.8V75H366v19.1c0,3.6,1.5,5.7,5.4,5.7h5.1
			v6.3h-6.2C363,106.1,358.5,102.1,358.5,94.3z"/>
		<path class="st0" d="M385.7,68.9h7.2v6.5h0.5c1.1-3,4.7-6.5,10-6.5h3.3v7.3h-3.5c-6.3,0-10,4.8-10,11.7v18.4h-7.5V68.9z"/>
	</g>
	<g>
		<g>
			<path class="st0" d="M69.7,92.9c0,51.3,41.6,92.9,92.9,92.9V0C111.3,0,69.7,41.6,69.7,92.9z M116.2,116.2
				c-12.8,0-23.2-10.4-23.2-23.2c0-12.8,10.4-23.2,23.2-23.2c12.8,0,23.2,10.4,23.2,23.2C139.4,105.8,129,116.2,116.2,116.2z"/>
			
				<ellipse transform="matrix(0.9732 -0.2298 0.2298 0.9732 -20.7283 7.8233)" class="st0" cx="23.2" cy="92.9" rx="23.2" ry="23.2"/>
		</g>
	</g>
</g>
</svg>
