<?xml version="1.0" encoding="utf-8"?>
<!-- Generator: Adobe Illustrator 25.0.0, SVG Export Plug-In . SVG Version: 6.00 Build 0)  -->
<svg version="1.1" id="Warstwa_1" xmlns="http://www.w3.org/2000/svg" xmlns:xlink="http://www.w3.org/1999/xlink" x="0px" y="0px"
	 viewBox="0 0 423.8 169.7" style="enable-background:new 0 0 423.8 169.7;" xml:space="preserve">
<style type="text/css">
	.st0{fill:#FFFFFF;}
	.st1{fill:#100C08;}
</style>
<g>
	<g>
		<g>
			<path class="st1" d="M241,12.3v3.6h7.9l0,0.2c-0.4,3.3-3.6,5.7-7.6,5.7c-4.9,0-8.3-3.6-8.3-8.7c0-5,3.4-8.6,8.3-8.6
				c3.3,0,5.9,1.6,7.1,4.3h4.9c-1.5-5.2-6.2-8.5-12-8.5c-7.5,0-12.9,5.4-12.9,12.8s5.4,12.8,12.9,12.8c3.7,0,6.8-1.2,9.1-3.5
				c2.4-2.4,3.6-5.9,3.5-10.1H241z"/>
			<path class="st1" d="M274.8,20.5l1.7,4.9h4.7l-8.8-24.6h-5.7l-8.8,24.6h4.5l1.7-4.9H274.8z M269.3,5.8h0.5l3.8,10.8h-8.1
				L269.3,5.8z"/>
			<polygon class="st1" points="301.4,25.4 306.6,25.4 297.9,10.7 306.3,0.8 300.9,0.8 292.3,11.3 291.9,11.3 291.9,0.8 287.5,0.8 
				287.5,25.4 291.9,25.4 291.9,17.7 291.9,17.7 294.9,14.2 			"/>
		</g>
		<path class="st1" d="M227.9,51.4h7.5l8.4,35.8h0.5l9-35.8h8.6l9.1,35.8h0.4l8.4-35.8h7.6l-11.7,45.5H267l-9.2-35.8h-0.5l-9.2,35.8
			h-8.6L227.9,51.4z"/>
		<path class="st1" d="M292.8,53.2c0-2.5,1.9-4.3,4.5-4.3c2.7,0,4.5,1.8,4.5,4.3c0,2.6-1.9,4.4-4.5,4.4
			C294.6,57.6,292.8,55.8,292.8,53.2z M293.8,62.9h6.8v34h-6.8V62.9z"/>
		<path class="st1" d="M310.4,62.9h6.6v4.5h0.5c1.4-2.8,4.9-5.4,9.9-5.4c7.7,0,12.5,5.7,12.5,13v21.8h-6.8V76.4
			c0-4.7-3.3-7.9-7.6-7.9c-4.7,0-8.2,3.7-8.2,8.6v19.8h-6.8V62.9z"/>
		<path class="st1" d="M347.3,80c0-10.5,6.7-17.9,16.2-17.9c6.5,0,10,4,11.1,5.8h0.5V48.2h6.8v48.7h-6.7v-4.8h-0.4
			c-0.9,1.3-4.2,5.7-11,5.7C354.1,97.7,347.3,90.5,347.3,80z M375.3,79.9c0-7.3-4.5-11.6-10.5-11.6c-6.2,0-10.5,4.8-10.5,11.6
			c0,7.1,4.3,11.6,10.5,11.6C371.3,91.6,375.3,86.4,375.3,79.9z"/>
		<path class="st1" d="M389.3,80c0-10.5,6.7-17.9,16.2-17.9c6.5,0,10,4,11.1,5.8h0.5v-4.9h6.8v34h-6.7v-4.8h-0.4
			c-0.9,1.3-4.2,5.7-11,5.7C396,97.7,389.3,90.5,389.3,80z M417.2,79.9c0-7.3-4.5-11.6-10.5-11.6c-6.2,0-10.5,4.8-10.5,11.6
			c0,7.1,4.3,11.6,10.5,11.6C413.2,91.6,417.2,86.4,417.2,79.9z"/>
	</g>
	<g>
		<rect class="st1" width="53" height="106"/>
		<rect x="116.7" y="63.6" class="st1" width="53" height="106"/>
		<polygon class="st1" points="53,169.7 116.7,169.7 53,106 		"/>
		<polygon class="st1" points="116.7,0 53,0 116.7,63.6 		"/>
	</g>
</g>
</svg>
