<?xml version="1.0" encoding="utf-8"?>
<!-- Generator: Adobe Illustrator 25.0.0, SVG Export Plug-In . SVG Version: 6.00 Build 0)  -->
<svg version="1.1" id="Warstwa_1" xmlns="http://www.w3.org/2000/svg" xmlns:xlink="http://www.w3.org/1999/xlink" x="0px" y="0px"
	 viewBox="0 0 418.8 140.4" style="enable-background:new 0 0 418.8 140.4;" xml:space="preserve">
<style type="text/css">
	.st0{fill:#FFFFFF;}
	.st1{fill:#100C08;}
</style>
<g>
	<path class="st0" d="M199.4,10.2v3h6.6l0,0.1c-0.3,2.7-3,4.7-6.3,4.7c-4.1,0-6.9-3-6.9-7.2c0-4.2,2.8-7.1,6.9-7.1
		c2.7,0,4.9,1.3,5.8,3.5h4c-1.2-4.3-5.1-7-9.9-7c-6.2,0-10.7,4.5-10.7,10.6c0,6.1,4.5,10.6,10.7,10.6c3.1,0,5.6-1,7.5-2.9
		c2-2,3-4.9,2.9-8.3H199.4z"/>
	<path class="st0" d="M227.4,17l1.4,4.1h3.9l-7.3-20.4h-4.7l-7.3,20.4h3.8l1.4-4.1H227.4z M222.8,4.8h0.4l3.1,9h-6.7L222.8,4.8z"/>
	<polygon class="st0" points="249.4,21.1 253.7,21.1 246.5,8.8 246.6,8.8 253.5,0.7 249,0.7 241.9,9.4 241.5,9.4 241.5,0.7 
		237.9,0.7 237.9,21.1 241.5,21.1 241.5,14.7 244,11.8 	"/>
	<path class="st0" d="M188.5,42.6h6.2l6.9,29.6h0.4l7.5-29.6h7.2l7.5,29.6h0.3l6.9-29.6h6.3l-9.7,37.6H221l-7.6-29.6H213l-7.6,29.6
		h-7.1L188.5,42.6z"/>
	<path class="st0" d="M243,87.5h2.5c2.6,0,4.1-1.2,4.9-3.4l1-2.7l-11.3-29.3h6.1l7.8,21.7h0.4l7.7-21.7h6.2l-12.9,33.7
		c-1.6,4.3-4.2,6.8-9.2,6.8H243V87.5z"/>
	<path class="st0" d="M271.6,71.9h5.3c0.4,2.9,2.5,4.4,6.1,4.4c3.7,0,5.8-1.7,5.8-4.1c0-6.9-16.5-1.1-16.5-12.5
		c0-4.7,4.2-8.2,10.6-8.2c5.6,0,10.1,3.1,10.5,8.4h-5.2c-0.3-2.4-2.1-3.9-5.5-3.9c-3.2,0-5.2,1.5-5.2,3.6c0,6.2,16.7,0.4,16.7,12.4
		c0,5.3-4.4,9-11.4,9C275.7,80.9,271.9,77.3,271.6,71.9z"/>
	<path class="st0" d="M301.7,52.1h5.5v4h0.4c0.8-1.1,3.4-4.7,9-4.7c8.1,0,13.7,6,13.7,14.7s-5.5,14.8-13.3,14.8
		c-5.4,0-8.3-3.3-9.2-4.8h-0.3v16.5h-5.6V52.1z M324.5,66.1c0-5.9-3.5-9.6-8.7-9.6c-5.4,0-8.6,4.3-8.6,9.6c0,6.1,3.8,9.7,8.7,9.7
		C321,75.8,324.5,71.8,324.5,66.1z"/>
	<path class="st0" d="M335,66.2c0-8.7,5.5-14.8,13.4-14.8c5.4,0,8.3,3.3,9.2,4.8h0.4v-4.1h5.6v28.1h-5.5v-4h-0.3
		c-0.8,1.1-3.5,4.7-9.1,4.7C340.6,80.9,335,74.9,335,66.2z M358.2,66.2c0-6.1-3.8-9.6-8.7-9.6c-5.1,0-8.7,4-8.7,9.6
		c0,5.9,3.5,9.6,8.7,9.6C354.9,75.8,358.2,71.5,358.2,66.2z"/>
	<path class="st0" d="M189.7,127.6h5.6c0.1,3.9,3.2,6.9,8.4,6.9c4.5,0,7.5-2,7.5-5.4c0-10.2-20.4-2.6-20.4-17.8
		c0-5.7,4.6-10.5,12.6-10.5c6.4,0,12.8,3.4,12.9,11.3h-5.9c0-3.7-2.5-6.1-7.1-6.1c-4.6,0-6.8,2.5-6.8,5.2c0,9.1,20.6,2.3,20.6,17.5
		c0,6.3-5,11.2-13.7,11.2C195.5,139.9,189.7,134.9,189.7,127.6z"/>
	<path class="st0" d="M241.9,139.2l-8-13.3l-4.4,4.8v8.5H224V98.9h5.6v24.2h0.3l10.6-12h7l-9.8,10.6l10.5,17.5H241.9z"/>
	<path class="st0" d="M250.2,125.2c0-8.7,5.5-14.8,13.4-14.8c5.4,0,8.3,3.3,9.2,4.8h0.4v-4.1h5.6v28.1h-5.5v-4h-0.3
		c-0.8,1.1-3.5,4.7-9.1,4.7C255.8,139.9,250.2,133.9,250.2,125.2z M273.3,125.2c0-6.1-3.8-9.6-8.7-9.6c-5.1,0-8.7,4-8.7,9.6
		c0,5.9,3.5,9.6,8.7,9.6C270,134.8,273.3,130.5,273.3,125.2z"/>
	<path class="st0" d="M287.1,111.1h5.4v4.9h0.4c0.9-2.3,3.5-4.9,7.5-4.9h2.5v5.5h-2.6c-4.8,0-7.5,3.6-7.5,8.8v13.9h-5.6V111.1z"/>
	<path class="st0" d="M315,135.2h-0.4v4h-5.5V98.9h5.6v16.3h0.3c0.9-1.5,3.9-4.8,9.2-4.8c7.8,0,13.3,6.1,13.3,14.8
		c0,8.7-5.5,14.7-13.7,14.7C318.5,139.9,315.8,136.3,315,135.2z M332,125.2c0-5.6-3.5-9.6-8.6-9.6c-4.9,0-8.7,3.5-8.7,9.6
		c0,5.3,3.2,9.6,8.6,9.6C328.5,134.8,332,131,332,125.2z"/>
	<path class="st0" d="M342.6,125.2c0-8.4,6.2-14.8,14.9-14.8c8.7,0,14.8,6.4,14.8,14.8c0,8.4-6.2,14.7-14.8,14.7
		C348.8,139.9,342.6,133.6,342.6,125.2z M366.5,125.2c0-5.6-3.8-9.6-9.1-9.6c-5.3,0-9.1,4.1-9.1,9.6c0,5.6,3.8,9.6,9.1,9.6
		C362.7,134.8,366.5,130.7,366.5,125.2z M357.9,99h6l-4.8,7.5h-4.1L357.9,99z"/>
	<path class="st0" d="M375.2,111.1h6l5.8,21.5h0.4l6.7-21.5h6l6.7,21.5h0.4l5.8-21.5h6l-8.3,28.1h-6.8l-6.6-20.9h-0.3l-6.6,20.9
		h-6.7L375.2,111.1z"/>
	<g>
		<rect x="57.8" y="5.1" transform="matrix(0.7071 -0.7071 0.7071 0.7071 8.154 54.7973)" class="st0" width="24.8" height="24.8"/>
		<path class="st0" d="M70.2,70.2C31.4,70.2,0,101.7,0,140.4h140.4C140.4,101.7,109,70.2,70.2,70.2z"/>
	</g>
</g>
</svg>
