<?xml version="1.0" encoding="utf-8"?>
<!-- Generator: Adobe Illustrator 25.0.0, SVG Export Plug-In . SVG Version: 6.00 Build 0)  -->
<svg version="1.1" id="Warstwa_1" xmlns="http://www.w3.org/2000/svg" xmlns:xlink="http://www.w3.org/1999/xlink" x="0px" y="0px"
	 viewBox="0 0 467.8 170.7" style="enable-background:new 0 0 467.8 170.7;" xml:space="preserve">
<style type="text/css">
	.st0{fill:#FFFFFF;}
	.st1{fill:#100C08;}
</style>
<g>
	<g>
		<g>
			<path class="st0" d="M173.5,8.7v2.6h5.6l0,0.1c-0.3,2.3-2.5,4.1-5.4,4.1c-3.5,0-5.9-2.5-5.9-6.2c0-3.6,2.4-6.1,5.9-6.1
				c2.3,0,4.2,1.1,5,3h3.5c-1.1-3.7-4.4-6-8.5-6c-5.3,0-9.2,3.8-9.2,9.1c0,5.3,3.9,9.1,9.2,9.1c2.6,0,4.8-0.9,6.4-2.5
				c1.7-1.7,2.5-4.2,2.5-7.2H173.5z"/>
			<path class="st0" d="M197.5,14.6l1.2,3.5h3.3l-6.3-17.5h-4.1l-6.2,17.5h3.2l1.2-3.5H197.5z M193.5,4.1h0.4l2.7,7.7h-5.7
				L193.5,4.1z"/>
			<polygon class="st0" points="216.4,18.1 220.1,18.1 213.9,7.6 213.9,7.5 219.9,0.6 216,0.6 209.9,8 209.6,8 209.6,0.6 206.5,0.6 
				206.5,18.1 209.6,18.1 209.6,12.6 209.6,12.6 211.7,10.1 			"/>
		</g>
		<path class="st0" d="M165.5,64.2l18.1-23v-0.3h-17.5v-4.3h23.6v4.6l-18.1,23v0.3h18.2v4.3h-24.2V64.2z"/>
		<path class="st0" d="M193,56.8c0-7.7,5.2-12.7,12-12.7c7.5,0,11.8,5.5,11.8,12.4v1.8h-19c0.2,4.2,3,7.1,7.4,7.1
			c3,0,5.7-1.5,6.6-3.8h4.7c-1.2,4.7-5.5,7.9-11.5,7.9C197.9,69.4,193,64.1,193,56.8z M212,54.6c-0.3-4.1-3.3-6.4-7-6.4
			c-3.7,0-6.7,2.6-7.1,6.4H212z"/>
		<path class="st0" d="M221.6,61.7h4.6c0.3,2.5,2.1,3.8,5.3,3.8c3.2,0,4.9-1.4,4.9-3.6c0-5.9-14.1-0.9-14.1-10.8
			c0-4.1,3.6-7.1,9.1-7.1c4.8,0,8.6,2.6,9,7.2h-4.4c-0.3-2-1.8-3.4-4.8-3.4c-2.7,0-4.4,1.3-4.4,3.1c0,5.4,14.3,0.4,14.3,10.6
			c0,4.6-3.7,7.8-9.8,7.8C225.1,69.4,221.9,66.3,221.6,61.7z"/>
		<path class="st0" d="M246.2,44.7h4.7v3.5h0.3c0.6-1,3-4.1,7.8-4.1c7,0,11.7,5.1,11.7,12.6s-4.8,12.7-11.4,12.7
			c-4.7,0-7.2-2.8-7.9-4.1h-0.3v14.1h-4.8V44.7z M265.8,56.7c0-5-3-8.3-7.5-8.3c-4.6,0-7.4,3.7-7.4,8.3c0,5.2,3.2,8.3,7.5,8.3
			C262.8,65,265.8,61.6,265.8,56.7z"/>
		<path class="st0" d="M275.1,56.8c0-7.2,5.4-12.7,12.8-12.7s12.7,5.5,12.7,12.7c0,7.2-5.4,12.6-12.7,12.6
			C280.4,69.4,275.1,64,275.1,56.8z M295.6,56.8c0-4.8-3.2-8.3-7.8-8.3c-4.6,0-7.8,3.5-7.8,8.3c0,4.8,3.3,8.3,7.8,8.3
			C292.4,65,295.6,61.5,295.6,56.8z M288.3,34.4h5.1l-4.2,6.4h-3.6L288.3,34.4z"/>
		<path class="st0" d="M312.9,52v10.6c0,1.3,0.7,2,1.9,2h1v4.3h-2c-3.6,0-5.8-2.2-5.8-6v-8.3l-3.2,1.8v-4.5l3.2-1.8V34.2h4.8v13.2
			l4.4-2.4v4.5L312.9,52z"/>
		<path class="st0" d="M167.4,87.2h11.9c6,0,10.3,4,10.3,10.1c0,6-4.5,10.2-10.3,10.2h-6.9v12h-5V87.2z M178.9,103.1
			c3.5,0,5.8-2.5,5.8-5.9c0-3.4-2.3-5.8-5.8-5.8h-6.5v11.7H178.9z"/>
		<path class="st0" d="M194.4,88.5c0-1.8,1.3-3,3.2-3c1.9,0,3.2,1.3,3.2,3c0,1.8-1.3,3.1-3.2,3.1C195.7,91.6,194.4,90.3,194.4,88.5z
			 M195.1,95.3h4.8v24.1h-4.8V95.3z"/>
		<path class="st0" d="M205.2,107.5c0-7.7,5.2-12.7,12-12.7c7.5,0,11.8,5.5,11.8,12.4v1.8h-19c0.2,4.2,3,7.1,7.4,7.1
			c3,0,5.7-1.5,6.6-3.8h4.7c-1.2,4.7-5.5,7.9-11.5,7.9C210.1,120.1,205.2,114.7,205.2,107.5z M224.3,105.2c-0.3-4.1-3.3-6.4-7-6.4
			c-3.7,0-6.7,2.6-7.1,6.4H224.3z"/>
		<path class="st0" d="M233.5,112.3h4.6c0.3,2.5,2.1,3.8,5.3,3.8c3.2,0,4.9-1.4,4.9-3.6c0-5.9-14.1-0.9-14.1-10.8
			c0-4.1,3.6-7.1,9.1-7.1c4.8,0,8.6,2.6,9,7.2h-4.4c-0.3-2-1.8-3.4-4.8-3.4c-2.7,0-4.4,1.3-4.4,3.1c0,5.4,14.3,0.4,14.3,10.6
			c0,4.6-3.7,7.8-9.8,7.8C237.1,120.1,233.9,117,233.5,112.3z M243.6,85h5.1l-4.2,6.4H241L243.6,85z"/>
		<path class="st0" d="M259.4,95.3h4.7v3.2h0.3c1-2,3.5-3.8,7.1-3.8c5.5,0,8.9,4,8.9,9.2v15.5h-4.8v-14.6c0-3.4-2.4-5.6-5.4-5.6
			c-3.4,0-5.9,2.6-5.9,6.1v14.1h-4.8V95.3z"/>
		<path class="st0" d="M286.6,88.5c0-1.8,1.3-3,3.2-3c1.9,0,3.2,1.3,3.2,3c0,1.8-1.3,3.1-3.2,3.1C287.9,91.6,286.6,90.3,286.6,88.5z
			 M287.3,95.3h4.8v24.1h-4.8V95.3z"/>
		<path class="st0" d="M310.9,88.5c0-1.8,1.3-3,3.2-3c1.9,0,3.2,1.3,3.2,3c0,1.8-1.3,3.1-3.2,3.1C312.3,91.6,310.9,90.3,310.9,88.5z
			 M311.7,95.3h4.8v24.1h-4.8V95.3z"/>
		<path class="st0" d="M343.2,91.6h-9.6v-4.4h24.1v4.4h-9.6v27.9h-4.9V91.6z"/>
		<path class="st0" d="M357.1,107.5c0-7.5,4.8-12.7,11.5-12.7c4.6,0,7.1,2.9,7.9,4.1h0.3v-3.5h4.8v24.1h-4.8v-3.4h-0.3
			c-0.6,0.9-3,4-7.8,4C361.9,120.1,357.1,114.9,357.1,107.5z M377,107.4c0-5.2-3.2-8.3-7.5-8.3c-4.4,0-7.4,3.4-7.4,8.3
			c0,5,3,8.3,7.5,8.3C374.2,115.7,377,112,377,107.4z"/>
		<path class="st0" d="M388.7,95.3h4.7v3.2h0.3c1-2,3.5-3.8,7.1-3.8c5.5,0,8.9,4,8.9,9.2v15.5h-4.8v-14.6c0-3.4-2.4-5.6-5.4-5.6
			c-3.4,0-5.9,2.6-5.9,6.1v14.1h-4.8V95.3z M400.1,85h5.1l-4.2,6.4h-3.6L400.1,85z"/>
		<path class="st0" d="M414.9,107.4c0-7.2,5.2-12.7,12.5-12.7c5.7,0,10.6,3.5,11.7,9h-5c-0.8-2.8-3.5-4.6-6.6-4.6
			c-4.6,0-7.6,3.6-7.6,8.3c0,4.8,3.1,8.3,7.7,8.3c3.1,0,5.8-1.8,6.6-4.6h4.9c-1.1,5.5-6,9-11.6,9
			C419.9,120.1,414.9,114.5,414.9,107.4z"/>
		<path class="st0" d="M443.2,107.5c0-7.5,4.8-12.7,11.5-12.7c4.6,0,7.1,2.9,7.9,4.1h0.3v-3.5h4.8v24.1H463v-3.4h-0.3
			c-0.6,0.9-3,4-7.8,4C448,120.1,443.2,114.9,443.2,107.5z M463.1,107.4c0-5.2-3.2-8.3-7.5-8.3c-4.4,0-7.4,3.4-7.4,8.3
			c0,5,3,8.3,7.5,8.3C460.3,115.7,463.1,112,463.1,107.4z"/>
		<path class="st0" d="M165.4,154c0-9.5,7-16.7,16.8-16.7c7.8,0,13.5,4.7,15.5,10.9h-5.5c-1.5-3.7-5-6.2-10-6.2
			c-7,0-11.6,5.2-11.6,12c0,7,4.7,12.1,11.7,12.1c5.9,0,10.4-3.7,10.8-9h-11.6v-4.2h17.2c0.2,11.6-7.2,17.8-16.4,17.8
			C172.5,170.7,165.4,163.6,165.4,154z"/>
		<path class="st0" d="M202.9,158.1c0-7.5,4.8-12.7,11.5-12.7c4.6,0,7.1,2.9,7.9,4.1h0.3v-14h4.8v34.6h-4.8v-3.4h-0.3
			c-0.6,0.9-3,4-7.8,4C207.7,170.7,202.9,165.6,202.9,158.1z M222.7,158.1c0-5.2-3.2-8.3-7.5-8.3c-4.4,0-7.4,3.4-7.4,8.3
			c0,5,3,8.3,7.5,8.3C219.9,166.3,222.7,162.6,222.7,158.1z"/>
		<path class="st0" d="M232.7,158.1c0-7.5,4.8-12.7,11.5-12.7c4.6,0,7.1,2.9,7.9,4.1h0.3V146h4.8v24.1h-4.8v-3.4h-0.3
			c-0.6,0.9-3,4-7.8,4C237.5,170.7,232.7,165.6,232.7,158.1z M252.5,158.1c0-5.2-3.2-8.3-7.5-8.3c-4.4,0-7.4,3.4-7.4,8.3
			c0,5,3,8.3,7.5,8.3C249.7,166.3,252.5,162.6,252.5,158.1z"/>
		<path class="st0" d="M264.2,146h4.7v3.2h0.3c1-2,3.5-3.8,7.1-3.8c5.5,0,8.9,4,8.9,9.2v15.5h-4.8v-14.6c0-3.4-2.4-5.6-5.4-5.6
			c-3.4,0-5.9,2.6-5.9,6.1v14.1h-4.8V146z M275.7,135.6h5.1l-4.2,6.4h-3.6L275.7,135.6z"/>
		<path class="st0" d="M290.7,163h4.6c0.3,2.5,2.1,3.8,5.3,3.8c3.2,0,4.9-1.4,4.9-3.6c0-5.9-14.1-0.9-14.1-10.8
			c0-4.1,3.6-7.1,9.1-7.1c4.8,0,8.6,2.6,9,7.2h-4.4c-0.3-2-1.8-3.4-4.8-3.4c-2.7,0-4.4,1.3-4.4,3.1c0,5.4,14.3,0.4,14.3,10.6
			c0,4.6-3.7,7.8-9.8,7.8C294.3,170.7,291,167.6,290.7,163z"/>
		<path class="st0" d="M332,170.1l-6.8-11.4l-3.7,4.1v7.3h-4.8v-34.6h4.8v20.8h0.3l9.1-10.3h6l-8.4,9.1l9,15H332z"/>
	</g>
	<g>
		<circle class="st0" cx="105.5" cy="30.1" r="15.1"/>
		<ellipse class="st0" cx="7.5" cy="52.7" rx="7.5" ry="7.5"/>
		<circle class="st0" cx="52.7" cy="7.5" r="7.5"/>
		<path class="st0" d="M60.3,120.5c33.3,0,60.3-27,60.3-60.3H60.3V120.5z"/>
		<path class="st0" d="M60.3,60.3V22.6H22.6C22.6,43.4,39.5,60.3,60.3,60.3z"/>
		<path class="st0" d="M0,120.5c25,0,45.2-20.2,45.2-45.2H0V120.5z"/>
	</g>
</g>
</svg>
